<svg width="22" height="22" viewBox="0 0 22 22" fill="none" xmlns="http://www.w3.org/2000/svg">
<g clip-path="url(#clip0_90_321)">
<path d="M21.2142 16.5C21.2142 19.1086 16.6414 21.2143 10.9999 21.2143C5.3585 21.2143 0.785645 19.1086 0.785645 16.5" stroke="#2D2B27" stroke-linecap="round" stroke-linejoin="round"/>
<path d="M14.9284 8.6423C14.9284 10.8109 11.7856 14.1423 10.9999 14.1423C10.2141 14.1423 7.07129 10.8109 7.07129 8.6423C7.07129 5.49944 10.9999 0.785156 10.9999 0.785156C10.9999 0.785156 14.9284 5.49944 14.9284 8.6423Z" stroke="#2D2B27" stroke-linecap="round" stroke-linejoin="round"/>
<path d="M7.66843 6.11146C5.70363 5.38846 3.65478 4.91849 1.57129 4.71289C1.57129 4.71289 2.12129 10.8257 4.35272 13.0415C5.92415 14.6129 10.4656 14.7072 11.0156 14.1572" stroke="#2D2B27" stroke-linecap="round" stroke-linejoin="round"/>
<path d="M14.3315 6.11146C16.2963 5.38846 18.3452 4.91849 20.4287 4.71289C20.4287 4.71289 19.8787 10.8257 17.6472 13.0415C16.0758 14.6129 11.5344 14.7072 10.9844 14.1572" stroke="#2D2B27" stroke-linecap="round" stroke-linejoin="round"/>
</g>
<defs>
<clipPath id="clip0_90_321">
<rect width="22" height="22" fill="white"/>
</clipPath>
</defs>
</svg>
