<svg width="125" height="113" viewBox="0 0 125 113" fill="none" xmlns="http://www.w3.org/2000/svg">
<path d="M61.4957 0.16338C61.1448 0.373931 61.0308 0.584481 61.0308 1.04067C61.0308 1.56705 61.3905 1.91797 61.9344 1.91797C62.2765 1.91797 62.3642 1.8741 62.5923 1.61969C62.7415 1.453 62.8819 1.18981 62.9169 1.04067C63.0924 0.25111 62.2239 -0.28404 61.4957 0.16338Z" fill="currentColor"/>
<path d="M51.2312 4.39562C51.0294 4.65881 51.0382 4.84304 51.2487 5.20273C51.5294 5.68524 51.5294 5.97475 51.2224 6.43094C51.082 6.63272 50.8627 7.01873 50.7311 7.29947C50.4416 7.88725 50.4591 8.15044 50.8539 8.71191C51.1434 9.14178 51.7839 9.50147 52.8015 9.82607C53.1349 9.92257 53.4244 10.0454 53.4507 10.0893C53.5648 10.2735 53.3718 10.6244 52.8629 11.1947C52.0032 12.1509 51.8014 12.8352 52.1962 13.423C52.4067 13.7476 52.8278 13.9844 53.8192 14.3441C54.3807 14.5459 54.4772 14.6161 54.6789 14.9582C54.8544 15.2565 54.8983 15.4144 54.8456 15.6338C54.8193 15.7829 54.7667 16.09 54.7491 16.3093C54.7053 16.6602 54.7316 16.7304 54.9684 16.9585L55.2316 17.2129L55.5211 17.0374C56.1703 16.6602 56.5037 15.2302 56.1265 14.4757C55.8721 13.9932 55.4334 13.6423 54.4947 13.1949C53.9245 12.9141 53.6613 12.7475 53.6613 12.6422C53.6613 12.5632 53.8104 12.2913 54.0034 12.0456C54.6438 11.1947 55.0649 10.4051 55.0649 10.0279C55.0649 9.33479 54.7491 9.06283 53.3981 8.58909C52.012 8.10658 51.9067 7.99253 52.2225 7.30824C52.3541 7.01873 52.5032 6.53622 52.5647 6.22917C52.7489 5.32555 52.512 4.85181 51.6523 4.39562C51.5382 4.34298 51.4154 4.29035 51.3803 4.29035C51.3452 4.29035 51.275 4.34298 51.2312 4.39562Z" fill="currentColor"/>
<path d="M61.4264 4.98005C60.5755 5.50642 60.479 5.90121 61.0404 6.46268C61.3475 6.76096 61.4177 6.89255 61.444 7.24347C61.4878 7.69089 61.4703 7.73475 60.7685 8.92787C60.2245 9.84026 60.2333 10.1912 60.8386 11.0948C61.5054 12.0774 61.5142 12.2353 60.9088 13.8934C60.5316 14.9198 60.6281 15.6918 61.172 16.1217C61.7773 16.5954 62.1283 16.2094 62.3476 14.8145C62.4002 14.4548 62.5494 13.8232 62.6722 13.4108C63.1986 11.6387 63.1722 11.2527 62.4967 10.6298C62.2423 10.4017 62.0054 10.1649 61.9704 10.1122C61.9089 10.0069 62.2072 8.97174 62.3476 8.80505C62.3915 8.75241 62.5845 8.22604 62.7862 7.6207C63.3214 6.02403 63.2951 5.25201 62.681 4.93618C62.3476 4.76073 61.7423 4.77827 61.4264 4.98005Z" fill="currentColor"/>
<path d="M72.6111 5.16499C72.4795 5.30536 72.3479 5.54223 72.3216 5.6826C72.2339 6.08615 71.8215 6.48971 70.9969 6.9459C70.0933 7.44596 69.909 7.70915 70.0845 8.21798C70.1371 8.39344 70.26 8.62153 70.3389 8.71804C70.9267 9.41987 70.7776 9.85852 69.8301 10.2007C69.1458 10.4551 68.8387 10.6305 68.558 10.9464C68.1632 11.3938 68.2246 11.9114 68.8212 12.9817C69.0756 13.4291 69.2774 13.8414 69.2774 13.9028C69.2774 13.973 69.0668 14.1748 68.8212 14.359C68.2071 14.8152 68.093 14.9556 67.9264 15.4557C67.7509 15.9645 67.7509 16.2277 67.9088 16.5961C68.0667 16.9734 68.3387 17.2015 68.5931 17.1664C68.751 17.1488 68.83 17.0348 68.9703 16.5961C69.1809 15.9469 69.33 15.7715 70.067 15.3328C71.0232 14.7626 71.1636 14.438 70.7688 13.6572C70.6109 13.3501 70.4179 13.008 70.3389 12.8852C70.0845 12.5167 69.7862 11.8149 69.8389 11.7008C69.8564 11.6394 70.0319 11.5342 70.2161 11.4815C71.0057 11.2271 71.9531 10.7007 72.1549 10.4024C72.4269 9.99011 72.4006 9.72692 71.997 8.89349C71.804 8.48994 71.6461 8.13902 71.6461 8.1127C71.6461 8.08638 71.9531 7.83197 72.3304 7.55123C73.3744 6.74412 73.5761 6.45462 73.5761 5.75278C73.5761 4.95444 73.0936 4.65616 72.6111 5.16499Z" fill="currentColor"/>
<path d="M41.2564 7.76207C41.081 7.9463 41.0283 8.07789 41.0283 8.38494C41.0283 9.2096 41.8705 9.57806 42.5197 9.03414C42.7741 8.82359 42.8268 8.72709 42.8268 8.41126C42.8268 8.10421 42.7741 7.99894 42.5373 7.78838C42.1513 7.43747 41.5986 7.42869 41.2564 7.76207Z" fill="currentColor"/>
<path d="M81.2706 8.2423C81.139 8.34758 80.9723 8.5669 80.9021 8.73359C80.788 8.99678 80.788 9.07573 80.8933 9.32138C81.0425 9.68107 81.3407 9.90039 81.6741 9.90039C82.4549 9.90039 83.0076 9.18101 82.6918 8.55813C82.4286 8.0493 81.7355 7.90016 81.2706 8.2423Z" fill="currentColor"/>
<path d="M43.949 11.709C43.7823 11.8318 43.6244 12.0686 43.563 12.2617C43.4314 12.7003 43.5893 13.0337 44.2648 13.7794C45.2299 14.8584 46.73 16.8324 47.9407 18.6396C48.4758 19.4467 48.7741 19.7537 49.125 19.8678C49.2654 19.9117 49.3795 19.8502 49.5988 19.6046C50.055 19.1133 50.0111 18.9466 49.0461 17.5166C48.5811 16.8236 48.1249 16.1832 48.0372 16.0867C47.7565 15.7621 46.1335 13.2705 45.8703 12.7442C45.7211 12.4547 45.4229 12.0511 45.2035 11.8493C44.721 11.4019 44.3789 11.3668 43.949 11.709Z" fill="currentColor"/>
<path d="M79.4541 11.8039C79.0505 11.9355 78.8575 12.1285 78.2434 13.0497C77.8749 13.6024 77.2608 14.4534 76.8836 14.9359C76.1905 15.8483 75.322 16.9887 74.4535 18.1468C73.5148 19.4013 73.3481 19.8575 73.7078 20.2172C73.8657 20.3751 74.0148 20.4277 74.3043 20.4277C74.6553 20.4277 74.7342 20.3839 75.0325 20.0505C75.2255 19.8399 75.7343 19.182 76.1642 18.5854C76.6029 17.9889 77.0766 17.3572 77.217 17.173C77.3661 16.9975 77.6381 16.6466 77.8311 16.3922C78.0241 16.1378 78.568 15.471 79.0505 14.9096C80.0506 13.7252 80.3489 13.3041 80.5068 12.883C80.6033 12.611 80.5945 12.5409 80.4191 12.2426C80.1734 11.8215 79.8401 11.6723 79.4541 11.8039Z" fill="currentColor"/>
<path d="M33.6321 14.1849C33.4391 14.3954 33.4479 14.4305 33.6672 15.0007C34.2638 16.5097 34.5445 16.9132 35.1586 17.1852C35.6148 17.3782 35.6236 17.3782 36.2377 17.2291C36.5799 17.1413 37.0185 17.0711 37.2115 17.0624L37.5624 17.0536L37.5887 17.4922C37.6063 17.7291 37.5712 18.08 37.5186 18.2643C37.4659 18.4485 37.4221 18.9486 37.4133 19.3872C37.4045 20.1417 37.4221 20.1943 37.6677 20.5014C37.9572 20.8611 38.5187 21.1242 39.01 21.1242C39.2381 21.133 39.51 21.019 40.0188 20.6944C40.9926 20.0803 40.9751 20.0803 41.0716 21.0453C41.1856 22.3086 41.3523 22.7122 41.8875 22.9841C42.1331 23.1069 42.2472 23.1069 42.9753 23.0017C44.0719 22.835 44.1421 22.8613 44.4404 23.528C44.7299 24.1597 44.8878 24.3264 45.151 24.2474C45.3879 24.1772 45.5458 23.7824 45.616 23.1508C45.6599 22.7472 45.6423 22.6069 45.4756 22.3174C45.3703 22.1244 45.1422 21.8787 44.9756 21.7647C44.6861 21.5717 44.6071 21.5541 43.6158 21.5892L42.563 21.6155L42.5455 21.3085C42.3875 18.9837 41.6243 18.352 40.0013 19.2117C39.6241 19.4135 39.2819 19.6065 39.2381 19.6504C39.0801 19.7995 38.8345 19.7294 38.7906 19.5276C38.7643 19.4223 38.8082 18.9573 38.8871 18.5011C39.1152 17.1677 39.124 17.0448 38.9661 16.5799C38.6941 15.7464 37.8695 15.3604 36.9045 15.6061C36.6851 15.6587 36.4132 15.7289 36.2903 15.7464C36.1675 15.7728 35.9833 15.8342 35.878 15.8868C35.5973 16.0272 35.4569 15.8693 35.0621 15.0271C34.72 14.2814 34.6059 14.1673 34.0971 14.0708C33.8515 14.0269 33.755 14.0533 33.6321 14.1849Z" fill="currentColor"/>
<path d="M88.1479 16.4462C87.832 16.6304 87.6829 16.6655 87.4022 16.6216C86.1915 16.4462 85.9722 16.4549 85.5598 16.6918C84.9896 17.0252 84.7176 17.5779 84.7176 18.4025C84.7176 18.9114 84.5773 19.8062 84.4457 20.1483C84.3229 20.4729 84.1299 20.4729 83.6386 20.1571C82.8753 19.6658 82.2349 19.3763 81.9103 19.3763C81.226 19.3763 80.6733 20.1571 80.3136 21.6485C80.2171 22.0521 80.1645 22.1398 79.9188 22.2363C79.7609 22.3065 79.4363 22.3591 79.1907 22.3591C78.8134 22.3591 78.7082 22.403 78.4099 22.6662C78.2257 22.8416 77.98 23.1575 77.8835 23.3768C77.7256 23.7102 77.7081 23.8154 77.787 24.0962C77.9362 24.5962 78.173 24.9471 78.3836 24.9735C78.5415 24.9998 78.6117 24.9296 78.7433 24.6138C78.945 24.1576 79.2345 23.8505 79.489 23.8505C79.5855 23.8505 79.9452 23.7628 80.2785 23.6575C81.2523 23.3505 81.3927 23.1575 81.8664 21.4555C82.0243 20.859 82.1647 20.8239 82.735 21.2011C83.6561 21.824 84.2264 21.8854 85.0422 21.4731C85.6739 21.1485 85.8493 20.7361 85.9371 19.3676C85.9809 18.771 86.0424 18.2095 86.0774 18.1306C86.1739 17.9025 86.7617 17.7446 87.0512 17.8674C87.3495 18.0077 87.9198 17.999 88.2093 17.8498C88.5075 17.6919 88.9901 17.1041 89.069 16.7971C89.1041 16.6304 89.0778 16.5076 88.9725 16.3935C88.7707 16.1654 88.6216 16.1742 88.1479 16.4462Z" fill="currentColor"/>
<path d="M61.82 18.9834C61.1883 19.0887 59.925 19.4659 59.6092 19.6414C59.5215 19.694 59.4162 19.7291 59.3636 19.7291C59.3197 19.7291 59.0565 19.8344 58.7758 19.9572C57.6879 20.4572 56.6703 20.6327 55.8544 20.4748C55.5386 20.4134 55.214 20.3344 55.1262 20.2993C54.9771 20.2379 54.5911 20.3169 53.977 20.545C53.4506 20.738 52.082 22.3171 52.082 22.7294C52.082 22.7996 52.1961 22.9663 52.3364 23.0979C52.5821 23.3348 52.6084 23.3348 52.933 23.2295C53.1172 23.1681 53.5032 22.8874 53.7928 22.6066C54.5034 21.9311 54.7666 21.8346 55.5473 21.9399C55.8895 21.9925 56.5562 22.0101 57.0387 21.9837C57.9424 21.9399 57.9599 21.9399 60.3725 21.045C61.0743 20.7906 62.1709 20.5187 62.7412 20.4572C63.3114 20.4046 64.5396 20.5801 65.6099 20.8784C65.9608 20.9661 66.4697 21.1064 66.7328 21.1766C67.4347 21.3696 67.9084 21.3521 68.1892 21.1064L68.4172 20.9047L68.233 20.5274C68.0225 20.1239 67.8646 20.0361 66.5223 19.5361C64.7589 18.8869 63.4079 18.729 61.82 18.9834Z" fill="currentColor"/>
<path d="M70.4883 21.8566C70.3655 21.9707 70.2339 22.19 70.1988 22.3479C70.1198 22.7164 70.4444 23.2252 70.9708 23.5586C71.7955 24.0937 72.6903 24.8307 73.322 25.5062C73.6904 25.901 74.0501 26.2168 74.1291 26.2168C74.3308 26.2168 74.7081 25.7781 74.7695 25.4711C74.9099 24.6815 73.5588 23.2866 71.2515 21.8479C70.848 21.6022 70.7603 21.6022 70.4883 21.8566Z" fill="currentColor"/>
<path d="M62.4432 22.3654C62.0397 22.4005 61.5045 22.4795 61.2589 22.5409C60.4167 22.7339 59.285 23.0936 58.5744 23.3919C58.2147 23.541 57.7673 23.7253 57.2584 23.9534C56.9952 24.0762 56.539 24.2604 56.2495 24.3745C55.96 24.4885 55.6267 24.6464 55.5038 24.7254C55.381 24.8043 55.0301 24.9973 54.7143 25.164C54.0651 25.4974 53.0299 26.1466 52.7842 26.3747C52.6965 26.4536 52.407 26.6993 52.1526 26.9098C51.0296 27.8485 50.0208 29.2522 49.3979 30.7261C48.8627 31.9981 48.7311 32.4719 48.5644 33.8931C48.4592 34.7967 48.5118 36.7355 48.6609 37.4461C49.082 39.4376 49.6435 40.6921 50.2401 40.9992C50.512 41.1395 50.7138 41.0518 50.9331 40.6834C51.0911 40.4202 51.0911 40.4026 50.8805 39.7446C50.2839 37.9199 50.0646 36.6829 50.0646 35.1301C50.0646 34.0686 50.2752 32.621 50.5208 32.0245C51.0209 30.7875 51.249 30.3576 51.749 29.6821C52.8281 28.2433 54.609 26.8309 56.4689 25.9624C57.3111 25.5676 59.5131 24.664 59.9254 24.5324C61.4519 24.0674 61.8642 23.9972 63.0924 24.006C64.6277 24.006 65.4699 24.2078 66.8473 24.9096C69.7686 26.3835 71.8917 29.1557 72.5584 32.3578C72.8918 33.9633 72.69 35.6828 71.9005 37.9286C71.2513 39.7885 70.7249 40.6658 69.6546 41.6572C69.0931 42.1748 68.7685 42.3853 67.8211 42.8415C67.1982 43.1486 66.6279 43.4556 66.5753 43.5258C66.5139 43.596 66.4437 43.7714 66.4174 43.9206C66.3647 44.1574 66.3998 44.2101 66.6543 44.368C67.0315 44.5961 67.435 44.5961 68.1457 44.368C69.9792 43.7714 71.5583 42.4116 72.5848 40.5167C73.6989 38.455 74.2692 36.332 74.2955 34.2001C74.313 33.0421 74.2078 32.0157 74.0147 31.3928C73.9797 31.27 73.9007 30.998 73.8305 30.7787C73.7691 30.5594 73.6902 30.3488 73.6463 30.2962C73.6112 30.2523 73.5761 30.1558 73.5761 30.0769C73.5761 29.8839 72.7865 28.3574 72.3128 27.6292C71.7776 26.8221 70.7951 25.6553 70.2512 25.1903C68.9791 24.1025 67.2245 23.0936 66.0752 22.7953C65.9349 22.7515 65.5927 22.6637 65.3295 22.5935C65.0663 22.5146 64.5487 22.4356 64.1891 22.4005C63.8294 22.3742 63.4521 22.3391 63.3556 22.3216C63.2591 22.3128 62.8468 22.3304 62.4432 22.3654Z" fill="currentColor"/>
<path d="M28.9926 22.9487C28.7732 23.2031 28.6592 23.4751 28.6592 23.7558C28.6592 24.3173 29.5102 24.8875 30.019 24.6594C30.2997 24.5278 30.5892 24.0628 30.5892 23.7382C30.5892 23.4312 30.3787 23.0101 30.1594 22.8873C29.8698 22.7381 29.1417 22.782 28.9926 22.9487Z" fill="currentColor"/>
<path d="M93.1225 23.6326C92.8681 23.773 92.6488 24.2818 92.6926 24.6327C92.7277 24.9573 92.947 25.2293 93.2453 25.3345C93.6752 25.4837 93.9033 25.4486 94.2104 25.1766C94.456 24.9573 94.4823 24.8871 94.4735 24.4748C94.4648 23.9484 94.377 23.8081 93.9472 23.6238C93.5699 23.4747 93.4208 23.4747 93.1225 23.6326Z" fill="currentColor"/>
<path d="M50.2048 23.86C50.0732 23.9653 49.8802 24.2285 49.7662 24.4478C49.5205 24.9216 49.2486 25.1935 48.266 25.9305C46.8974 26.9744 46.7746 27.185 46.7746 28.5887C46.7658 29.7993 46.7132 29.9836 46.0991 31.0451C45.7306 31.6767 45.6867 31.9136 45.9236 32.1242C46.2307 32.4049 46.5991 32.4751 46.8974 32.3259C47.2045 32.1592 47.7922 31.4048 47.9502 30.9574C48.0116 30.7907 48.0993 30.5713 48.1344 30.4748C48.3186 30.0274 48.4151 29.1764 48.3625 28.5887L48.3011 27.9658L48.6169 27.6587C48.7924 27.5008 49.2222 27.1499 49.5644 26.8867C50.3978 26.2551 50.7926 25.834 51.0646 25.29C51.4242 24.5707 51.3541 24.0267 50.8803 23.7811C50.6084 23.6319 50.468 23.6495 50.2048 23.86Z" fill="currentColor"/>
<path d="M33.2906 24.3335C33.0186 24.4826 32.7817 24.9125 32.7817 25.2547C32.7817 25.5354 33.2204 25.9653 33.659 26.1232C33.8257 26.1846 34.203 26.3513 34.4925 26.4829C35.0715 26.7548 35.2733 26.8075 36.1155 26.9215C37.2998 27.0794 37.7121 27.2724 38.6157 28.062C39.6773 28.9919 40.1335 29.2551 40.8792 29.3604C41.467 29.4481 41.5898 29.4394 42.046 29.2814C42.9408 28.9832 43.1163 28.7024 42.7303 28.2462C42.5109 27.9831 42.4846 27.9743 41.7389 27.9743C41.0371 27.9743 40.9406 27.9567 40.5458 27.7023C40.3089 27.5532 39.7825 27.1058 39.3614 26.7022C38.3526 25.7372 38.1683 25.6494 36.6945 25.4828C35.7119 25.3775 35.4312 25.3161 35.1855 25.1494C35.0188 25.0353 34.8872 24.9213 34.8872 24.8862C34.8872 24.8511 34.7469 24.6844 34.5802 24.509C34.317 24.2545 34.203 24.2019 33.8959 24.2019C33.6941 24.2107 33.4222 24.2633 33.2906 24.3335Z" fill="currentColor"/>
<path d="M88.9465 25.6158L88.0429 26.0808L86.841 26.1334C85.4461 26.2036 84.9723 26.3615 84.2354 27.0283C83.9985 27.2476 83.4634 27.6687 83.0686 27.9582C82.3931 28.4583 82.2966 28.5021 81.8843 28.5021C81.2526 28.5021 80.8578 28.7215 80.7087 29.1426C80.6297 29.397 80.621 29.5286 80.6911 29.6689C80.9543 30.1865 81.4544 30.2918 82.2615 29.9848C83.4108 29.5637 83.9547 29.2303 84.8495 28.4232C85.6391 27.7038 85.8672 27.6336 87.2621 27.6248C88.3499 27.6161 88.4815 27.5985 88.8851 27.3967C89.1307 27.2739 89.4992 27.116 89.7185 27.0458C89.9378 26.9669 90.2449 26.7826 90.4028 26.6335C90.9116 26.1422 90.7362 25.379 90.0694 25.2123C89.9027 25.1772 89.6132 25.2825 88.9465 25.6158Z" fill="currentColor"/>
<path d="M60.8991 25.8254C60.1359 25.9482 59.8113 26.036 59.1445 26.2641C58.5304 26.4746 57.2847 27.08 56.846 27.3782C56.6443 27.5098 56.46 27.6239 56.4249 27.6239C56.3986 27.6239 56.1091 27.7993 55.7933 28.0187C53.8369 29.3609 52.7666 30.6769 52.0823 32.5806C51.67 33.7211 51.6261 34.0369 51.6086 35.4318C51.5998 36.9056 51.67 37.2917 52.1701 38.6866C52.5473 39.713 52.8105 40.2218 53.3369 40.9149C54.1177 41.9413 55.6441 42.959 56.6267 43.1169C56.9338 43.1695 56.9952 43.1432 57.1268 42.9502C57.2408 42.766 57.2496 42.6695 57.1706 42.3712C57.118 42.1694 57.039 42.0115 56.9864 42.0115C56.8724 42.0115 56.2758 41.529 55.4336 40.7394C54.144 39.5288 53.407 37.9759 53.2228 36.0898C53.021 33.9228 53.6615 32.2472 55.3546 30.4575C55.6968 30.1066 56.2319 29.6241 56.5478 29.4048C57.3987 28.7994 58.934 28.045 59.978 27.7028C60.8553 27.4221 60.9605 27.4046 62.1712 27.4046C63.3029 27.4133 63.5222 27.4396 64.1627 27.6414C65.6365 28.1152 66.9612 29.0539 68.0315 30.3698C68.4088 30.8348 69.0141 32.0191 69.1808 32.6245C69.2422 32.8438 69.3299 33.107 69.3738 33.221C69.4791 33.4754 69.4791 35.0633 69.3738 35.3967C69.3299 35.5371 69.251 35.8617 69.1896 36.1161C68.9527 37.1601 68.207 38.2918 67.2858 39.0287C65.9787 40.0727 64.4434 40.6166 62.8292 40.6166C61.4255 40.6166 60.3113 40.2657 59.0568 39.4323C57.1005 38.1339 56.1793 35.9055 56.8197 33.993C57.2584 32.6595 58.8375 31.2208 60.285 30.8085C61.4869 30.4663 61.7062 30.4488 62.6537 30.6418C63.6889 30.8435 64.2065 31.098 64.8645 31.6945C65.4786 32.256 65.7944 32.721 66.0225 33.414C66.5401 34.9756 65.9085 36.3091 64.2767 37.1425C63.6187 37.4759 62.9608 37.5812 62.373 37.4583C60.8553 37.125 60.0131 36.081 60.3289 34.9405C60.4605 34.4843 60.7237 34.1948 61.2588 33.9404C61.6097 33.7825 61.6975 33.7737 61.9782 33.8614C62.1624 33.9228 62.3905 34.0193 62.487 34.0895C62.7853 34.2738 63.1362 34.8703 63.1362 35.1686C63.1362 35.5107 63.4257 35.809 63.6889 35.7301C64.2767 35.5546 64.4522 35.2651 64.4522 34.4404C64.4522 33.1771 63.3292 32.2823 61.7326 32.2735C60.7325 32.2735 59.3902 33.0543 59.0042 33.8614C58.9252 34.0281 58.8112 34.2738 58.741 34.4141C58.662 34.5808 58.6182 34.9668 58.6269 35.5107C58.6269 36.2915 58.6533 36.388 58.9252 36.9056C60.0043 38.9322 62.9081 39.6603 65.1891 38.4848C66.3471 37.8794 67.0402 37.1513 67.4964 36.0196C67.7947 35.2827 67.8824 34.6685 67.7859 33.8614C67.5139 31.4489 65.7418 29.6329 63.1626 29.1153C62.68 29.0188 62.0308 28.9398 61.7326 28.9398C60.5921 28.9398 58.8375 29.5188 57.7672 30.247C57.5566 30.3874 57.1443 30.7558 56.8548 31.0629C56.2933 31.6331 55.416 32.8701 55.416 33.0806C55.416 33.1508 55.381 33.2386 55.3459 33.2824C55.0564 33.6158 54.8897 35.037 55.03 36.0634C55.2143 37.4671 55.6091 38.362 56.4951 39.3358C57.89 40.8886 59.3025 41.7308 61.1185 42.108C61.8817 42.2747 63.9872 42.2484 64.6276 42.0729C65.4084 41.8624 65.9524 41.6694 66.5401 41.3886C66.8472 41.2483 67.1104 41.1342 67.1279 41.1342C67.242 41.1342 68.1544 40.5289 68.5667 40.178C69.6896 39.2305 70.602 37.5812 70.9529 35.8704C71.2161 34.6071 70.988 32.6069 70.4529 31.3085C69.6721 29.4399 68.0842 27.6677 66.3822 26.7729C64.5487 25.8079 62.8467 25.5184 60.8991 25.8254Z" fill="currentColor"/>
<path d="M76.2523 29.2894C75.8049 29.4648 75.6821 30.0351 75.9541 30.7106C76.0506 30.965 76.2173 31.3686 76.3138 31.6142C76.5331 32.1669 76.5769 33.6232 76.3839 34.1583C76.2085 34.6496 76.2348 36.1059 76.419 36.4656C76.7612 37.1324 77.5595 37.0885 78.0596 36.3779C78.2789 36.0709 78.235 35.7726 77.9192 35.5006C77.6472 35.2637 77.6297 34.8251 77.8753 34.0268C78.1912 33.0003 78.1034 31.9212 77.6122 30.7369C77.5771 30.6404 77.4893 30.386 77.4279 30.1667C77.2963 29.728 76.8401 29.2016 76.5945 29.2104C76.498 29.2104 76.3489 29.2455 76.2523 29.2894Z" fill="currentColor"/>
<path d="M31.5881 32.7891C31.3951 32.9031 31.1933 33.2014 30.9038 33.7716C30.6757 34.2278 30.4037 34.6752 30.3072 34.7717L30.1318 34.9472L29.9475 34.6928C29.0351 33.4733 28.7193 33.2365 27.9824 33.2365C27.4034 33.2365 27.1665 33.4295 27.1665 33.9032V34.2805L27.7017 34.3945C28.2719 34.5086 28.4824 34.684 28.9211 35.4297C29.272 36.0263 29.6492 36.2631 30.2283 36.2631C31.0091 36.2631 31.2021 36.0789 31.7811 34.7717C31.9828 34.3156 32.1583 34.1138 32.3513 34.1138C32.5092 34.1138 32.9566 34.6226 32.9566 34.8068C32.9566 34.8595 32.9917 34.9735 33.0356 35.0613C33.0795 35.1402 33.2023 35.3859 33.2988 35.6052C33.5532 36.1316 34.0094 36.4912 34.5007 36.5527C35.2727 36.6404 35.6412 36.3772 36.2377 35.342C36.457 34.9647 36.6764 34.6314 36.7202 34.6051C36.8694 34.5086 37.0799 34.6577 37.2291 34.9384C37.4923 35.456 38.0011 36.035 38.273 36.1316C38.6941 36.2807 39.2381 36.1491 39.6504 35.807C40.0013 35.5087 40.0276 35.4999 40.5891 35.5438C40.9049 35.5701 41.2383 35.6052 41.3348 35.6227C41.4401 35.6403 41.519 35.5964 41.5366 35.4911C41.6419 34.956 40.8698 34.2892 40.1417 34.2892C39.7294 34.2892 39.3083 34.4296 38.9486 34.6928C38.7643 34.8244 38.7468 34.8156 38.5275 34.4471C38.0099 33.6225 37.8256 33.3944 37.4747 33.1838C36.6588 32.7101 36.0096 33.0435 35.2464 34.3156C35.0271 34.6665 34.6849 34.9472 34.5533 34.8682C34.5095 34.8419 34.2901 34.5086 34.062 34.1225C33.6146 33.3593 33.2549 32.9645 32.8251 32.754C32.439 32.5785 31.9214 32.5873 31.5881 32.7891Z" fill="currentColor"/>
<path d="M91.7805 33.1323C91.3945 33.3429 91.298 33.4569 90.9471 34.1236C90.1751 35.5887 89.9821 35.6501 89.4733 34.6237C89.0434 33.7464 88.7012 33.3341 88.2538 33.1323C87.5432 32.8165 87.0256 33.0972 86.2887 34.1763C85.6482 35.1238 85.5868 35.1325 84.7534 34.3693C84.5516 34.1938 84.2534 33.9745 84.0954 33.8868C83.6656 33.6674 82.9199 33.685 82.4724 33.9219C82.0864 34.1236 81.5601 34.7465 81.5601 35.0097C81.5601 35.2115 81.8759 35.3694 82.1654 35.3168C83.648 35.036 83.7094 35.0448 83.9902 35.4659C84.2884 35.9221 85.1131 36.4222 85.6307 36.466C86.2273 36.5099 86.5431 36.2906 87.1747 35.3869C87.7888 34.5009 87.9555 34.457 88.2714 35.0711C88.3942 35.3168 88.4907 35.5536 88.4907 35.6063C88.4907 35.6589 88.6223 35.9045 88.7802 36.1414C89.1662 36.738 89.6312 36.9661 90.2979 36.8783C90.9647 36.7994 91.2366 36.5274 91.8244 35.3782C92.0876 34.8606 92.3683 34.3956 92.4561 34.343C92.5701 34.2728 92.7017 34.3517 93.0877 34.7027C93.579 35.1501 94.0615 35.3431 94.7019 35.3431C94.9914 35.3431 95.4564 35.0711 95.6231 34.7992C95.8161 34.5009 95.8775 33.9394 95.7284 33.9394C95.6582 33.9394 95.5792 33.9745 95.5529 34.0271C95.5266 34.071 95.2809 34.1149 95.009 34.1149C94.5001 34.1149 94.2282 33.9833 93.7194 33.4832C93.3684 33.1323 92.8596 32.8867 92.5087 32.8867C92.3508 32.8867 92.0262 33.0007 91.7805 33.1323Z" fill="currentColor"/>
<path d="M45.1512 35.7415C44.967 35.9345 44.9582 36.0135 44.9933 36.5925C45.0196 36.9873 45.1425 37.5224 45.3091 37.9786C45.4495 38.3909 45.7127 39.1103 45.8794 39.584C46.0987 40.1981 46.204 40.6631 46.2479 41.207C46.3093 42.1633 46.4233 42.6195 46.7479 43.295C47.0111 43.8477 47.2041 44.0144 47.8708 44.2425C48.3972 44.4267 48.4586 44.4179 48.7043 44.1635C48.8534 44.0144 48.9236 43.8565 48.9236 43.6371C48.9236 43.2336 48.8183 43.0406 48.4148 42.6721C48.0288 42.33 47.8708 41.8387 47.8708 40.9789C47.8708 40.6543 47.8094 40.2332 47.7393 40.0402C47.6691 39.8472 47.4497 39.2331 47.2567 38.6804C47.055 38.1277 46.7742 37.2855 46.6426 36.803C46.3005 35.645 46.2128 35.5222 45.739 35.5222C45.4495 35.5222 45.3091 35.5748 45.1512 35.7415Z" fill="currentColor"/>
<path d="M76.2865 39.0761C76.0321 39.2077 75.8566 39.6024 75.8566 40.006C75.8566 40.6376 75.2688 41.7255 74.4968 42.5414C74.2863 42.7607 73.8827 43.2959 73.5844 43.7345C72.8124 44.8925 72.1544 45.454 71.0315 45.8926C70.6104 46.0593 70.5578 46.1032 70.3384 46.5155L70.1104 46.9191L70.2858 47.2524C70.435 47.542 70.5051 47.5858 70.8034 47.6121C71.1807 47.6472 71.7948 47.384 72.637 46.8226C72.9177 46.6383 73.1897 46.4892 73.2335 46.4892C73.4178 46.4892 74.6196 45.1469 75.0671 44.4451C75.3303 44.024 75.8391 43.3134 76.19 42.866C77.1901 41.5851 77.5059 40.7956 77.3831 39.8393C77.2866 39.0585 76.8567 38.7602 76.2865 39.0761Z" fill="currentColor"/>
<path d="M41.4668 41.1318C41.344 41.2283 41.0369 41.3863 40.7737 41.4915C40.3 41.6933 40.3 41.6933 39.5894 41.5354C38.405 41.2722 38.019 41.2196 37.6944 41.2722C37.3874 41.3248 36.8259 41.6758 35.9398 42.3425C35.6767 42.5443 35.2205 42.7724 34.8695 42.8864C34.2642 43.0794 34.0888 43.0794 33.0799 42.9215C32.7553 42.8777 32.7026 42.8952 32.5272 43.1058C32.1324 43.6146 32.3517 44.0971 33.0886 44.3691C33.6677 44.5884 34.1238 44.5972 34.8432 44.4129C35.1327 44.334 35.4661 44.255 35.5889 44.2287C35.9048 44.1497 36.5978 43.755 37.2382 43.2724C37.7822 42.8689 37.8173 42.8601 38.3875 42.8689C38.7033 42.8777 39.1069 42.9215 39.2736 42.9742C39.721 43.1058 40.6334 43.0794 41.0983 42.9303C41.7475 42.711 42.3178 42.2548 42.4406 41.8425C42.5722 41.395 42.5108 41.2547 42.116 41.088C41.7212 40.9213 41.73 40.9213 41.4668 41.1318Z" fill="currentColor"/>
<path d="M81.0331 41.071C80.8576 41.1587 80.805 41.2552 80.7874 41.5447C80.7348 42.2027 81.1208 42.6589 82.0595 43.0449C82.6648 43.2993 82.9105 43.2905 83.7176 42.9659C84.4896 42.6589 84.4107 42.615 85.0423 43.5362C85.709 44.5012 86.4284 44.7468 87.5163 44.3871C88.1655 44.1766 88.5515 44.159 88.7884 44.3345C88.9726 44.4749 89.1919 44.8609 89.1919 45.0714C89.2007 45.282 89.4726 45.589 89.7183 45.6504C90.078 45.7382 90.3324 45.396 90.3412 44.8082C90.3587 43.9309 89.8586 43.194 89.0428 42.887L88.5603 42.7027L87.8496 42.9308C87.4636 43.0536 86.9987 43.1501 86.8144 43.1501C86.4635 43.1501 86.4284 43.1063 85.8319 42.1851C85.7266 42.0184 85.4371 41.7465 85.2002 41.5886C84.8054 41.3254 84.7353 41.2991 84.3229 41.3605C84.0861 41.3868 83.7439 41.4657 83.5772 41.5271C82.9193 41.764 82.5332 41.8517 82.4016 41.8079C82.3227 41.7728 82.1736 41.6149 82.0771 41.4482C81.9805 41.2727 81.7875 41.106 81.6296 41.0534C81.2963 40.9394 81.305 40.9306 81.0331 41.071Z" fill="currentColor"/>
<path d="M51.9942 42.9917C51.7836 43.3426 51.7748 43.4742 51.9591 43.8339C52.0644 44.0532 52.1959 44.141 52.5907 44.2638C52.8627 44.3427 53.2575 44.527 53.4593 44.6586C53.9769 45.0095 54.2751 44.9569 54.5208 44.4919C54.7401 44.0883 54.2488 43.5269 53.2136 42.9917C52.4855 42.6233 52.2223 42.6233 51.9942 42.9917Z" fill="currentColor"/>
<path d="M28.7287 44.1712C28.2637 44.4168 28.176 44.9432 28.5093 45.4345C28.8603 45.9609 29.606 45.996 30.0095 45.5135C30.3429 45.1187 30.299 44.7063 29.8604 44.2238C29.6498 43.9957 29.0971 43.9606 28.7287 44.1712Z" fill="currentColor"/>
<path d="M93.0603 44.6905C92.6128 45.1993 92.7269 45.8748 93.2883 46.1029C93.9726 46.3924 94.6745 45.866 94.6131 45.1116C94.578 44.6992 94.1656 44.3834 93.6656 44.3834C93.3936 44.3834 93.2796 44.4448 93.0603 44.6905Z" fill="currentColor"/>
<path d="M49.8098 45.6084C49.3975 45.7049 49.2571 45.8804 49.2045 46.3892C49.1694 46.8103 49.1782 46.8366 49.4589 47.0033C50.1256 47.4068 50.9328 47.0735 50.9591 46.3804C50.9678 46.0207 50.8538 45.8365 50.4941 45.6435C50.2221 45.5119 50.2309 45.5119 49.8098 45.6084Z" fill="currentColor"/>
<path d="M61.1622 45.8715C61.0218 45.9154 60.6446 46.0119 60.3287 46.0909C59.5655 46.2839 58.4777 46.819 57.7846 47.3542C57.0564 47.9069 55.4773 49.5298 54.1438 51.0914C53.5736 51.7669 52.5647 52.8548 51.9155 53.5128C50.3978 55.0305 49.4503 55.6709 47.4764 56.5307C46.3359 57.0219 44.9322 57.7852 44.3357 58.2326C43.9584 58.5133 43.0373 59.3468 42.274 60.0925C39.9141 62.4085 37.9314 64.2245 36.1242 65.7247C35.6154 66.1546 34.9486 66.7073 34.6591 66.9529C34.3608 67.2073 33.9134 67.567 33.659 67.76C33.4046 67.953 33.0098 68.2689 32.7905 68.4619C32.5624 68.6549 32.0448 69.0496 31.65 69.3392C30.5797 70.1024 30.0533 70.4884 28.9216 71.3306C28.0619 71.9623 26.5266 73.0677 25.8862 73.5063C25.7809 73.5765 24.693 74.331 23.4736 75.1732C22.2454 76.0154 21.0961 76.8049 20.9031 76.9277C20.4382 77.226 17.236 79.3052 16.85 79.5596C16.6658 79.6824 15.9289 80.1386 15.4113 80.4369C15.2885 80.5071 15.0516 80.6562 14.8849 80.7527C14.1743 81.1826 12.1477 82.1652 11.4371 82.4196C11.2617 82.481 10.9634 82.6038 10.7792 82.6828C10.6037 82.7618 10.3756 82.8583 10.2791 82.8933C10.1826 82.9284 9.6299 83.1478 9.05089 83.3759C7.82268 83.8671 7.51562 84.0952 7.51562 84.5602C7.51562 85.2094 8.07709 85.4112 9.1123 85.1392C9.68254 84.9813 11.1915 84.4812 11.3933 84.376C11.481 84.3321 11.6301 84.297 11.7179 84.297C11.8144 84.297 11.9196 84.2532 11.946 84.2093C11.9723 84.1567 12.06 84.1216 12.1302 84.1216C12.2969 84.1216 13.8321 83.4373 14.9989 82.8407C16.7974 81.9283 22.3945 78.4279 23.9298 77.2523C24.1404 77.0944 24.3772 76.9365 24.4474 76.9014C24.5176 76.8663 24.9913 76.5417 25.5002 76.182C26.009 75.8224 26.7547 75.2872 27.167 75.0065C29.834 73.1378 30.4218 72.7167 32.7378 71.006C33.7204 70.2779 35.6943 68.725 36.7997 67.8039C37.0629 67.5846 37.4489 67.2687 37.6595 67.1021C38.0542 66.7775 38.7824 66.137 40.3703 64.6895C40.9054 64.2158 42.2477 62.9261 43.3531 61.8383C45.055 60.1539 46.3622 59.0309 46.5903 59.0309C46.6166 59.0309 46.8096 58.9608 47.0202 58.8643C47.222 58.7765 47.6694 58.5923 48.0028 58.4607C48.9941 58.0659 50.2749 57.4079 51.0645 56.8991C52.3805 56.0394 54.293 54.0918 56.9687 50.8897C58.3197 49.2754 59.3988 48.4508 60.6884 48.0297C62.1447 47.5559 63.215 47.8191 64.4783 48.9596C64.8293 49.2754 65.5486 50.1264 66.2329 51.0388C70.2159 56.3464 72.3652 58.294 75.5059 59.417C75.8656 59.5485 76.2341 59.6889 76.313 59.7416C76.4008 59.7854 76.5061 59.8205 76.5587 59.8205C76.7429 59.8205 77.9887 60.4434 78.5151 60.7943C79.4801 61.4523 79.9626 61.8997 83.6472 65.5843C87.3055 69.2426 88.1653 70.0322 89.3672 70.8481C90.0076 71.2867 92.4903 72.7167 92.6044 72.7167C92.7097 72.7167 94.7538 73.7783 95.5521 74.252C96.6575 74.9012 97.4822 75.4627 99.4122 76.8839C100.763 77.8752 101.29 78.2612 101.465 78.3753C101.535 78.4191 101.877 78.6472 102.22 78.8666C103.141 79.4631 104.983 80.5247 105.106 80.5247C105.158 80.5247 105.246 80.5597 105.299 80.6036C105.343 80.6387 105.746 80.8229 106.194 80.9984C106.641 81.1739 107.194 81.4019 107.422 81.4984C107.825 81.6827 108.036 81.7704 108.431 81.9196C108.536 81.9546 108.72 82.0336 108.843 82.0862C108.966 82.1389 109.44 82.3231 109.896 82.4986C110.352 82.674 110.826 82.8583 110.949 82.9109C111.37 83.0864 111.528 83.1478 112.089 83.3408C112.405 83.446 112.835 83.6127 113.054 83.7005C113.273 83.797 113.624 83.9286 113.844 83.9987C114.063 84.0689 114.326 84.1654 114.44 84.2181C115.8 84.7883 118.458 85.4375 119.467 85.4375C119.792 85.4375 120.248 85.0252 120.248 84.7269C120.248 84.4462 119.73 84.0075 119.23 83.8671C118.993 83.797 118.502 83.6478 118.142 83.5338C117.783 83.4197 117.327 83.2881 117.134 83.2355C116.941 83.1829 116.704 83.1039 116.607 83.0688C116.511 83.0337 116.291 82.9548 116.125 82.8933C115.958 82.8319 115.739 82.753 115.642 82.7179C115.546 82.674 114.993 82.4547 114.414 82.2354C113.08 81.709 112.958 81.6651 112.773 81.5686C112.686 81.5248 112.58 81.4897 112.528 81.4897C112.484 81.4897 112.221 81.3844 111.94 81.2616C111.659 81.1388 111.335 80.9896 111.212 80.9458C111.089 80.8931 110.922 80.8229 110.843 80.7791C110.756 80.7352 110.633 80.7001 110.571 80.7001C110.51 80.7001 110.291 80.6212 110.089 80.5247C109.896 80.4282 109.694 80.3492 109.65 80.3492C109.615 80.3492 109.369 80.2527 109.124 80.1299C108.869 80.007 108.633 79.9105 108.58 79.9105C108.492 79.9105 108.15 79.7614 107.22 79.3403C106.983 79.2263 106.518 79.0157 106.202 78.8753C105.448 78.5244 103.562 77.4015 102.535 76.6733C102.088 76.3575 101.632 76.0329 101.526 75.9627C101.43 75.8925 100.947 75.5328 100.465 75.1732C99.6842 74.5854 97.4997 73.094 97.0435 72.8396C96.947 72.7869 96.6049 72.5764 96.289 72.3834C95.9644 72.1816 94.8941 71.6201 93.9203 71.1288C90.3848 69.3567 89.6128 68.7338 84.5421 63.6367C81.1996 60.2679 80.3047 59.4959 78.8835 58.7239C78.4975 58.5221 77.8834 58.2414 77.5237 58.1186C77.164 57.987 76.7956 57.8466 76.7166 57.794C76.6289 57.7501 76.5236 57.715 76.471 57.715C76.3043 57.715 74.9181 57.0395 74.3918 56.6973C73.0232 55.82 70.637 53.4952 69.321 51.7406C69.1192 51.4774 68.1367 50.1878 67.391 49.214C65.8557 47.1962 64.8994 46.4681 63.2238 46.0382C62.443 45.8364 61.5219 45.7575 61.1622 45.8715Z" fill="currentColor"/>
<path d="M44.4938 46.5749C44.3973 46.61 44.1605 46.8117 43.9675 47.0135L43.6253 47.3908L42.941 47.3293C42.4848 47.2943 42.1866 47.303 42.055 47.3732C41.5286 47.6452 41.204 48.1716 41.204 48.7769C41.204 49.1629 41.0461 49.5577 40.8969 49.5577C40.8355 49.5577 40.7215 49.4787 40.6337 49.3822C40.546 49.2857 40.4407 49.2068 40.3969 49.2068C40.353 49.2068 40.1425 49.0839 39.9319 48.9436C39.7214 48.7944 39.4933 48.6804 39.4143 48.6804C39.3441 48.6804 39.2564 48.6365 39.2301 48.5927C39.1511 48.4611 38.4581 48.4874 38.1071 48.6365C37.9405 48.7067 37.7036 48.8909 37.5895 49.0488C37.3965 49.3296 37.3878 49.3998 37.4053 50.7508C37.4141 52.0931 37.4053 52.172 37.2211 52.4089L37.0281 52.6545L36.2385 52.3212C35.7735 52.1194 35.2647 51.9702 34.9752 51.9527C34.5453 51.9176 34.4488 51.9439 34.1154 52.1896C33.668 52.5142 33.5803 52.7159 33.4838 53.6371C33.4399 54.0231 33.3785 54.4968 33.3522 54.6898C33.282 55.1022 33.4136 55.3127 33.7645 55.3917C33.9575 55.4443 34.054 55.4005 34.2646 55.1987C34.4664 54.9881 34.5365 54.8127 34.6243 54.2687C34.7822 53.2862 34.8085 53.2774 36.0279 53.681C37.1684 54.067 37.6948 54.1108 38.1071 53.8564C38.6335 53.5406 38.7037 53.2862 38.7037 51.6632V50.2156L39.0195 50.2332C39.309 50.2507 39.7038 50.4262 40.4583 50.8912C40.8267 51.1105 41.669 51.1105 41.9936 50.8736C42.3532 50.6192 42.5199 50.1893 42.5199 49.5314C42.5199 48.6628 42.5024 48.6804 43.3972 48.6804H44.1605L44.5728 48.3207C44.9939 47.9435 45.3273 47.4171 45.3273 47.11C45.3273 46.8293 45.2308 46.6626 45.0641 46.6626C44.9676 46.6626 44.8711 46.6187 44.8448 46.5749C44.7833 46.4696 44.7307 46.4696 44.4938 46.5749Z" fill="currentColor"/>
<path d="M77.8486 47.1693C77.4889 47.564 77.7697 48.7747 78.3136 49.2397C78.9365 49.7573 79.5155 49.8362 80.4191 49.5204C80.6384 49.4415 80.9016 49.38 81.0157 49.38C81.2087 49.38 81.2087 49.4064 81.1999 50.1872C81.1911 51.1083 81.2525 51.4241 81.4894 51.7751C81.8929 52.3453 82.6562 52.3979 83.9634 51.9417C84.9196 51.5996 85.2705 51.7049 84.9898 52.2576C84.7529 52.7225 84.5073 53.8718 84.5775 54.2139C84.6476 54.6087 84.9196 55.0386 85.2179 55.2316C85.5337 55.4421 86.5251 55.4421 87.1479 55.2404C87.5252 55.1088 87.6743 55.1 88.0691 55.179C88.7797 55.3281 88.8499 55.3193 89.0429 55.0649C89.2008 54.8544 89.2096 54.793 89.1131 54.6087C88.9113 54.2403 88.3411 54.0209 87.648 54.0297C87.3146 54.0385 86.8935 54.0823 86.7181 54.1262C86.0075 54.3104 85.8671 53.8893 86.218 52.6348C86.5075 51.5996 86.3233 50.7925 85.7004 50.3802C85.3407 50.1433 84.6301 50.1959 83.8405 50.5205C83.4808 50.6697 83.0422 50.8013 82.8755 50.81L82.5685 50.8276V49.7573C82.5685 48.5729 82.4895 48.3624 81.9105 48.029C81.6122 47.8536 81.2788 47.8711 80.0155 48.1694C79.3751 48.3097 79.1382 48.222 78.9277 47.7658C78.7435 47.3535 78.3838 47.0114 78.1381 47.0114C78.0592 47.0114 77.9276 47.0815 77.8486 47.1693Z" fill="currentColor"/>
<path d="M55.2132 60.8223C54.8448 61.1732 54.4587 61.6558 54.3271 61.9102C54.2043 62.1558 54.064 62.3751 54.0113 62.4102C53.9236 62.4629 52.6691 64.9368 52.4322 65.5246C51.8707 66.9195 50.7215 68.1828 48.8353 69.4724C47.4053 70.4375 46.9666 70.9024 45.1243 73.315C44.3435 74.3502 43.6417 75.2801 43.5715 75.3854C43.5013 75.4907 43.2908 75.7626 43.1066 75.9907C42.7469 76.4206 42.703 76.7013 42.975 76.868C43.089 76.9382 43.2732 76.8856 43.7996 76.6312C44.6067 76.2276 45.5103 75.403 46.6684 73.9905C47.9843 72.3851 49.0809 71.3411 50.1512 70.648C52.1339 69.3759 53.4323 67.7529 54.2745 65.4808C54.5728 64.6736 54.6342 64.5157 54.9588 63.7262C55.0553 63.4805 55.2483 62.9892 55.3799 62.6295C55.5115 62.2699 55.687 61.8137 55.7659 61.6207C55.915 61.2961 56.1168 60.5504 56.1168 60.3661C56.1168 60.3135 56.0554 60.2609 55.994 60.2345C55.9063 60.1994 55.6168 60.4188 55.2132 60.8223Z" fill="currentColor"/>
<path d="M63.8301 60.2723C63.6547 60.3776 63.6897 61.3426 63.8827 61.8953C63.9705 62.1321 64.067 62.4655 64.1021 62.6322C64.1986 63.0621 64.4881 63.9745 64.7425 64.6588C65.3654 66.3168 66.0233 67.3871 66.8919 68.1328C68.3657 69.3874 68.7868 69.8787 69.7869 71.449C70.3133 72.2737 70.4361 72.4754 70.945 73.3791C71.2959 74.0195 72.2521 75.3881 72.5855 75.7565C73.0856 76.2829 73.3488 76.4408 73.5681 76.318C74.0067 76.0899 73.8664 75.5898 72.7171 73.2475C71.9977 71.7736 71.4713 70.8174 71.1467 70.3875C71.0327 70.2383 70.945 70.0892 70.945 70.0453C70.945 69.9401 70.1554 68.861 69.6466 68.2732C69.3922 67.9749 68.7693 67.3696 68.2692 66.9397C67.1726 65.9747 66.6375 65.2027 66.0672 63.7727C65.804 63.1147 64.8653 61.3075 64.5144 60.7723C64.1635 60.246 64.0231 60.1495 63.8301 60.2723Z" fill="currentColor"/>
<path d="M73.1017 64.6977C72.9 64.8907 72.9263 65.3644 73.1631 65.7066C73.2684 65.8733 73.6808 66.2242 74.0668 66.4874C75.9354 67.7595 76.4091 68.3034 78.0848 71.1107C79.1638 72.9179 80.1727 74.1374 80.9623 74.576C81.4711 74.8568 82.1466 74.9708 82.3747 74.7954C82.5327 74.6813 82.5327 74.6725 82.3484 74.3304C82.2431 74.1462 82.0501 73.8654 81.9185 73.7251C81.6378 73.418 80.5236 71.8564 80.2605 71.4002C80.164 71.2335 79.8657 70.7247 79.5937 70.2773C79.1112 69.4877 78.8217 68.9964 78.6287 68.6367C78.5234 68.4437 77.4531 67.0401 77.0847 66.6277C76.7601 66.2593 75.4266 65.2943 74.8388 65.0048C73.9439 64.5573 73.3386 64.4521 73.1017 64.6977Z" fill="currentColor"/>
<path d="M59.7146 79.2669C59.5918 79.2756 59.0654 79.3283 58.5302 79.3809C56.6616 79.5476 56.0914 79.7055 51.2048 81.3811C50.7925 81.5215 50.2837 81.6882 50.0643 81.7496C49.845 81.8023 49.5994 81.89 49.5204 81.9338C49.4327 81.9777 49.2835 82.0128 49.1958 82.0128C49.0993 82.0128 48.9326 82.0479 48.8186 82.0918C48.5554 82.1883 47.5377 82.4251 46.8271 82.548C46.5201 82.6006 45.5726 82.6357 44.7216 82.6357C43.2127 82.6357 42.2915 82.5304 40.1948 82.1444C39.4052 81.9953 36.6417 81.9602 36.1241 82.0918C35.9487 82.1356 35.589 82.2234 35.3258 82.2848C34.8433 82.39 33.6765 82.741 33.3519 82.8813C33.2554 82.9252 32.9045 83.0392 32.5623 83.1357C31.957 83.3112 30.5709 83.7235 30.1498 83.8551C30.0269 83.8902 29.755 83.9692 29.5357 84.0306C29.3163 84.092 29.0268 84.1797 28.8777 84.2148C27.6582 84.5657 26.4388 85.0482 26.2546 85.25C26.1142 85.4079 26.1142 85.4255 26.2897 85.5922C26.3949 85.6887 26.5967 85.7939 26.7459 85.8203C27.36 85.9431 29.3427 85.8203 30.2375 85.6097C30.4568 85.5571 30.799 85.4957 31.0095 85.4606C31.2113 85.4342 31.4043 85.3728 31.4306 85.3377C31.4569 85.2939 31.5622 85.2588 31.6587 85.2588C31.764 85.2588 31.9658 85.2237 32.1149 85.1711C32.264 85.1272 32.8606 84.9517 33.4396 84.7763C34.0186 84.6008 34.5713 84.4254 34.6678 84.3815C34.7643 84.3376 34.9661 84.285 35.1065 84.2499C35.2556 84.2236 35.5451 84.1534 35.7644 84.1008C36.3084 83.9604 39.0806 83.9692 39.9316 84.1008C42.081 84.4429 44.6953 84.6008 46.0376 84.4692C47.1693 84.364 47.8974 84.2587 48.5115 84.1271C48.7396 84.0744 49.0905 83.9955 49.3011 83.9516C49.6608 83.8814 50.696 83.5656 51.0995 83.4077C51.2136 83.3638 51.3978 83.3287 51.5119 83.3287C51.6259 83.3287 51.7487 83.2849 51.7751 83.241C51.8014 83.1884 51.9067 83.1533 52.0032 83.1533C52.0909 83.1533 52.24 83.1182 52.3278 83.0743C52.4067 83.0305 52.8366 82.8813 53.2665 82.7322C54.1876 82.4251 54.8631 82.1883 55.1088 82.0918C55.2053 82.0567 55.3807 82.004 55.5036 81.9777C55.6264 81.9602 55.8808 81.89 56.0738 81.8373C58.2319 81.2232 61.2586 81.1531 63.5308 81.6619C63.7765 81.7145 64.1274 81.7935 64.3204 81.8373C65.1977 82.0303 65.7065 82.1707 66.7329 82.4953C67.1453 82.6269 67.5576 82.7497 67.6541 82.776C67.7506 82.8024 67.8734 82.855 67.9173 82.8901C67.9699 82.9164 68.1629 82.9954 68.3559 83.048C68.5489 83.1006 69.0051 83.2322 69.3648 83.3375C69.7245 83.4428 70.2772 83.6183 70.593 83.7235C71.4791 84.0394 72.0844 84.206 73.0056 84.3815C73.2951 84.4341 73.6899 84.5219 73.8829 84.557C75.734 84.9693 78.9185 84.9254 81.1469 84.4692C81.375 84.4166 81.7434 84.3376 81.9803 84.2938C82.2084 84.2411 82.5944 84.1709 82.8313 84.1183C83.3401 84.0218 83.7261 83.9428 84.9368 83.6972C86.3317 83.4165 88.0161 83.2937 88.9109 83.4165C89.6391 83.513 90.5602 83.6972 91.034 83.8551C91.1568 83.8902 91.4288 83.9779 91.6481 84.0394C91.8674 84.1008 92.0867 84.1797 92.1306 84.206C92.1832 84.2411 92.3148 84.2938 92.4377 84.3201C92.771 84.399 93.2009 84.5131 94.0168 84.7763C94.4291 84.8991 94.9643 85.0482 95.2011 85.0921C95.4468 85.136 95.8152 85.2149 96.0346 85.2676C96.2539 85.3202 96.6487 85.3904 96.9119 85.4342C97.175 85.4781 97.6312 85.5571 97.9207 85.6009C100.368 86.0133 104.141 85.8115 104.65 85.2412C105.062 84.7763 104.228 84.4868 101.693 84.206C101.211 84.1534 100.57 84.0744 100.281 84.0306C99.9824 83.9779 99.5876 83.9428 99.4034 83.9428C98.991 83.9428 97.64 83.6972 95.9468 83.3287C95.7801 83.2937 94.8151 82.9866 93.7975 82.6532C90.8147 81.6619 90.2181 81.5215 88.5776 81.4338C87.4371 81.3724 86.1825 81.4952 84.4981 81.8286C83.6033 82.004 83.2612 82.083 82.7874 82.2146C82.3137 82.3462 81.6733 82.4865 80.8135 82.6357C78.5589 83.0392 75.9357 83.0743 74.3215 82.7146C73.5934 82.5567 72.4617 82.2497 71.8651 82.0567C71.5317 81.9514 71.0755 81.811 70.8562 81.7496C70.6369 81.6882 70.1281 81.5215 69.7157 81.3811C68.7858 81.0566 68.3735 80.925 67.8734 80.7846C67.6541 80.7232 67.3997 80.6442 67.3032 80.6091C67.0926 80.5302 66.5048 80.3723 66.2066 80.3109C66.0837 80.2933 65.61 80.1617 65.1538 80.0389C64.18 79.7669 63.7326 79.6617 63.0044 79.5476C62.4605 79.4686 60.0567 79.2055 59.9778 79.223C59.9514 79.2318 59.8374 79.2493 59.7146 79.2669Z" fill="currentColor"/>
<path d="M55.1094 87.2328C55.0655 87.2591 54.5918 87.3117 54.0566 87.3644C52.8811 87.4784 52.0476 87.5837 51.2932 87.7153C50.9773 87.7679 50.5036 87.8469 50.2404 87.8908C49.9772 87.9259 49.3807 88.0311 48.9245 88.1101C47.8015 88.3031 45.8803 88.4961 45.0468 88.5049C44.3713 88.5049 43.5116 88.6101 42.643 88.7856C42.1518 88.8909 41.757 89.1277 41.8535 89.2769C41.9324 89.4085 42.9501 89.7243 43.6607 89.8296C44.5555 89.9787 48.2402 90.0314 49.0561 89.9173C50.1527 89.7594 50.8107 89.6629 51.995 89.4611C52.6003 89.3646 53.4074 89.2506 53.7935 89.2067C54.1795 89.1628 54.6181 89.1102 54.7585 89.0751C55.3989 88.9435 59.2239 89.3997 61.0311 89.8296C61.2505 89.8734 61.5838 89.9524 61.7768 89.9963C61.9698 90.0401 62.3032 90.1191 62.5225 90.1717C63.3823 90.3823 64.6456 90.6104 66.9529 90.9701C68.5408 91.2157 72.2693 91.2157 74.2344 90.9701C74.945 90.8823 76.7786 90.5402 77.612 90.3384C77.8313 90.2945 78.1735 90.2156 78.384 90.163C78.5858 90.1191 78.9367 90.0401 79.1736 89.9875C80.7264 89.6454 84.5689 89.2593 87.2535 89.1804C87.7711 89.1628 87.9202 89.1277 87.9992 89.0049C88.0781 88.8733 88.0606 88.8207 87.8851 88.6891C87.5254 88.4171 86.3937 88.0838 85.4199 87.9785C84.9111 87.9171 84.2882 87.8381 84.025 87.7943C82.7968 87.5925 80.7001 87.7679 78.27 88.2855C77.9366 88.3557 77.4365 88.461 77.1733 88.5136C76.9102 88.5663 76.5154 88.6452 76.2961 88.6891C75.0064 88.9523 73.0062 89.2067 71.6025 89.2944C70.269 89.3734 68.0758 89.2857 67.4442 89.1277C67.2687 89.0839 66.795 88.9962 66.3826 88.9435C65.672 88.847 65.4176 88.8031 64.3473 88.5838C63.935 88.5049 62.6103 88.1978 61.733 87.9785C61.4435 87.9083 60.961 87.8118 59.9608 87.6363C59.2151 87.496 58.0747 87.3732 57.1272 87.3205C56.6447 87.2942 56.013 87.2591 55.7235 87.2328C55.434 87.2152 55.162 87.2152 55.1094 87.2328Z" fill="currentColor"/>
<path d="M60.9868 98.2986C60.3902 98.4565 59.3638 99.1583 59.3638 99.4215C59.3638 99.5794 59.741 99.9128 59.9252 99.9128C60.0042 99.9128 60.2849 99.8251 60.5306 99.711C61.4956 99.2812 61.3991 99.2899 61.6886 99.5707C62.2501 100.097 63.6274 100.088 64.2591 99.5444C64.417 99.4128 64.6012 99.2987 64.6714 99.2987C64.7416 99.2987 64.803 99.2636 64.803 99.211C64.803 99.1671 64.882 99.0531 64.9785 98.9653C65.1364 98.825 65.1364 98.7899 65.0223 98.6232C64.7942 98.2986 64.4433 98.2898 63.7327 98.5881C63.3818 98.7372 63.0484 98.8601 62.987 98.8601C62.9256 98.8601 62.6975 98.7372 62.4869 98.5793C62.1799 98.3688 61.9781 98.2986 61.6272 98.2811C61.3728 98.2723 61.0833 98.2811 60.9868 98.2986Z" fill="currentColor"/>
<path d="M18.8331 100.659C18.7629 100.676 18.3593 100.738 17.9382 100.79C17.482 100.852 17.0873 100.957 16.9732 101.045C16.8592 101.132 16.5872 101.29 16.3591 101.396C16.1222 101.51 15.938 101.632 15.938 101.676C15.938 101.72 15.7099 101.983 15.4204 102.264C14.7975 102.869 14.2536 103.694 14.0957 104.264C14.0255 104.492 13.8413 104.905 13.6834 105.168C13.1131 106.115 13.0605 106.8 13.4816 107.703C13.6307 108.028 13.8413 108.546 13.9378 108.861C14.0343 109.177 14.1659 109.493 14.2361 109.572C14.3062 109.642 14.3589 109.739 14.3589 109.782C14.3589 109.826 14.508 110.037 14.6923 110.256C14.8677 110.476 15.1221 110.8 15.2537 110.967C15.8415 111.73 16.2626 112.107 16.5433 112.107C16.8504 112.107 17.4557 112.379 17.754 112.66C17.8681 112.757 17.9821 112.818 18.0084 112.792C18.0347 112.757 18.1927 112.792 18.3593 112.862C18.5787 112.95 18.7103 112.967 18.8331 112.897C18.9384 112.835 19.0173 112.835 19.0524 112.897C19.1226 113.011 20.2104 113.011 20.2806 112.897C20.3245 112.827 20.3771 112.827 20.4561 112.897C20.535 112.967 20.5789 112.958 20.614 112.871C20.6403 112.792 20.8421 112.73 21.1491 112.704C21.5176 112.678 21.7457 112.59 22.0966 112.353C22.3598 112.186 22.6581 112.011 22.7721 111.976C23.0441 111.888 23.1494 111.809 23.6933 111.274C24.1758 110.8 25.0619 109.221 25.2286 108.528C25.2812 108.326 25.3689 107.993 25.4216 107.782C25.483 107.563 25.5005 107.063 25.4654 106.528C25.4216 105.756 25.3602 105.493 25.0092 104.554C24.7899 103.957 24.553 103.361 24.4829 103.238C24.2197 102.729 22.7546 101.711 21.2369 100.992C20.4824 100.632 20.3947 100.615 19.7016 100.624C19.298 100.632 18.9033 100.65 18.8331 100.659ZM20.3508 102.106C20.4736 102.203 20.6403 102.282 20.7193 102.282C20.7982 102.282 20.9912 102.343 21.1404 102.422C21.2983 102.501 21.5176 102.624 21.6404 102.685C21.7632 102.747 21.9036 102.869 21.9475 102.957C22.0001 103.045 22.2019 103.317 22.4124 103.571C22.7283 103.957 22.7809 104.08 22.7809 104.449C22.7809 104.677 22.8862 105.142 23.0002 105.484C23.3336 106.422 23.2897 107.414 22.8511 108.8C22.623 109.528 22.1931 110.265 21.9212 110.405C21.8159 110.458 21.5615 110.712 21.3685 110.976C20.8772 111.634 20.4824 111.87 19.956 111.809C19.7279 111.783 19.3946 111.686 19.2015 111.59C18.6839 111.327 17.4294 110.256 17.4294 110.081C17.4294 109.993 17.2715 109.765 17.0785 109.563C16.8855 109.361 16.7276 109.142 16.7276 109.081C16.7276 109.01 16.6223 108.651 16.4995 108.274C16.3065 107.677 16.2714 107.387 16.2363 106.054C16.1837 104.37 16.2889 103.633 16.6048 103.466C16.6925 103.413 16.9908 103.15 17.254 102.861C17.6224 102.483 17.833 102.334 18.0874 102.273C18.2804 102.238 18.6752 102.141 18.9647 102.071C19.7191 101.896 20.0876 101.904 20.3508 102.106Z" fill="currentColor"/>
<path d="M95.1573 100.659C95.0871 100.676 94.6836 100.738 94.2625 100.79C93.8063 100.852 93.4115 100.957 93.2974 101.045C93.1834 101.132 92.9114 101.29 92.6833 101.396C92.4465 101.51 92.2622 101.632 92.2622 101.676C92.2622 101.72 92.0341 101.983 91.7446 102.264C91.1217 102.869 90.5778 103.694 90.4199 104.264C90.3497 104.492 90.1655 104.905 90.0076 105.168C89.4373 106.115 89.3847 106.8 89.8058 107.703C89.9549 108.028 90.1655 108.546 90.262 108.861C90.3585 109.177 90.4901 109.493 90.5603 109.572C90.6305 109.642 90.6831 109.739 90.6831 109.782C90.6831 109.826 90.8322 110.037 91.0165 110.256C91.1919 110.476 91.4463 110.8 91.5779 110.967C92.1657 111.73 92.5868 112.107 92.8676 112.107C93.1746 112.107 93.7799 112.379 94.0782 112.66C94.1923 112.757 94.3063 112.818 94.3326 112.792C94.359 112.757 94.5169 112.792 94.6836 112.862C94.9029 112.95 95.0345 112.967 95.1573 112.897C95.2626 112.835 95.3415 112.835 95.3766 112.897C95.4468 113.011 96.5347 113.011 96.6048 112.897C96.6487 112.827 96.7013 112.827 96.7803 112.897C96.8593 112.967 96.9031 112.958 96.9382 112.871C96.9645 112.792 97.1663 112.73 97.4734 112.704C97.8418 112.678 98.0699 112.59 98.4208 112.353C98.684 112.186 98.9823 112.011 99.0964 111.976C99.3683 111.888 99.4736 111.809 100.018 111.274C100.5 110.8 101.386 109.221 101.553 108.528C101.605 108.326 101.693 107.993 101.746 107.782C101.807 107.563 101.825 107.063 101.79 106.528C101.746 105.756 101.684 105.493 101.333 104.554C101.114 103.957 100.877 103.361 100.807 103.238C100.544 102.729 99.0788 101.711 97.5611 100.992C96.8066 100.632 96.7189 100.615 96.0258 100.624C95.6223 100.632 95.2275 100.65 95.1573 100.659ZM96.675 102.106C96.7978 102.203 96.9645 102.282 97.0435 102.282C97.1224 102.282 97.3154 102.343 97.4646 102.422C97.6225 102.501 97.8418 102.624 97.9646 102.685C98.0875 102.747 98.2278 102.869 98.2717 102.957C98.3243 103.045 98.5261 103.317 98.7367 103.571C99.0525 103.957 99.1051 104.08 99.1051 104.449C99.1051 104.677 99.2104 105.142 99.3244 105.484C99.6578 106.422 99.614 107.414 99.1753 108.8C98.9472 109.528 98.5173 110.265 98.2454 110.405C98.1401 110.458 97.8857 110.712 97.6927 110.976C97.2014 111.634 96.8066 111.87 96.2802 111.809C96.0521 111.783 95.7188 111.686 95.5258 111.59C95.0082 111.327 93.7536 110.256 93.7536 110.081C93.7536 109.993 93.5957 109.765 93.4027 109.563C93.2097 109.361 93.0518 109.142 93.0518 109.081C93.0518 109.01 92.9465 108.651 92.8237 108.274C92.6307 107.677 92.5956 107.387 92.5605 106.054C92.5079 104.37 92.6131 103.633 92.929 103.466C93.0167 103.413 93.315 103.15 93.5782 102.861C93.9466 102.483 94.1572 102.334 94.4116 102.273C94.6046 102.238 94.9994 102.141 95.2889 102.071C96.0434 101.896 96.4118 101.904 96.675 102.106Z" fill="currentColor"/>
<path d="M102.316 100.878C101.702 101.229 101.491 101.667 101.789 101.965C101.859 102.044 102.035 102.106 102.166 102.106C102.307 102.106 102.491 102.194 102.596 102.299C102.763 102.483 102.781 102.623 102.807 103.86C102.824 104.606 102.868 105.247 102.921 105.282C102.965 105.317 102.956 105.422 102.886 105.545C102.789 105.738 102.789 107.431 102.886 109.343C102.912 109.94 102.43 111.405 102.21 111.405C101.991 111.405 101.403 111.826 101.342 112.028C101.298 112.151 101.333 112.291 101.456 112.449C101.605 112.66 101.684 112.677 102.316 112.704C103.456 112.747 103.781 112.765 104.123 112.844C104.351 112.897 104.518 112.879 104.711 112.782C104.93 112.677 105.158 112.668 106.141 112.739C106.781 112.782 107.544 112.8 107.834 112.765C108.123 112.739 108.808 112.686 109.36 112.642C110.299 112.581 110.369 112.563 110.562 112.335C110.746 112.125 110.773 112.01 110.764 111.423C110.755 110.651 110.422 108.843 110.281 108.8C110.001 108.703 109.343 109.694 109.237 110.37C109.176 110.791 108.623 111.352 107.992 111.642C107.316 111.949 106.676 111.896 105.772 111.431L105.114 111.098L105.088 110.572C105.07 110.282 105.105 109.431 105.158 108.686C105.263 107.413 105.255 107.229 105.079 105.966C104.869 104.431 104.851 104.053 104.991 103.562C105.105 103.141 105.509 102.72 105.79 102.72C105.904 102.72 106.079 102.658 106.176 102.588C106.263 102.518 106.465 102.457 106.614 102.457C106.816 102.457 106.913 102.404 106.983 102.237C107.15 101.886 107.106 101.676 106.842 101.404C106.509 101.071 105.825 100.939 104.833 101.009C104.123 101.062 104.026 101.044 103.623 100.842C103.079 100.562 102.86 100.571 102.316 100.878Z" fill="currentColor"/>
<path d="M11.6828 100.792C11.5424 100.827 11.1564 100.862 10.8406 100.871C10.4897 100.879 10.2002 100.932 10.0949 101.011C10.0071 101.081 9.86678 101.143 9.7966 101.143C9.51586 101.143 9.41936 101.52 9.34918 102.774C9.27022 104.239 9.04212 105.283 8.61225 106.178C8.44556 106.529 8.3052 106.845 8.3052 106.88C8.3052 106.915 8.20869 107.073 8.08587 107.231C7.97182 107.38 7.77005 107.731 7.656 108.003C7.53318 108.275 7.40158 108.521 7.34895 108.547C7.21735 108.635 6.55061 107.477 5.64699 105.617C4.6732 103.617 4.18191 102.415 4.18191 102.037C4.18191 101.616 4.10296 101.502 3.70817 101.406C3.51517 101.353 3.15548 101.257 2.90984 101.195C1.81322 100.879 1.57635 100.827 1.24298 100.836C0.909606 100.836 0.900833 100.853 0.830649 101.186C0.725374 101.651 0.848195 101.897 1.26052 102.072C1.44476 102.151 1.68162 102.257 1.7869 102.309C2.26064 102.529 2.35714 103.546 2.12027 106.012C2.05009 106.784 1.96236 108.064 1.91849 108.863C1.85708 110.135 1.82199 110.372 1.62899 110.793C1.34825 111.398 0.997335 111.819 0.637644 111.968C0.225316 112.144 -0.0905097 112.521 0.0235385 112.705C0.181451 112.942 1.75181 113.047 2.48874 112.863C2.84843 112.767 3.10284 112.749 3.19934 112.802C3.34848 112.881 4.26087 112.793 4.43633 112.679C4.5767 112.6 4.55038 112.354 4.39246 112.126C4.32228 112.021 3.98891 111.793 3.66431 111.626C3.15548 111.372 3.05898 111.284 3.00634 111.047C2.90984 110.538 2.9537 109.065 3.0853 108.363C3.16425 107.985 3.22566 107.275 3.21689 106.784C3.21689 105.871 3.30462 105.617 3.61167 105.617C3.76958 105.617 4.09418 106.038 4.09418 106.231C4.09418 106.889 6.12951 111.538 6.75239 112.311C6.92784 112.539 6.97171 112.556 7.18226 112.451C7.47177 112.319 7.63845 111.933 7.77882 111.021C7.85778 110.547 7.95428 110.258 8.10342 110.091C8.20869 109.959 8.3052 109.784 8.3052 109.714C8.3052 109.635 8.34029 109.556 8.38415 109.529C8.47188 109.468 8.79648 108.573 8.86666 108.17C8.89298 108.003 9.09476 107.485 9.31409 107.012C9.53341 106.538 9.70887 106.099 9.70887 106.029C9.70887 105.854 10.2089 105.415 10.3405 105.459C10.4546 105.511 10.7967 107.389 10.7879 107.942C10.7528 110.609 10.7353 110.837 10.5511 111.117C10.4195 111.31 10.2616 111.424 10.0159 111.486C9.58605 111.591 9.32286 112.012 9.472 112.346C9.58605 112.6 10.2265 112.679 12.2618 112.679C14.0164 112.679 14.0953 112.653 14.0953 112.091C14.0953 111.679 13.7356 111.258 13.3058 111.17C12.8145 111.074 12.6741 110.67 12.5162 108.863C12.4636 108.257 12.3846 107.547 12.332 107.284C12.2442 106.81 12.2179 106.354 12.139 103.652L12.0951 102.265L12.5513 102.064C13.1654 101.792 13.2707 101.66 13.1303 101.318C12.9285 100.818 12.3671 100.616 11.6828 100.792Z" fill="currentColor"/>
<path d="M45.3702 100.972C44.2736 101.165 43.4226 101.174 41.5277 100.999C40.0538 100.867 39.1063 100.885 38.308 101.051C38.0887 101.095 37.7202 101.13 37.4921 101.139H37.071L36.8429 101.639C36.6324 102.121 36.6236 102.2 36.685 103.069C36.7464 104.06 36.8605 104.71 37.0008 104.876C37.0622 104.955 37.1851 104.929 37.4833 104.762C37.922 104.517 38.1676 104.192 38.3255 103.639C38.5361 102.911 39.0888 102.569 40.1064 102.525L40.8083 102.499L40.896 103.551C40.9574 104.253 40.9662 105.192 40.9136 106.385C40.8609 107.447 40.8609 108.42 40.9136 108.806C40.9574 109.166 40.9574 109.578 40.9136 109.736C40.8697 109.894 40.8785 110.122 40.9223 110.254C41.0715 110.675 40.8521 111.017 40.0801 111.596C39.5801 111.965 39.4222 112.228 39.545 112.474C39.6503 112.667 40.0363 112.746 41.0715 112.772C41.554 112.781 42.1681 112.816 42.44 112.851C42.8261 112.903 43.1068 112.868 43.8349 112.684C44.3262 112.561 44.7912 112.412 44.8526 112.36C45.2649 112.017 44.528 111.263 43.5981 111.07C43.3437 111.017 43.2647 110.947 43.2033 110.745C43.1594 110.596 43.0892 109.57 43.0454 108.464C42.9927 107.35 42.9401 106.394 42.9138 106.333C42.8962 106.271 42.9138 106.113 42.9664 105.982C43.0191 105.85 43.0542 105.069 43.0542 104.192C43.0542 102.718 43.0629 102.63 43.2296 102.543C43.3349 102.481 43.7911 102.464 44.4754 102.499C45.9054 102.56 46.0984 102.604 46.2387 102.885C46.3089 103.008 46.5458 103.358 46.7651 103.657C47.1511 104.192 47.1774 104.209 47.5547 104.209C48.4583 104.209 48.4671 103.63 47.581 102.165C47.4055 101.876 47.2388 101.525 47.2038 101.376C47.0722 100.744 46.8792 100.7 45.3702 100.972Z" fill="currentColor"/>
<path d="M115.485 100.85C115.441 100.885 114.538 100.92 113.467 100.92C111.441 100.929 111.195 100.964 110.66 101.341C110.318 101.578 110.37 101.859 110.765 101.937C111.213 102.034 111.748 102.455 111.976 102.894C112.134 103.201 112.186 103.49 112.23 104.21C112.309 105.745 112.371 110.342 112.318 110.658C112.239 111.079 111.871 111.491 111.572 111.491C111.064 111.491 110.739 112.035 110.941 112.553C111.02 112.763 111.081 112.781 111.66 112.833C112.064 112.869 112.344 112.851 112.415 112.798C112.555 112.676 114.371 112.755 114.45 112.886C114.494 112.948 114.66 112.921 114.985 112.798C115.362 112.658 115.573 112.623 115.95 112.667C116.213 112.702 116.906 112.746 117.477 112.772L118.521 112.825L118.819 112.483C119.284 111.974 119.389 111.702 119.442 110.921C119.468 110.368 119.45 110.149 119.336 109.93C119.257 109.772 119.152 109.649 119.108 109.649C119.064 109.649 118.836 109.956 118.591 110.324C117.915 111.377 117.898 111.395 117.389 111.623C116.696 111.93 116.248 111.974 115.608 111.789C115.204 111.684 114.967 111.544 114.687 111.272C114.31 110.903 114.31 110.903 114.204 109.991C114.152 109.491 114.073 108.956 114.029 108.815C113.932 108.438 114.073 107.982 114.397 107.649C114.713 107.315 114.862 107.307 115.994 107.508C116.81 107.657 117.003 107.771 117.003 108.122C117.003 108.228 117.055 108.359 117.126 108.412C117.222 108.5 117.292 108.456 117.459 108.228C117.643 107.964 117.661 107.833 117.696 106.649C117.722 105.447 117.713 105.333 117.529 105.043C117.424 104.876 117.327 104.736 117.301 104.736C117.161 104.736 116.705 105.122 116.38 105.526L115.985 106.008L115.257 106.034C114.66 106.052 114.494 106.034 114.353 105.912C114.266 105.824 114.213 105.701 114.231 105.64C114.257 105.578 114.248 105.508 114.204 105.491C114.169 105.464 114.152 105.201 114.169 104.894C114.187 104.587 114.213 103.964 114.222 103.508C114.239 103.052 114.301 102.587 114.362 102.473C114.476 102.253 115.134 101.929 115.459 101.929C115.573 101.929 115.731 102.008 115.818 102.104C115.906 102.201 116.073 102.28 116.187 102.28C116.503 102.28 117.029 102.578 117.345 102.938C117.582 103.21 117.67 103.253 117.863 103.21C117.994 103.174 118.152 103.139 118.213 103.131C118.415 103.078 118.468 102.946 118.582 102.192C118.687 101.472 118.687 101.437 118.494 101.104L118.292 100.771L117.363 100.823C116.108 100.902 116.029 100.902 115.775 100.832C115.652 100.806 115.52 100.806 115.485 100.85Z" fill="currentColor"/>
<path d="M35.5899 101.039C35.3443 101.162 34.9934 101.188 33.7301 101.188C32.2913 101.188 32.1685 101.205 32.0457 101.363C31.9404 101.513 31.9404 101.556 32.0544 101.732C32.1334 101.846 32.2211 101.934 32.265 101.934C32.4843 101.934 33.3616 102.337 33.6073 102.556C33.8968 102.802 33.8968 102.828 33.9406 103.662C33.9669 104.215 34.0459 104.644 34.1424 104.873C34.2652 105.153 34.3003 105.495 34.3091 106.539C34.3266 107.794 34.2828 108.162 34.0985 108.162C34.0547 108.162 33.8529 107.943 33.6599 107.671C33.4581 107.408 33.2212 107.162 33.1423 107.127C33.0546 107.092 32.1509 106.101 31.1421 104.916C29.0453 102.469 27.7996 101.17 27.4574 101.091C27.2995 101.048 27.1153 101.083 26.9047 101.197L26.5977 101.372L26.2468 101.17C25.7555 100.89 25.5011 100.916 25.1677 101.258C24.922 101.513 24.8957 101.574 25.0098 101.662C25.08 101.714 25.1589 101.855 25.1852 101.969C25.2203 102.109 25.3168 102.188 25.5098 102.232C25.8783 102.302 26.2292 102.697 26.4222 103.267C26.624 103.872 26.7117 106.61 26.5538 107.417C26.4924 107.706 26.4222 108.654 26.3871 109.513L26.3257 111.093L26.0713 111.268C25.6063 111.601 25.1501 112.04 25.1501 112.154C25.1501 112.408 26.4485 112.654 26.7117 112.444C26.7819 112.382 26.8521 112.382 26.931 112.452C27.0802 112.575 28.1329 112.505 28.9664 112.321C29.7823 112.137 29.8524 112.101 29.8086 111.794C29.7559 111.347 29.6594 111.25 29.1681 111.189C28.168 111.066 28.0715 111.014 27.8171 110.461C27.589 109.97 27.589 109.952 27.6943 108.996C27.7469 108.469 27.8171 107.382 27.8347 106.583C27.8785 104.785 27.9312 104.688 28.5365 105.267C28.9313 105.653 30.3262 107.443 30.642 107.978C30.7297 108.127 30.835 108.25 30.8701 108.25C30.9052 108.25 30.9929 108.364 31.0719 108.505C31.1421 108.645 31.3965 108.987 31.6421 109.268C31.879 109.54 32.0808 109.82 32.0808 109.873C32.0808 109.935 32.4141 110.382 32.8177 110.882C33.23 111.373 33.6599 111.987 33.7915 112.242C34.081 112.838 34.3442 113.023 34.8091 112.944C35.125 112.891 35.1776 112.838 35.432 112.347L35.704 111.803L35.5987 111.057C35.4671 110.163 35.4408 107.645 35.5548 106.846C35.6777 105.899 35.6163 103.592 35.4496 103.074C35.3355 102.723 35.3268 102.574 35.3969 102.407C35.4583 102.293 35.5373 102.197 35.5812 102.197C35.6338 102.197 35.8444 102.074 36.0637 101.925C36.362 101.732 36.4672 101.6 36.4672 101.442C36.4672 100.898 36.169 100.767 35.5899 101.039Z" fill="currentColor"/>
<path d="M66.9962 101.039C66.7505 101.162 66.3996 101.188 65.1363 101.188C63.6976 101.188 63.5747 101.205 63.4519 101.363C63.3466 101.513 63.3466 101.556 63.4607 101.732C63.5397 101.846 63.6274 101.934 63.6712 101.934C63.8906 101.934 64.7679 102.337 65.0135 102.556C65.303 102.802 65.303 102.828 65.3469 103.662C65.3732 104.215 65.4522 104.644 65.5487 104.873C65.6715 105.153 65.7066 105.495 65.7153 106.539C65.7329 107.794 65.689 108.162 65.5048 108.162C65.4609 108.162 65.2591 107.943 65.0661 107.671C64.8644 107.408 64.6275 107.162 64.5485 107.127C64.4608 107.092 63.566 106.101 62.5483 104.916C60.4603 102.469 59.2058 101.17 58.8637 101.091C58.7058 101.048 58.5215 101.083 58.311 101.197L58.0039 101.372L57.653 101.17C57.1617 100.89 56.9073 100.916 56.5739 101.258C56.3283 101.513 56.302 101.574 56.416 101.662C56.4862 101.714 56.5652 101.855 56.5915 101.969C56.6266 102.109 56.7231 102.188 56.9161 102.232C57.2845 102.302 57.6355 102.697 57.8285 103.267C58.0302 103.872 58.118 106.61 57.9601 107.417C57.8986 107.706 57.8285 108.654 57.7934 109.513L57.732 111.093L57.4775 111.268C57.0126 111.601 56.5564 112.04 56.5564 112.154C56.5564 112.294 57.2933 112.575 57.4951 112.514C57.5828 112.487 57.7144 112.505 57.7846 112.549C57.8723 112.602 57.9601 112.584 58.0653 112.487C58.1794 112.382 58.2496 112.373 58.3373 112.444C58.4864 112.575 59.5304 112.505 60.3726 112.321C61.1797 112.145 61.2587 112.093 61.2236 111.794C61.171 111.356 61.0657 111.25 60.5744 111.189C59.5743 111.066 59.4778 111.014 59.2234 110.461C58.9953 109.97 58.9953 109.952 59.1005 108.996C59.1532 108.469 59.2234 107.382 59.2409 106.583C59.2848 104.785 59.3374 104.688 59.9427 105.267C60.3375 105.653 61.7324 107.443 62.0483 107.978C62.136 108.127 62.2413 108.25 62.2763 108.25C62.3114 108.25 62.3992 108.364 62.4781 108.505C62.5483 108.645 62.8027 108.987 63.0484 109.268C63.2852 109.54 63.487 109.82 63.487 109.873C63.487 109.935 63.8204 110.382 64.2239 110.882C64.6363 111.373 65.0661 111.987 65.1977 112.242C65.4872 112.838 65.7504 113.023 66.2154 112.944C66.5312 112.891 66.5839 112.838 66.8383 112.347L67.1102 111.803L67.005 111.057C66.8734 110.154 66.847 107.75 66.9611 106.846C67.0839 105.802 67.0225 103.592 66.8558 103.065C66.7418 102.723 66.733 102.574 66.8032 102.407C66.8646 102.293 66.9436 102.197 66.9874 102.197C67.0401 102.197 67.2506 102.074 67.4699 101.925C67.7682 101.732 67.8735 101.6 67.8735 101.442C67.8735 100.898 67.5752 100.767 66.9962 101.039Z" fill="currentColor"/>
<path d="M50.1879 101.055C50.0826 101.099 49.9686 101.178 49.9247 101.24C49.8107 101.424 49.6177 102.301 49.5826 102.775C49.565 103.029 49.451 103.468 49.3281 103.766C49.2053 104.056 49.1001 104.354 49.1001 104.424C49.1001 104.652 48.1263 107.556 47.7841 108.355C47.6087 108.776 47.2665 109.425 47.0296 109.802C46.7928 110.179 46.5208 110.662 46.4155 110.881C46.3103 111.1 46.0646 111.425 45.8628 111.609C45.4066 112.03 45.3979 112.25 45.8453 112.644C46.1348 112.908 46.205 112.934 46.3453 112.846C46.5296 112.723 47.8455 112.671 48.2842 112.767C48.7755 112.873 49.1527 112.75 49.3545 112.425C49.6352 111.969 49.5913 111.793 49.1264 111.469C48.5386 111.074 48.3105 110.828 48.3105 110.618C48.3105 110.521 48.4509 110.083 48.6175 109.653C48.7842 109.223 48.9246 108.758 48.9246 108.626C48.9246 108.486 48.9948 108.258 49.0913 108.109C49.2492 107.846 49.258 107.846 49.8984 107.872C51.1792 107.916 51.767 108.047 52.1443 108.372C52.3636 108.565 52.3899 108.653 52.4075 109.188C52.425 109.513 52.4864 109.942 52.5566 110.135C52.8461 110.907 52.7145 111.197 52.039 111.276C51.6179 111.329 51.5302 111.381 51.4249 111.592C51.2319 111.951 51.267 112.206 51.5389 112.539C51.846 112.899 52.4162 113.004 52.8549 112.776C53.083 112.662 53.1795 112.653 53.3286 112.732C53.6181 112.89 54.9428 112.785 55.4429 112.566C56.2588 112.206 56.1974 111.618 55.2499 110.6C54.9253 110.249 54.627 109.846 54.5919 109.714C54.5568 109.574 54.4428 109.32 54.3287 109.144C54.2235 108.969 54.1006 108.653 54.0743 108.46C53.9954 107.951 53.2058 105.898 52.9426 105.512C52.8198 105.337 52.6355 104.845 52.5303 104.424C52.3285 103.635 51.767 102.284 51.6354 102.284C51.5916 102.284 51.5565 102.187 51.5565 102.064C51.5565 101.731 51.3372 101.275 51.1091 101.108C50.8897 100.959 50.4862 100.933 50.1879 101.055ZM50.8195 105.038C51.1792 105.775 51.1792 106.047 50.8108 106.214C50.2844 106.46 49.9335 106.249 49.8545 105.635C49.8194 105.328 49.837 105.126 49.9423 104.907C50.2932 104.196 50.4248 104.222 50.8195 105.038Z" fill="currentColor"/>
<path d="M72.4716 101.055C72.3663 101.099 72.2523 101.178 72.2084 101.24C72.0944 101.424 71.9013 102.301 71.8663 102.775C71.8487 103.029 71.7347 103.468 71.6118 103.766C71.489 104.056 71.3837 104.354 71.3837 104.424C71.3837 104.652 70.4099 107.556 70.0678 108.355C69.8923 108.776 69.5502 109.425 69.3133 109.802C69.0765 110.179 68.8045 110.662 68.6992 110.881C68.5939 111.1 68.3483 111.425 68.1465 111.609C67.6903 112.03 67.6816 112.25 68.129 112.644C68.4185 112.908 68.4887 112.934 68.629 112.846C68.8133 112.723 70.1292 112.671 70.5679 112.767C71.0591 112.873 71.4364 112.75 71.6382 112.425C71.9189 111.969 71.875 111.793 71.4101 111.469C70.8223 111.074 70.5942 110.828 70.5942 110.618C70.5942 110.521 70.7345 110.083 70.9012 109.653C71.0679 109.223 71.2083 108.758 71.2083 108.626C71.2083 108.486 71.2785 108.258 71.375 108.109C71.5329 107.846 71.5417 107.846 72.1821 107.872C73.4629 107.916 74.0507 108.047 74.428 108.372C74.6473 108.565 74.6736 108.653 74.6911 109.188C74.7087 109.513 74.7701 109.942 74.8403 110.135C75.1298 110.907 74.9982 111.197 74.3227 111.276C73.9016 111.329 73.8138 111.381 73.7086 111.592C73.5156 111.951 73.5507 112.206 73.8226 112.539C74.1297 112.899 74.6999 113.004 75.1386 112.776C75.3667 112.662 75.4632 112.653 75.6123 112.732C75.9018 112.89 77.2265 112.785 77.7266 112.566C78.5425 112.206 78.4811 111.618 77.5336 110.6C77.209 110.249 76.9107 109.846 76.8756 109.714C76.8405 109.574 76.7265 109.32 76.6124 109.144C76.5071 108.969 76.3843 108.653 76.358 108.46C76.279 107.951 75.4895 105.898 75.2263 105.512C75.1035 105.337 74.9192 104.845 74.814 104.424C74.6122 103.635 74.0507 102.284 73.9191 102.284C73.8753 102.284 73.8402 102.187 73.8402 102.064C73.8402 101.731 73.6208 101.275 73.3927 101.108C73.1734 100.959 72.7699 100.933 72.4716 101.055ZM73.1032 105.038C73.4629 105.775 73.4629 106.047 73.0945 106.214C72.5681 106.46 72.2172 106.249 72.1382 105.635C72.1031 105.328 72.1207 105.126 72.2259 104.907C72.5769 104.196 72.7085 104.222 73.1032 105.038Z" fill="currentColor"/>
<path d="M119.881 101.185C119.767 101.448 119.96 101.799 120.267 101.886C120.661 101.992 120.863 102.141 121.1 102.474C121.477 103.018 121.565 103.852 121.486 106.141C121.46 106.747 121.477 107.615 121.521 108.08C121.574 108.773 121.565 109.045 121.433 109.571C121.346 109.931 121.267 110.493 121.267 110.835L121.258 111.449L120.495 111.817C120.065 112.028 119.723 112.23 119.723 112.274C119.723 112.326 119.81 112.467 119.924 112.598C120.1 112.8 120.223 112.835 120.942 112.923C121.521 112.984 121.811 112.984 121.916 112.914C122.004 112.861 122.109 112.853 122.188 112.905C122.451 113.072 124.267 112.932 124.758 112.712C125.1 112.554 125.074 112.151 124.714 111.949C123.899 111.51 123.556 110.844 123.451 109.519C123.416 109.133 123.381 108.764 123.355 108.703C123.293 108.492 123.276 103.852 123.337 103.737C123.372 103.676 123.363 103.474 123.311 103.29C123.197 102.895 123.32 102.544 123.556 102.544C123.758 102.544 124.618 102.088 124.671 101.957C124.767 101.72 124.592 101.527 124.074 101.29C123.539 101.053 123.504 101.044 122.977 101.149C122.521 101.246 122.284 101.246 121.407 101.114C120.065 100.921 120.003 100.921 119.881 101.185Z" fill="currentColor"/>
<path d="M84.7968 101.149C84.7266 101.193 84.5248 101.272 84.3494 101.316C83.9633 101.421 83.551 101.754 83.2615 102.184C82.2877 103.623 82.2614 103.702 82.5246 104.685C82.7527 105.536 82.9808 105.895 83.7002 106.518C84.4108 107.141 84.5599 107.238 85.3144 107.492C85.9548 107.703 86.5952 108.132 87.1655 108.72C87.4462 109.01 87.4725 109.08 87.4988 109.712C87.5339 110.352 87.5252 110.422 87.2795 110.799C86.7444 111.633 86.1127 111.896 85.2266 111.633C84.4195 111.405 83.6651 110.589 83.6651 109.966C83.6651 109.861 83.551 109.659 83.4194 109.536C83.2089 109.334 83.1299 109.308 82.9457 109.378C82.6913 109.475 82.3491 110.185 82.3491 110.633C82.3491 110.975 82.7264 112.343 82.858 112.475C82.9281 112.545 84.8319 112.703 85.9899 112.738C86.2619 112.747 88.2533 111.975 88.6569 111.712C89.5342 111.124 89.6745 109.738 89.0429 107.983C88.7797 107.255 88.341 106.746 87.8059 106.518C87.6304 106.448 87.376 106.29 87.2444 106.176C87.1041 106.071 86.5865 105.781 86.0952 105.536C85.4021 105.193 85.0775 104.974 84.7354 104.614C84.2967 104.149 84.2792 104.114 84.2792 103.641C84.2792 103.149 84.2879 103.132 84.7968 102.605L85.3231 102.062H85.9373C86.6391 102.062 86.8584 102.184 87.3234 102.816C87.7796 103.43 88.1042 103.772 88.2358 103.772C88.3059 103.772 88.4288 103.711 88.5253 103.641C88.6832 103.527 88.6832 103.492 88.534 102.658C88.4463 102.184 88.3147 101.737 88.2358 101.658C87.9638 101.377 86.8409 101.114 85.8495 101.088C85.3407 101.079 84.867 101.105 84.7968 101.149Z" fill="currentColor"/>
</svg>
