<?xml version="1.0" standalone="no"?>
<!DOCTYPE svg PUBLIC "-//W3C//DTD SVG 20010904//EN"
 "http://www.w3.org/TR/2001/REC-SVG-20010904/DTD/svg10.dtd">
<svg version="1.0" xmlns="http://www.w3.org/2000/svg"
 width="2000.000000pt" height="2000.000000pt" viewBox="0 0 2000.000000 2000.000000"
 preserveAspectRatio="xMidYMid meet">

<g transform="translate(0.000000,2000.000000) scale(0.100000,-0.100000)"
fill="currentColor" stroke="none">
<path d="M9893 18090 c-40 -24 -53 -48 -53 -100 0 -60 41 -100 103 -100 39 0
49 5 75 34 17 19 33 49 37 66 20 90 -79 151 -162 100z"/>
<path d="M8723 17608 c-23 -30 -22 -51 2 -92 32 -55 32 -88 -3 -140 -16 -23
-41 -67 -56 -99 -33 -67 -31 -97 14 -161 33 -49 106 -90 222 -127 38 -11 71
-25 74 -30 13 -21 -9 -61 -67 -126 -98 -109 -121 -187 -76 -254 24 -37 72 -64
185 -105 64 -23 75 -31 98 -70 20 -34 25 -52 19 -77 -3 -17 -9 -52 -11 -77 -5
-40 -2 -48 25 -74 l30 -29 33 20 c74 43 112 206 69 292 -29 55 -79 95 -186
146 -65 32 -95 51 -95 63 0 9 17 40 39 68 73 97 121 187 121 230 0 79 -36 110
-190 164 -158 55 -170 68 -134 146 15 33 32 88 39 123 21 103 -6 157 -104 209
-13 6 -27 12 -31 12 -4 0 -12 -6 -17 -12z"/>
<path d="M9885 17541 c-97 -60 -108 -105 -44 -169 35 -34 43 -49 46 -89 5 -51
3 -56 -77 -192 -62 -104 -61 -144 8 -247 76 -112 77 -130 8 -319 -43 -117 -32
-205 30 -254 69 -54 109 -10 134 149 6 41 23 113 37 160 60 202 57 246 -20
317 -29 26 -56 53 -60 59 -7 12 27 130 43 149 5 6 27 66 50 135 61 182 58 270
-12 306 -38 20 -107 18 -143 -5z"/>
<path d="M11160 17520 c-15 -16 -30 -43 -33 -59 -10 -46 -57 -92 -151 -144
-103 -57 -124 -87 -104 -145 6 -20 20 -46 29 -57 67 -80 50 -130 -58 -169 -78
-29 -113 -49 -145 -85 -45 -51 -38 -110 30 -232 29 -51 52 -98 52 -105 0 -8
-24 -31 -52 -52 -70 -52 -83 -68 -102 -125 -20 -58 -20 -88 -2 -130 18 -43 49
-69 78 -65 18 2 27 15 43 65 24 74 41 94 125 144 109 65 125 102 80 191 -18
35 -40 74 -49 88 -29 42 -63 122 -57 135 2 7 22 19 43 25 90 29 198 89 221
123 31 47 28 77 -18 172 -22 46 -40 86 -40 89 0 3 35 32 78 64 119 92 142 125
142 205 0 91 -55 125 -110 67z"/>
<path d="M7586 17224 c-20 -21 -26 -36 -26 -71 0 -94 96 -136 170 -74 29 24
35 35 35 71 0 35 -6 47 -33 71 -44 40 -107 41 -146 3z"/>
<path d="M12147 17169 c-15 -12 -34 -37 -42 -56 -13 -30 -13 -39 -1 -67 17
-41 51 -66 89 -66 89 0 152 82 116 153 -30 58 -109 75 -162 36z"/>
<path d="M7893 16774 c-19 -14 -37 -41 -44 -63 -15 -50 3 -88 80 -173 110
-123 281 -348 419 -554 61 -92 95 -127 135 -140 16 -5 29 2 54 30 52 56 47 75
-63 238 -53 79 -105 152 -115 163 -32 37 -217 321 -247 381 -17 33 -51 79 -76
102 -55 51 -94 55 -143 16z"/>
<path d="M11940 16763 c-46 -15 -68 -37 -138 -142 -42 -63 -112 -160 -155
-215 -79 -104 -178 -234 -277 -366 -107 -143 -126 -195 -85 -236 18 -18 35
-24 68 -24 40 0 49 5 83 43 22 24 80 99 129 167 50 68 104 140 120 161 17 20
48 60 70 89 22 29 84 105 139 169 114 135 148 183 166 231 11 31 10 39 -10 73
-28 48 -66 65 -110 50z"/>
<path d="M6717 16492 c-22 -24 -21 -28 4 -93 68 -172 100 -218 170 -249 52
-22 53 -22 123 -5 39 10 89 18 111 19 l40 1 3 -50 c2 -27 -2 -67 -8 -88 -6
-21 -11 -78 -12 -128 -1 -86 1 -92 29 -127 33 -41 97 -71 153 -71 26 -1 57 12
115 49 111 70 109 70 120 -40 13 -144 32 -190 93 -221 28 -14 41 -14 124 -2
125 19 133 16 167 -60 33 -72 51 -91 81 -82 27 8 45 53 53 125 5 46 3 62 -16
95 -12 22 -38 50 -57 63 -33 22 -42 24 -155 20 l-120 -3 -2 35 c-18 265 -105
337 -290 239 -43 -23 -82 -45 -87 -50 -18 -17 -46 -9 -51 14 -3 12 2 65 11
117 26 152 27 166 9 219 -31 95 -125 139 -235 111 -25 -6 -56 -14 -70 -16 -14
-3 -35 -10 -47 -16 -32 -16 -48 2 -93 98 -39 85 -52 98 -110 109 -28 5 -39 2
-53 -13z"/>
<path d="M12931 16234 c-36 -21 -53 -25 -85 -20 -138 20 -163 19 -210 -8 -65
-38 -96 -101 -96 -195 0 -58 -16 -160 -31 -199 -14 -37 -36 -37 -92 -1 -87 56
-160 89 -197 89 -78 0 -141 -89 -182 -259 -11 -46 -17 -56 -45 -67 -18 -8 -55
-14 -83 -14 -43 0 -55 -5 -89 -35 -21 -20 -49 -56 -60 -81 -18 -38 -20 -50
-11 -82 17 -57 44 -97 68 -100 18 -3 26 5 41 41 23 52 56 87 85 87 11 0 52 10
90 22 111 35 127 57 181 251 18 68 34 72 99 29 105 -71 170 -78 263 -31 72 37
92 84 102 240 5 68 12 132 16 141 11 26 78 44 111 30 34 -16 99 -15 132 2 34
18 89 85 98 120 4 19 1 33 -11 46 -23 26 -40 25 -94 -6z"/>
<path d="M9930 15945 c-72 -12 -216 -55 -252 -75 -10 -6 -22 -10 -28 -10 -5 0
-35 -12 -67 -26 -124 -57 -240 -77 -333 -59 -36 7 -73 16 -83 20 -17 7 -61 -2
-131 -28 -60 -22 -216 -202 -216 -249 0 -8 13 -27 29 -42 28 -27 31 -27 68
-15 21 7 65 39 98 71 81 77 111 88 200 76 39 -6 115 -8 170 -5 103 5 105 5
380 107 80 29 205 60 270 67 65 6 205 -14 327 -48 40 -10 98 -26 128 -34 80
-22 134 -20 166 8 l26 23 -21 43 c-24 46 -42 56 -195 113 -201 74 -355 92
-536 63z"/>
<path d="M10918 15617 c-14 -13 -29 -38 -33 -56 -9 -42 28 -100 88 -138 94
-61 196 -145 268 -222 42 -45 83 -81 92 -81 23 0 66 50 73 85 16 90 -138 249
-401 413 -46 28 -56 28 -87 -1z"/>
<path d="M10001 15559 c-46 -4 -107 -13 -135 -20 -96 -22 -225 -63 -306 -97
-41 -17 -92 -38 -150 -64 -30 -14 -82 -35 -115 -48 -33 -13 -71 -31 -85 -40
-14 -9 -54 -31 -90 -50 -74 -38 -192 -112 -220 -138 -10 -9 -43 -37 -72 -61
-128 -107 -243 -267 -314 -435 -61 -145 -76 -199 -95 -361 -12 -103 -6 -324
11 -405 48 -227 112 -370 180 -405 31 -16 54 -6 79 36 18 30 18 32 -6 107 -68
208 -93 349 -93 526 0 121 24 286 52 354 57 141 83 190 140 267 123 164 326
325 538 424 96 45 347 148 394 163 174 53 221 61 361 60 175 0 271 -23 428
-103 333 -168 575 -484 651 -849 38 -183 15 -379 -75 -635 -74 -212 -134 -312
-256 -425 -64 -59 -101 -83 -209 -135 -71 -35 -136 -70 -142 -78 -7 -8 -15
-28 -18 -45 -6 -27 -2 -33 27 -51 43 -26 89 -26 170 0 209 68 389 223 506 439
127 235 192 477 195 720 2 132 -10 249 -32 320 -4 14 -13 45 -21 70 -7 25 -16
49 -21 55 -4 5 -8 16 -8 25 0 22 -90 196 -144 279 -61 92 -173 225 -235 278
-145 124 -345 239 -476 273 -16 5 -55 15 -85 23 -30 9 -89 18 -130 22 -41 3
-84 7 -95 9 -11 1 -58 -1 -104 -5z"/>
<path d="M6188 15493 c-25 -29 -38 -60 -38 -92 0 -64 97 -129 155 -103 32 15
65 68 65 105 0 35 -24 83 -49 97 -33 17 -116 12 -133 -7z"/>
<path d="M13498 15415 c-29 -16 -54 -74 -49 -114 4 -37 29 -68 63 -80 49 -17
75 -13 110 18 28 25 31 33 30 80 -1 60 -11 76 -60 97 -43 17 -60 17 -94 -1z"/>
<path d="M8606 15389 c-15 -12 -37 -42 -50 -67 -28 -54 -59 -85 -171 -169
-156 -119 -170 -143 -170 -303 -1 -138 -7 -159 -77 -280 -42 -72 -47 -99 -20
-123 35 -32 77 -40 111 -23 35 19 102 105 120 156 7 19 17 44 21 55 21 51 32
148 26 215 l-7 71 36 35 c20 18 69 58 108 88 95 72 140 120 171 182 41 82 33
144 -21 172 -31 17 -47 15 -77 -9z"/>
<path d="M6678 15335 c-31 -17 -58 -66 -58 -105 0 -32 50 -81 100 -99 19 -7
62 -26 95 -41 66 -31 89 -37 185 -50 135 -18 182 -40 285 -130 121 -106 173
-136 258 -148 67 -10 81 -9 133 9 102 34 122 66 78 118 -25 30 -28 31 -113 31
-80 0 -91 2 -136 31 -27 17 -87 68 -135 114 -115 110 -136 120 -304 139 -112
12 -144 19 -172 38 -19 13 -34 26 -34 30 0 4 -16 23 -35 43 -30 29 -43 35 -78
35 -23 -1 -54 -7 -69 -15z"/>
<path d="M13022 15189 l-103 -53 -137 -6 c-159 -8 -213 -26 -297 -102 -27 -25
-88 -73 -133 -106 -77 -57 -88 -62 -135 -62 -72 0 -117 -25 -134 -73 -9 -29
-10 -44 -2 -60 30 -59 87 -71 179 -36 131 48 193 86 295 178 90 82 116 90 275
91 124 1 139 3 185 26 28 14 70 32 95 40 25 9 60 30 78 47 58 56 38 143 -38
162 -19 4 -52 -8 -128 -46z"/>
<path d="M9825 15165 c-87 -14 -124 -24 -200 -50 -70 -24 -212 -93 -262 -127
-23 -15 -44 -28 -48 -28 -3 0 -36 -20 -72 -45 -223 -153 -345 -303 -423 -520
-47 -130 -52 -166 -54 -325 -1 -168 7 -212 64 -371 43 -117 73 -175 133 -254
89 -117 263 -233 375 -251 35 -6 42 -3 57 19 13 21 14 32 5 66 -6 23 -15 41
-21 41 -13 0 -81 55 -177 145 -147 138 -231 315 -252 530 -23 247 50 438 243
642 39 40 100 95 136 120 97 69 272 155 391 194 100 32 112 34 250 34 129 -1
154 -4 227 -27 168 -54 319 -161 441 -311 43 -53 112 -188 131 -257 7 -25 17
-55 22 -68 12 -29 12 -210 0 -248 -5 -16 -14 -53 -21 -82 -27 -119 -112 -248
-217 -332 -149 -119 -324 -181 -508 -181 -160 0 -287 40 -430 135 -223 148
-328 402 -255 620 50 152 230 316 395 363 137 39 162 41 270 19 118 -23 177
-52 252 -120 70 -64 106 -117 132 -196 59 -178 -13 -330 -199 -425 -75 -38
-150 -50 -217 -36 -173 38 -269 157 -233 287 15 52 45 85 106 114 40 18 50 19
82 9 21 -7 47 -18 58 -26 34 -21 74 -89 74 -123 0 -39 33 -73 63 -64 67 20 87
53 87 147 0 144 -128 246 -310 247 -114 0 -267 -89 -311 -181 -9 -19 -22 -47
-30 -63 -9 -19 -14 -63 -13 -125 0 -89 3 -100 34 -159 123 -231 454 -314 714
-180 132 69 211 152 263 281 34 84 44 154 33 246 -31 275 -233 482 -527 541
-55 11 -129 20 -163 20 -130 0 -330 -66 -452 -149 -24 -16 -71 -58 -104 -93
-64 -65 -164 -206 -164 -230 0 -8 -4 -18 -8 -23 -33 -38 -52 -200 -36 -317 21
-160 66 -262 167 -373 159 -177 320 -273 527 -316 87 -19 327 -16 400 4 89 24
151 46 218 78 35 16 65 29 67 29 13 0 117 69 164 109 128 108 232 296 272 491
30 144 4 372 -57 520 -89 213 -270 415 -464 517 -209 110 -403 143 -625 108z"/>
<path d="M11575 14770 c-51 -20 -65 -85 -34 -162 11 -29 30 -75 41 -103 25
-63 30 -229 8 -290 -20 -56 -17 -222 4 -263 39 -76 130 -71 187 10 25 35 20
69 -16 100 -31 27 -33 77 -5 168 36 117 26 240 -30 375 -4 11 -14 40 -21 65
-15 50 -67 110 -95 109 -11 0 -28 -4 -39 -9z"/>
<path d="M6484 14371 c-22 -13 -45 -47 -78 -112 -26 -52 -57 -103 -68 -114
l-20 -20 -21 29 c-104 139 -140 166 -224 166 -66 0 -93 -22 -93 -76 l0 -43 61
-13 c65 -13 89 -33 139 -118 40 -68 83 -95 149 -95 89 0 111 21 177 170 23 52
43 75 65 75 18 0 69 -58 69 -79 0 -6 4 -19 9 -29 5 -9 19 -37 30 -62 29 -60
81 -101 137 -108 88 -10 130 20 198 138 25 43 50 81 55 84 17 11 41 -6 58 -38
30 -59 88 -125 119 -136 48 -17 110 -2 157 37 40 34 43 35 107 30 36 -3 74 -7
85 -9 12 -2 21 3 23 15 12 61 -76 137 -159 137 -47 0 -95 -16 -136 -46 -21
-15 -23 -14 -48 28 -59 94 -80 120 -120 144 -93 54 -167 16 -254 -129 -25 -40
-64 -72 -79 -63 -5 3 -30 41 -56 85 -51 87 -92 132 -141 156 -44 20 -103 19
-141 -4z"/>
<path d="M13345 14332 c-44 -24 -55 -37 -95 -113 -88 -167 -110 -174 -168 -57
-49 100 -88 147 -139 170 -81 36 -140 4 -224 -119 -73 -108 -80 -109 -175 -22
-23 20 -57 45 -75 55 -49 25 -134 23 -185 -4 -44 -23 -104 -94 -104 -124 0
-23 36 -41 69 -35 169 32 176 31 208 -17 34 -52 128 -109 187 -114 68 -5 104
20 176 123 70 101 89 106 125 36 14 -28 25 -55 25 -61 0 -6 15 -34 33 -61 44
-68 97 -94 173 -84 76 9 107 40 174 171 30 59 62 112 72 118 13 8 28 -1 72
-41 56 -51 111 -73 184 -73 33 0 86 31 105 62 22 34 29 98 12 98 -8 0 -17 -4
-20 -10 -3 -5 -31 -10 -62 -10 -58 0 -89 15 -147 72 -40 40 -98 68 -138 68
-18 0 -55 -13 -83 -28z"/>
<path d="M8030 14035 c-21 -22 -22 -31 -18 -97 3 -45 17 -106 36 -158 16 -47
46 -129 65 -183 25 -70 37 -123 42 -185 7 -109 20 -161 57 -238 30 -63 52 -82
128 -108 60 -21 67 -20 95 9 17 17 25 35 25 60 0 46 -12 68 -58 110 -44 39
-62 95 -62 193 0 37 -7 85 -15 107 -8 22 -33 92 -55 155 -23 63 -55 159 -70
214 -39 132 -49 146 -103 146 -33 0 -49 -6 -67 -25z"/>
<path d="M11579 13655 c-29 -15 -49 -60 -49 -106 0 -72 -67 -196 -155 -289
-24 -25 -70 -86 -104 -136 -88 -132 -163 -196 -291 -246 -48 -19 -54 -24 -79
-71 l-26 -46 20 -38 c17 -33 25 -38 59 -41 43 -4 113 26 209 90 32 21 63 38
68 38 21 0 158 153 209 233 30 48 88 129 128 180 114 146 150 236 136 345 -11
89 -60 123 -125 87z"/>
<path d="M7610 13420 c-14 -11 -49 -29 -79 -41 -54 -23 -54 -23 -135 -5 -135
30 -179 36 -216 30 -35 -6 -99 -46 -200 -122 -30 -23 -82 -49 -122 -62 -69
-22 -89 -22 -204 -4 -37 5 -43 3 -63 -21 -45 -58 -20 -113 64 -144 66 -25 118
-26 200 -5 33 9 71 18 85 21 36 9 115 54 188 109 62 46 66 47 131 46 36 -1 82
-6 101 -12 51 -15 155 -12 208 5 74 25 139 77 153 124 15 51 8 67 -37 86 -45
19 -44 19 -74 -5z"/>
<path d="M12120 13427 c-20 -10 -26 -21 -28 -54 -6 -75 38 -127 145 -171 69
-29 97 -28 189 9 88 35 79 40 151 -65 76 -110 158 -138 282 -97 74 24 118 26
145 6 21 -16 46 -60 46 -84 1 -24 32 -59 60 -66 41 -10 70 29 71 96 2 100 -55
184 -148 219 l-55 21 -81 -26 c-44 -14 -97 -25 -118 -25 -40 0 -44 5 -112 110
-12 19 -45 50 -72 68 -45 30 -53 33 -100 26 -27 -3 -66 -12 -85 -19 -75 -27
-119 -37 -134 -32 -9 4 -26 22 -37 41 -11 20 -33 39 -51 45 -38 13 -37 14 -68
-2z"/>
<path d="M8810 13208 c-24 -40 -25 -55 -4 -96 12 -25 27 -35 72 -49 31 -9 76
-30 99 -45 59 -40 93 -34 121 19 25 46 -31 110 -149 171 -83 42 -113 42 -139
0z"/>
<path d="M6158 13074 c-53 -28 -63 -88 -25 -144 40 -60 125 -64 171 -9 38 45
33 92 -17 147 -24 26 -87 30 -129 6z"/>
<path d="M13491 13015 c-51 -58 -38 -135 26 -161 78 -33 158 27 151 113 -4 47
-51 83 -108 83 -31 0 -44 -7 -69 -35z"/>
<path d="M8561 12910 c-47 -11 -63 -31 -69 -89 -4 -48 -3 -51 29 -70 76 -46
168 -8 171 71 1 41 -12 62 -53 84 -31 15 -30 15 -78 4z"/>
<path d="M9855 12880 c-16 -5 -59 -16 -95 -25 -87 -22 -211 -83 -290 -144 -83
-63 -263 -248 -415 -426 -65 -77 -180 -201 -254 -276 -173 -173 -281 -246
-506 -344 -130 -56 -290 -143 -358 -194 -43 -32 -148 -127 -235 -212 -269
-264 -495 -471 -701 -642 -58 -49 -134 -112 -167 -140 -34 -29 -85 -70 -114
-92 -29 -22 -74 -58 -99 -80 -26 -22 -85 -67 -130 -100 -122 -87 -182 -131
-311 -227 -98 -72 -273 -198 -346 -248 -12 -8 -136 -94 -275 -190 -140 -96
-271 -186 -293 -200 -53 -34 -418 -271 -462 -300 -21 -14 -105 -66 -164 -100
-14 -8 -41 -25 -60 -36 -81 -49 -312 -161 -393 -190 -20 -7 -54 -21 -75 -30
-20 -9 -46 -20 -57 -24 -11 -4 -74 -29 -140 -55 -140 -56 -175 -82 -175 -135
0 -74 64 -97 182 -66 65 18 237 75 260 87 10 5 27 9 37 9 11 0 23 5 26 10 3 6
13 10 21 10 19 0 194 78 327 146 205 104 843 503 1018 637 24 18 51 36 59 40
8 4 62 41 120 82 58 41 143 102 190 134 304 213 371 261 635 456 112 83 337
260 463 365 30 25 74 61 98 80 45 37 128 110 309 275 61 54 214 201 340 325
194 192 343 320 369 320 3 0 25 8 49 19 23 10 74 31 112 46 113 45 259 120
349 178 150 98 368 320 673 685 154 184 277 278 424 326 166 54 288 24 432
-106 40 -36 122 -133 200 -237 454 -605 699 -827 1057 -955 41 -15 83 -31 92
-37 10 -5 22 -9 28 -9 21 0 163 -71 223 -111 110 -75 165 -126 585 -546 417
-417 515 -507 652 -600 73 -50 356 -213 369 -213 12 0 245 -121 336 -175 126
-74 220 -138 440 -300 154 -113 214 -157 234 -170 8 -5 47 -31 86 -56 105 -68
315 -189 329 -189 6 0 16 -4 22 -9 5 -4 51 -25 102 -45 51 -20 114 -46 140
-57 46 -21 70 -31 115 -48 12 -4 33 -13 47 -19 14 -6 68 -27 120 -47 52 -20
106 -41 120 -47 48 -20 66 -27 130 -49 36 -12 85 -31 110 -41 25 -11 65 -26
90 -34 25 -8 55 -19 68 -25 155 -65 458 -139 573 -139 37 0 89 47 89 81 0 32
-59 82 -116 98 -27 8 -83 25 -124 38 -41 13 -93 28 -115 34 -22 6 -49 15 -60
19 -11 4 -36 13 -55 20 -19 7 -44 16 -55 20 -11 5 -74 30 -140 55 -152 60
-166 65 -187 76 -10 5 -22 9 -28 9 -5 0 -35 12 -67 26 -32 14 -69 31 -83 36
-14 6 -33 14 -42 19 -10 5 -24 9 -31 9 -7 0 -32 9 -55 20 -22 11 -45 20 -50
20 -4 0 -32 11 -60 25 -29 14 -56 25 -62 25 -10 0 -49 17 -155 65 -27 13 -80
37 -116 53 -86 40 -301 168 -418 251 -51 36 -103 73 -115 81 -11 8 -66 49
-121 90 -89 67 -338 237 -390 266 -11 6 -50 30 -86 52 -37 23 -159 87 -270
143 -403 202 -491 273 -1069 854 -381 384 -483 472 -645 560 -44 23 -114 55
-155 69 -41 15 -83 31 -92 37 -10 5 -22 9 -28 9 -19 0 -177 77 -237 116 -156
100 -428 365 -578 565 -23 30 -135 177 -220 288 -175 230 -284 313 -475 362
-89 23 -194 32 -235 19z"/>
<path d="M7955 12800 c-11 -4 -38 -27 -60 -50 l-39 -43 -78 7 c-52 4 -86 3
-101 -5 -60 -31 -97 -91 -97 -160 0 -44 -18 -89 -35 -89 -7 0 -20 9 -30 20
-10 11 -22 20 -27 20 -5 0 -29 14 -53 30 -24 17 -50 30 -59 30 -8 0 -18 5 -21
10 -9 15 -88 12 -128 -5 -19 -8 -46 -29 -59 -47 -22 -32 -23 -40 -21 -194 1
-153 0 -162 -21 -189 l-22 -28 -90 38 c-53 23 -111 40 -144 42 -49 4 -60 1
-98 -27 -51 -37 -61 -60 -72 -165 -5 -44 -12 -98 -15 -120 -8 -47 7 -71 47
-80 22 -6 33 -1 57 22 23 24 31 44 41 106 18 112 21 113 160 67 130 -44 190
-49 237 -20 60 36 68 65 68 250 l0 165 36 -2 c33 -2 78 -22 164 -75 42 -25
138 -25 175 2 41 29 60 78 60 153 0 99 -2 97 100 97 l87 0 47 41 c48 43 86
103 86 138 0 32 -11 51 -30 51 -11 0 -22 5 -25 10 -7 12 -13 12 -40 0z"/>
<path d="M11757 12732 c-41 -45 -9 -183 53 -236 71 -59 137 -68 240 -32 25 9
55 16 68 16 22 0 22 -3 21 -92 -1 -105 6 -141 33 -181 46 -65 133 -71 282 -19
109 39 149 27 117 -36 -27 -53 -55 -184 -47 -223 8 -45 39 -94 73 -116 36 -24
149 -24 220 -1 43 15 60 16 105 7 81 -17 89 -16 111 13 18 24 19 31 8 52 -23
42 -88 67 -167 66 -38 -1 -86 -6 -106 -11 -81 -21 -97 27 -57 170 33 118 12
210 -59 257 -41 27 -122 21 -212 -16 -41 -17 -91 -32 -110 -33 l-35 -2 0 122
c0 135 -9 159 -75 197 -34 20 -72 18 -216 -16 -73 -16 -100 -6 -124 46 -21 47
-62 86 -90 86 -9 0 -24 -8 -33 -18z"/>
<path d="M9177 11176 c-42 -40 -86 -95 -101 -124 -14 -28 -30 -53 -36 -57 -10
-6 -153 -288 -180 -355 -64 -159 -195 -303 -410 -450 -163 -110 -213 -163
-423 -438 -89 -118 -169 -224 -177 -236 -8 -12 -32 -43 -53 -69 -41 -49 -46
-81 -15 -100 13 -8 34 -2 94 27 92 46 195 140 327 301 150 183 275 302 397
381 226 145 374 330 470 589 34 92 41 110 78 200 11 28 33 84 48 125 15 41 35
93 44 115 17 37 40 122 40 143 0 6 -7 12 -14 15 -10 4 -43 -21 -89 -67z"/>
<path d="M10159 11239 c-20 -12 -16 -122 6 -185 10 -27 21 -65 25 -84 11 -49
44 -153 73 -231 71 -189 146 -311 245 -396 168 -143 216 -199 330 -378 60 -94
74 -117 132 -220 40 -73 149 -229 187 -271 57 -60 87 -78 112 -64 50 26 34 83
-97 350 -82 168 -142 277 -179 326 -13 17 -23 34 -23 39 0 12 -90 135 -148
202 -29 34 -100 103 -157 152 -125 110 -186 198 -251 361 -30 75 -137 281
-177 342 -40 60 -56 71 -78 57z"/>
<path d="M11216 10734 c-23 -22 -20 -76 7 -115 12 -19 59 -59 103 -89 213
-145 267 -207 458 -527 123 -206 238 -345 328 -395 58 -32 135 -45 161 -25 18
13 18 14 -3 53 -12 21 -34 53 -49 69 -32 35 -159 213 -189 265 -11 19 -45 77
-76 128 -55 90 -88 146 -110 187 -12 22 -134 182 -176 229 -37 42 -189 152
-256 185 -102 51 -171 63 -198 35z"/>
<path d="M9690 9073 c-14 -1 -74 -7 -135 -13 -213 -19 -278 -37 -835 -228 -47
-16 -105 -35 -130 -42 -25 -6 -53 -16 -62 -21 -10 -5 -27 -9 -37 -9 -11 0 -30
-4 -43 -9 -30 -11 -146 -38 -227 -52 -35 -6 -143 -10 -240 -10 -172 0 -277 12
-516 56 -90 17 -405 21 -464 6 -20 -5 -61 -15 -91 -22 -55 -12 -188 -52 -225
-68 -11 -5 -51 -18 -90 -29 -69 -20 -227 -67 -275 -82 -14 -4 -45 -13 -70 -20
-25 -7 -58 -17 -75 -21 -139 -40 -278 -95 -299 -118 -16 -18 -16 -20 4 -39 12
-11 35 -23 52 -26 70 -14 296 0 398 24 25 6 64 13 88 17 23 3 45 10 48 14 3 5
15 9 26 9 12 0 35 4 52 10 17 5 85 25 151 45 66 20 129 40 140 45 11 5 34 11
50 15 17 3 50 11 75 17 62 16 378 15 475 0 245 -39 543 -57 696 -42 129 12
212 24 282 39 26 6 66 15 90 20 41 8 159 44 205 62 13 5 34 9 47 9 13 0 27 5
30 10 3 6 15 10 26 10 10 0 27 4 37 9 9 5 58 22 107 39 105 35 182 62 210 73
11 4 31 10 45 13 14 2 43 10 65 16 246 70 591 78 850 20 28 -6 68 -15 90 -20
100 -22 158 -38 275 -75 47 -15 94 -29 105 -32 11 -3 25 -9 30 -13 6 -3 28
-12 50 -18 22 -6 74 -21 115 -33 41 -12 104 -32 140 -44 101 -36 170 -55 275
-75 33 -6 78 -16 100 -20 211 -47 574 -42 828 10 26 6 68 15 95 20 26 6 70 14
97 20 58 11 102 20 240 48 159 32 351 46 453 32 83 -11 188 -32 242 -50 14 -4
45 -14 70 -21 25 -7 50 -16 55 -19 6 -4 21 -10 35 -13 38 -9 87 -22 180 -52
47 -14 108 -31 135 -36 28 -5 70 -14 95 -20 25 -6 70 -14 100 -19 30 -5 82
-14 115 -19 279 -47 709 -24 767 41 47 53 -48 86 -337 118 -55 6 -128 15 -161
20 -34 6 -79 10 -100 10 -47 0 -201 28 -394 70 -19 4 -129 39 -245 77 -340
113 -408 129 -595 139 -130 7 -273 -7 -465 -45 -102 -20 -141 -29 -195 -44
-54 -15 -127 -31 -225 -48 -257 -46 -556 -50 -740 -9 -83 18 -212 53 -280 75
-38 12 -90 28 -115 35 -25 7 -83 26 -130 42 -106 37 -153 52 -210 68 -25 7
-54 16 -65 20 -24 9 -91 27 -125 34 -14 2 -68 17 -120 31 -111 31 -162 43
-245 56 -62 9 -336 39 -345 37 -3 -1 -16 -3 -30 -5z"/>
<path d="M9165 8165 c-5 -3 -59 -9 -120 -15 -134 -13 -229 -25 -315 -40 -36
-6 -90 -15 -120 -20 -30 -4 -98 -16 -150 -25 -128 -22 -347 -44 -442 -45 -77
0 -175 -12 -274 -32 -56 -12 -101 -39 -90 -56 9 -15 125 -51 206 -63 102 -17
522 -23 615 -10 125 18 200 29 335 52 69 11 161 24 205 29 44 5 94 11 110 15
73 15 509 -37 715 -86 25 -5 63 -14 85 -19 22 -5 60 -14 85 -20 98 -24 242
-50 505 -91 181 -28 606 -28 830 0 81 10 290 49 385 72 25 5 64 14 88 20 23 5
63 14 90 20 177 39 615 83 921 92 59 2 76 6 85 20 9 15 7 21 -13 36 -41 31
-170 69 -281 81 -58 7 -129 16 -159 21 -140 23 -379 3 -656 -56 -38 -8 -95
-20 -125 -26 -30 -6 -75 -15 -100 -20 -147 -30 -375 -59 -535 -69 -152 -9
-402 1 -474 19 -20 5 -74 15 -121 21 -81 11 -110 16 -232 41 -47 9 -198 44
-298 69 -33 8 -88 19 -202 39 -85 16 -215 30 -323 36 -55 3 -127 7 -160 10
-33 2 -64 2 -70 0z"/>
<path d="M9835 6904 c-68 -18 -185 -98 -185 -128 0 -18 43 -56 64 -56 9 0 41
10 69 23 110 49 99 48 132 16 64 -60 221 -59 293 3 18 15 39 28 47 28 8 0 15
4 15 10 0 5 9 18 20 28 18 16 18 20 5 39 -26 37 -66 38 -147 4 -40 -17 -78
-31 -85 -31 -7 0 -33 14 -57 32 -35 24 -58 32 -98 34 -29 1 -62 0 -73 -2z"/>
<path d="M5030 6635 c-8 -2 -54 -9 -102 -15 -52 -7 -97 -19 -110 -29 -13 -10
-44 -28 -70 -40 -27 -13 -48 -27 -48 -32 0 -5 -26 -35 -59 -67 -71 -69 -133
-163 -151 -228 -8 -26 -29 -73 -47 -103 -65 -108 -71 -186 -23 -289 17 -37 41
-96 52 -132 11 -36 26 -72 34 -81 8 -8 14 -19 14 -24 0 -5 17 -29 38 -54 20
-25 49 -62 64 -81 67 -87 115 -130 147 -130 35 0 104 -31 138 -63 13 -11 26
-18 29 -15 3 4 21 0 40 -8 25 -10 40 -12 54 -4 12 7 21 7 25 0 8 -13 132 -13
140 0 5 8 11 8 20 0 9 -8 14 -7 18 3 3 9 26 16 61 19 42 3 68 13 108 40 30 19
64 39 77 43 31 10 43 19 105 80 55 54 156 234 175 313 6 23 16 61 22 85 7 25
9 82 5 143 -5 88 -12 118 -52 225 -25 68 -52 136 -60 150 -30 58 -197 174
-370 256 -86 41 -96 43 -175 42 -46 -1 -91 -3 -99 -4z m173 -165 c14 -11 33
-20 42 -20 9 0 31 -7 48 -16 18 -9 43 -23 57 -30 14 -7 30 -21 35 -31 6 -10
29 -41 53 -70 36 -44 42 -58 42 -100 0 -26 12 -79 25 -118 38 -107 33 -220
-17 -378 -26 -83 -75 -167 -106 -183 -12 -6 -41 -35 -63 -65 -56 -75 -101
-102 -161 -95 -26 3 -64 14 -86 25 -59 30 -202 152 -202 172 0 10 -18 36 -40
59 -22 23 -40 48 -40 55 0 8 -12 49 -26 92 -22 68 -26 101 -30 253 -6 192 6
276 42 295 10 6 44 36 74 69 42 43 66 60 95 67 22 4 67 15 100 23 86 20 128
19 158 -4z"/>
<path d="M13730 6635 c-8 -2 -54 -9 -102 -15 -52 -7 -97 -19 -110 -29 -13 -10
-44 -28 -70 -40 -27 -13 -48 -27 -48 -32 0 -5 -26 -35 -59 -67 -71 -69 -133
-163 -151 -228 -8 -26 -29 -73 -47 -103 -65 -108 -71 -186 -23 -289 17 -37 41
-96 52 -132 11 -36 26 -72 34 -81 8 -8 14 -19 14 -24 0 -5 17 -29 38 -54 20
-25 49 -62 64 -81 67 -87 115 -130 147 -130 35 0 104 -31 138 -63 13 -11 26
-18 29 -15 3 4 21 0 40 -8 25 -10 40 -12 54 -4 12 7 21 7 25 0 8 -13 132 -13
140 0 5 8 11 8 20 0 9 -8 14 -7 18 3 3 9 26 16 61 19 42 3 68 13 108 40 30 19
64 39 77 43 31 10 43 19 105 80 55 54 156 234 175 313 6 23 16 61 22 85 7 25
9 82 5 143 -5 88 -12 118 -52 225 -25 68 -52 136 -60 150 -30 58 -197 174
-370 256 -86 41 -96 43 -175 42 -46 -1 -91 -3 -99 -4z m173 -165 c14 -11 33
-20 42 -20 9 0 31 -7 48 -16 18 -9 43 -23 57 -30 14 -7 30 -21 35 -31 6 -10
29 -41 53 -70 36 -44 42 -58 42 -100 0 -26 12 -79 25 -118 38 -107 33 -220
-17 -378 -26 -83 -75 -167 -106 -183 -12 -6 -41 -35 -63 -65 -56 -75 -101
-102 -161 -95 -26 3 -64 14 -86 25 -59 30 -202 152 -202 172 0 10 -18 36 -40
59 -22 23 -40 48 -40 55 0 8 -12 49 -26 92 -22 68 -26 101 -30 253 -6 192 6
276 42 295 10 6 44 36 74 69 42 43 66 60 95 67 22 4 67 15 100 23 86 20 128
19 158 -4z"/>
<path d="M14546 6610 c-70 -40 -94 -90 -60 -124 8 -9 28 -16 43 -16 16 0 37
-10 49 -22 19 -21 21 -37 24 -178 2 -85 7 -158 13 -162 5 -4 4 -16 -4 -30 -11
-22 -11 -215 0 -433 3 -68 -52 -235 -77 -235 -25 0 -92 -48 -99 -71 -5 -14 -1
-30 13 -48 17 -24 26 -26 98 -29 130 -5 167 -7 206 -16 26 -6 45 -4 67 7 25
12 51 13 163 5 73 -5 160 -7 193 -3 33 3 111 9 174 14 107 7 115 9 137 35 21
24 24 37 23 104 -1 88 -39 294 -55 299 -32 11 -107 -102 -119 -179 -7 -48 -70
-112 -142 -145 -77 -35 -150 -29 -253 24 l-75 38 -3 60 c-2 33 2 130 8 215 12
145 11 166 -9 310 -24 175 -26 218 -10 274 13 48 59 96 91 96 13 0 33 7 44 15
10 8 33 15 50 15 23 0 34 6 42 25 19 40 14 64 -16 95 -38 38 -116 53 -229 45
-81 -6 -92 -4 -138 19 -62 32 -87 31 -149 -4z"/>
<path d="M4215 6620 c-16 -4 -60 -8 -96 -9 -40 -1 -73 -7 -85 -16 -10 -8 -26
-15 -34 -15 -32 0 -43 -43 -51 -186 -9 -167 -35 -286 -84 -388 -19 -40 -35
-76 -35 -80 0 -4 -11 -22 -25 -40 -13 -17 -36 -57 -49 -88 -14 -31 -29 -59
-35 -62 -15 -10 -91 122 -194 334 -111 228 -167 365 -167 408 0 48 -9 61 -54
72 -22 6 -63 17 -91 24 -125 36 -152 42 -190 41 -38 0 -39 -2 -47 -40 -12 -53
2 -81 49 -101 21 -9 48 -21 60 -27 54 -25 65 -141 38 -422 -8 -88 -18 -234
-23 -325 -7 -145 -11 -172 -33 -220 -32 -69 -72 -117 -113 -134 -47 -20 -83
-63 -70 -84 18 -27 197 -39 281 -18 41 11 70 13 81 7 17 -9 121 1 141 14 16 9
13 37 -5 63 -8 12 -46 38 -83 57 -58 29 -69 39 -75 66 -11 58 -6 226 9 306 9
43 16 124 15 180 0 104 10 133 45 133 18 0 55 -48 55 -70 0 -75 232 -605 303
-693 20 -26 25 -28 49 -16 33 15 52 59 68 163 9 54 20 87 37 106 12 15 23 35
23 43 0 9 4 18 9 21 10 7 47 109 55 155 3 19 26 78 51 132 25 54 45 104 45
112 0 20 57 70 72 65 13 -6 52 -220 51 -283 -4 -304 -6 -330 -27 -362 -15 -22
-33 -35 -61 -42 -49 -12 -79 -60 -62 -98 13 -29 86 -38 318 -38 200 0 209 3
209 67 0 47 -41 95 -90 105 -56 11 -72 57 -90 263 -6 69 -15 150 -21 180 -10
54 -13 106 -22 414 l-5 158 52 23 c70 31 82 46 66 85 -23 57 -87 80 -165 60z"/>
<path d="M8055 6599 c-125 -22 -222 -23 -438 -3 -168 15 -276 13 -367 -6 -25
-5 -67 -9 -93 -10 l-48 0 -26 -57 c-24 -55 -25 -64 -18 -163 7 -113 20 -187
36 -206 7 -9 21 -6 55 13 50 28 78 65 96 128 24 83 87 122 203 127 l80 3 10
-120 c7 -80 8 -187 2 -323 -6 -121 -6 -232 0 -276 5 -41 5 -88 0 -106 -5 -18
-4 -44 1 -59 17 -48 -8 -87 -96 -153 -57 -42 -75 -72 -61 -100 12 -22 56 -31
174 -34 55 -1 125 -5 156 -9 44 -6 76 -2 159 19 56 14 109 31 116 37 47 39
-37 125 -143 147 -29 6 -38 14 -45 37 -5 17 -13 134 -18 260 -6 127 -12 236
-15 243 -2 7 0 25 6 40 6 15 10 104 10 204 0 168 1 178 20 188 12 7 64 9 142
5 163 -7 185 -12 201 -44 8 -14 35 -54 60 -88 44 -61 47 -63 90 -63 103 0 104
66 3 233 -20 33 -39 73 -43 90 -15 72 -37 77 -209 46z"/>
<path d="M16047 6613 c-5 -4 -108 -8 -230 -8 -231 -1 -259 -5 -320 -48 -39
-27 -33 -59 12 -68 51 -11 112 -59 138 -109 18 -35 24 -68 29 -150 9 -175 16
-699 10 -735 -9 -48 -51 -95 -85 -95 -58 0 -95 -62 -72 -121 9 -24 16 -26 82
-32 46 -4 78 -2 86 4 16 14 223 5 232 -10 5 -7 24 -4 61 10 43 16 67 20 110
15 30 -4 109 -9 174 -12 l119 -6 34 39 c53 58 65 89 71 178 3 63 1 88 -12 113
-9 18 -21 32 -26 32 -5 0 -31 -35 -59 -77 -77 -120 -79 -122 -137 -148 -79
-35 -130 -40 -203 -19 -46 12 -73 28 -105 59 -43 42 -43 42 -55 146 -6 57 -15
118 -20 134 -11 43 5 95 42 133 36 38 53 39 182 16 93 -17 115 -30 115 -70 0
-12 6 -27 14 -33 11 -10 19 -5 38 21 21 30 23 45 27 180 3 137 2 150 -19 183
-12 19 -23 35 -26 35 -16 0 -68 -44 -105 -90 l-45 -55 -83 -3 c-68 -2 -87 0
-103 14 -10 10 -16 24 -14 31 3 7 2 15 -3 17 -4 3 -6 33 -4 68 2 35 5 106 6
158 2 52 9 105 16 118 13 25 88 62 125 62 13 0 31 -9 41 -20 10 -11 29 -20 42
-20 36 0 96 -34 132 -75 27 -31 37 -36 59 -31 15 4 33 8 40 9 23 6 29 21 42
107 12 82 12 86 -10 124 l-23 38 -106 -6 c-143 -9 -152 -9 -181 -1 -14 3 -29
3 -33 -2z"/>
<path d="M6940 6592 c-28 -14 -68 -17 -212 -17 -164 0 -178 -2 -192 -20 -12
-17 -12 -22 1 -42 9 -13 19 -23 24 -23 25 0 125 -46 153 -71 33 -28 33 -31 38
-126 3 -63 12 -112 23 -138 14 -32 18 -71 19 -190 2 -143 -3 -185 -24 -185 -5
0 -28 25 -50 56 -23 30 -50 58 -59 62 -10 4 -113 117 -228 252 -239 279 -381
427 -420 436 -18 5 -39 1 -63 -12 l-35 -20 -40 23 c-56 32 -85 29 -123 -10
-28 -29 -31 -36 -18 -46 8 -6 17 -22 20 -35 4 -16 15 -25 37 -30 42 -8 82 -53
104 -118 23 -69 33 -381 15 -473 -7 -33 -15 -141 -19 -239 l-7 -180 -29 -20
c-53 -38 -105 -88 -105 -101 0 -29 148 -57 178 -33 8 7 16 7 25 -1 17 -14 137
-6 232 15 93 21 101 25 96 60 -6 51 -17 62 -73 69 -114 14 -125 20 -154 83
-26 56 -26 58 -14 167 6 60 14 184 16 275 5 205 11 216 80 150 45 -44 204
-248 240 -309 10 -17 22 -31 26 -31 4 0 14 -13 23 -29 8 -16 37 -55 65 -87 27
-31 50 -63 50 -69 0 -7 38 -58 84 -115 47 -56 96 -126 111 -155 33 -68 63 -89
116 -80 36 6 42 12 71 68 l31 62 -12 85 c-15 102 -18 389 -5 480 14 108 7 371
-12 430 -13 40 -14 57 -6 76 7 13 16 24 21 24 6 0 30 14 55 31 34 22 46 37 46
55 0 62 -34 77 -100 46z"/>
<path d="M10520 6592 c-28 -14 -68 -17 -212 -17 -164 0 -178 -2 -192 -20 -12
-17 -12 -22 1 -42 9 -13 19 -23 24 -23 25 0 125 -46 153 -71 33 -28 33 -31 38
-126 3 -63 12 -112 23 -138 14 -32 18 -71 19 -190 2 -143 -3 -185 -24 -185 -5
0 -28 25 -50 56 -23 30 -50 58 -59 62 -10 4 -112 117 -228 252 -238 279 -381
427 -420 436 -18 5 -39 1 -63 -12 l-35 -20 -40 23 c-56 32 -85 29 -123 -10
-28 -29 -31 -36 -18 -46 8 -6 17 -22 20 -35 4 -16 15 -25 37 -30 42 -8 82 -53
104 -118 23 -69 33 -381 15 -473 -7 -33 -15 -141 -19 -239 l-7 -180 -29 -20
c-53 -38 -105 -88 -105 -101 0 -16 84 -48 107 -41 10 3 25 1 33 -4 10 -6 20
-4 32 7 13 12 21 13 31 5 17 -15 136 -7 232 14 92 20 101 26 97 60 -6 50 -18
62 -74 69 -114 14 -125 20 -154 83 -26 56 -26 58 -14 167 6 60 14 184 16 275
5 205 11 216 80 150 45 -44 204 -248 240 -309 10 -17 22 -31 26 -31 4 0 14
-13 23 -29 8 -16 37 -55 65 -87 27 -31 50 -63 50 -69 0 -7 38 -58 84 -115 47
-56 96 -126 111 -155 33 -68 63 -89 116 -80 36 6 42 12 71 68 l31 62 -12 85
c-15 103 -18 377 -5 480 14 119 7 371 -12 431 -13 39 -14 56 -6 75 7 13 16 24
21 24 6 0 30 14 55 31 34 22 46 37 46 55 0 62 -34 77 -100 46z"/>
<path d="M8604 6590 c-12 -5 -25 -14 -30 -21 -13 -21 -35 -121 -39 -175 -2
-29 -15 -79 -29 -113 -14 -33 -26 -67 -26 -75 0 -26 -111 -357 -150 -448 -20
-48 -59 -122 -86 -165 -27 -43 -58 -98 -70 -123 -12 -25 -40 -62 -63 -83 -52
-48 -53 -73 -2 -118 33 -30 41 -33 57 -23 21 14 171 20 221 9 56 -12 99 2 122
39 32 52 27 72 -26 109 -67 45 -93 73 -93 97 0 11 16 61 35 110 19 49 35 102
35 117 0 16 8 42 19 59 18 30 19 30 92 27 146 -5 213 -20 256 -57 25 -22 28
-32 30 -93 2 -37 9 -86 17 -108 33 -88 18 -121 -59 -130 -48 -6 -58 -12 -70
-36 -22 -41 -18 -70 13 -108 35 -41 100 -53 150 -27 26 13 37 14 54 5 33 -18
184 -6 241 19 93 41 86 108 -22 224 -37 40 -71 86 -75 101 -4 16 -17 45 -30
65 -12 20 -26 56 -29 78 -9 58 -99 292 -129 336 -14 20 -35 76 -47 124 -23 90
-87 244 -102 244 -5 0 -9 11 -9 25 0 38 -25 90 -51 109 -25 17 -71 20 -105 6z
m72 -454 c41 -84 41 -115 -1 -134 -60 -28 -100 -4 -109 66 -4 35 -2 58 10 83
40 81 55 78 100 -15z"/>
<path d="M11144 6590 c-12 -5 -25 -14 -30 -21 -13 -21 -35 -121 -39 -175 -2
-29 -15 -79 -29 -113 -14 -33 -26 -67 -26 -75 0 -26 -111 -357 -150 -448 -20
-48 -59 -122 -86 -165 -27 -43 -58 -98 -70 -123 -12 -25 -40 -62 -63 -83 -52
-48 -53 -73 -2 -118 33 -30 41 -33 57 -23 21 14 171 20 221 9 56 -12 99 2 122
39 32 52 27 72 -26 109 -67 45 -93 73 -93 97 0 11 16 61 35 110 19 49 35 102
35 117 0 16 8 42 19 59 18 30 19 30 92 27 146 -5 213 -20 256 -57 25 -22 28
-32 30 -93 2 -37 9 -86 17 -108 33 -88 18 -121 -59 -130 -48 -6 -58 -12 -70
-36 -22 -41 -18 -70 13 -108 35 -41 100 -53 150 -27 26 13 37 14 54 5 33 -18
184 -6 241 19 93 41 86 108 -22 224 -37 40 -71 86 -75 101 -4 16 -17 45 -30
65 -12 20 -26 56 -29 78 -9 58 -99 292 -129 336 -14 20 -35 76 -47 124 -23 90
-87 244 -102 244 -5 0 -9 11 -9 25 0 38 -25 90 -51 109 -25 17 -71 20 -105 6z
m72 -454 c41 -84 41 -115 -1 -134 -60 -28 -100 -4 -109 66 -4 35 -2 58 10 83
40 81 55 78 100 -15z"/>
<path d="M16548 6575 c-13 -30 9 -70 44 -80 45 -12 68 -29 95 -67 43 -62 53
-157 44 -418 -3 -69 -1 -168 4 -221 6 -79 5 -110 -10 -170 -10 -41 -19 -105
-19 -144 l-1 -70 -87 -42 c-49 -24 -88 -47 -88 -52 0 -6 10 -22 23 -37 20 -23
34 -27 116 -37 66 -7 99 -7 111 1 10 6 22 7 31 1 30 -19 237 -3 293 22 39 18
36 64 -5 87 -93 50 -132 126 -144 277 -4 44 -8 86 -11 93 -7 24 -9 553 -2 566
4 7 3 30 -3 51 -13 45 1 85 28 85 23 0 121 52 127 67 11 27 -9 49 -68 76 -61
27 -65 28 -125 16 -52 -11 -79 -11 -179 4 -153 22 -160 22 -174 -8z"/>
<path d="M12549 6579 c-8 -5 -31 -14 -51 -19 -44 -12 -91 -50 -124 -99 -111
-164 -114 -173 -84 -285 26 -97 52 -138 134 -209 81 -71 98 -82 184 -111 73
-24 146 -73 211 -140 32 -33 35 -41 38 -113 4 -73 3 -81 -25 -124 -61 -95
-133 -125 -234 -95 -92 26 -178 119 -178 190 0 12 -13 35 -28 49 -24 23 -33
26 -54 18 -29 -11 -68 -92 -68 -143 0 -39 43 -195 58 -210 8 -8 225 -26 357
-30 31 -1 258 87 304 117 100 67 116 225 44 425 -30 83 -80 141 -141 167 -20
8 -49 26 -64 39 -16 12 -75 45 -131 73 -79 39 -116 64 -155 105 -50 53 -52 57
-52 111 0 56 1 58 59 118 l60 62 70 0 c80 0 105 -14 158 -86 52 -70 89 -109
104 -109 8 0 22 7 33 15 18 13 18 17 1 112 -10 54 -25 105 -34 114 -31 32
-159 62 -272 65 -58 1 -112 -2 -120 -7z"/>
</g>
</svg>
