<svg width="78" height="63" viewBox="0 0 78 63" fill="currentColor" xmlns="http://www.w3.org/2000/svg">
<path d="M37.3072 0.112456C37.0647 0.257973 36.9858 0.403491 36.9858 0.71878C36.9858 1.08257 37.2344 1.3251 37.6104 1.3251C37.8468 1.3251 37.9075 1.29479 38.0651 1.11895C38.1682 1.00375 38.2652 0.821855 38.2894 0.71878C38.4107 0.173088 37.8104 -0.19677 37.3072 0.112456Z" fill="currentColor"/>
<path d="M30.2133 3.03507C30.0739 3.21697 30.0799 3.34429 30.2255 3.59289C30.4195 3.92636 30.4195 4.12645 30.2073 4.44174C30.1103 4.58119 29.9587 4.84798 29.8677 5.042C29.6676 5.44824 29.6798 5.63014 29.9526 6.01818C30.1527 6.31528 30.5953 6.56387 31.2987 6.78821C31.5291 6.85491 31.7292 6.9398 31.7473 6.97011C31.8262 7.09744 31.6928 7.33997 31.3411 7.73408C30.7469 8.39497 30.6075 8.86791 30.8803 9.27414C31.0258 9.49848 31.3169 9.66219 32.002 9.91078C32.39 10.0502 32.4567 10.0987 32.5962 10.3352C32.7175 10.5414 32.7478 10.6505 32.7114 10.8021C32.6932 10.9052 32.6568 11.1174 32.6447 11.2689C32.6144 11.5115 32.6326 11.56 32.7963 11.7176L32.9782 11.8935L33.1783 11.7722C33.6269 11.5115 33.8573 10.5232 33.5966 10.0017C33.4208 9.66825 33.1176 9.42572 32.4689 9.1165C32.0748 8.92248 31.8929 8.80727 31.8929 8.73451C31.8929 8.67995 31.9959 8.49198 32.1293 8.32221C32.5719 7.73408 32.863 7.18839 32.863 6.92767C32.863 6.44867 32.6447 6.26071 31.711 5.9333C30.753 5.59982 30.6802 5.521 30.8985 5.04806C30.9894 4.84798 31.0925 4.5145 31.135 4.30229C31.2623 3.67777 31.0986 3.35036 30.5044 3.03507C30.4256 2.99869 30.3407 2.96231 30.3164 2.96231C30.2922 2.96231 30.2437 2.99869 30.2133 3.03507Z" fill="currentColor"/>
<path d="M37.259 3.44078C36.6708 3.80457 36.6041 4.07742 36.9922 4.46547C37.2044 4.67162 37.2529 4.76257 37.2711 5.0051C37.3014 5.31432 37.2893 5.34464 36.8042 6.16924C36.4283 6.79981 36.4344 7.04234 36.8527 7.66686C37.3135 8.34594 37.3196 8.45508 36.9012 9.60103C36.6405 10.3104 36.7072 10.844 37.0831 11.1411C37.5015 11.4685 37.744 11.2017 37.8956 10.2377C37.932 9.98908 38.0351 9.55253 38.12 9.26755C38.4837 8.04278 38.4656 7.776 37.9987 7.34551C37.8229 7.18786 37.6591 7.02415 37.6349 6.98778C37.5925 6.91502 37.7986 6.19955 37.8956 6.08435C37.9259 6.04797 38.0593 5.68418 38.1988 5.26582C38.5686 4.16231 38.5504 3.62874 38.126 3.41046C37.8956 3.2892 37.4772 3.30132 37.259 3.44078Z" fill="currentColor"/>
<path d="M44.9895 3.56916C44.8985 3.66617 44.8076 3.82988 44.7894 3.92689C44.7288 4.2058 44.4438 4.48471 43.8738 4.8C43.2493 5.1456 43.122 5.3275 43.2433 5.67917C43.2796 5.80043 43.3645 5.95807 43.4191 6.02477C43.8253 6.50983 43.7223 6.81299 43.0674 7.04946C42.5945 7.22529 42.3823 7.34656 42.1883 7.56483C41.9154 7.87406 41.9579 8.23179 42.3702 8.9715C42.546 9.28073 42.6854 9.5657 42.6854 9.60814C42.6854 9.65665 42.5399 9.79611 42.3702 9.92343C41.9457 10.2387 41.8669 10.3357 41.7517 10.6813C41.6304 11.033 41.6304 11.2149 41.7396 11.4696C41.8487 11.7303 42.0367 11.8879 42.2125 11.8637C42.3216 11.8515 42.3762 11.7727 42.4732 11.4696C42.6187 11.0209 42.7218 10.8996 43.2311 10.5965C43.892 10.2023 43.989 9.978 43.7162 9.43837C43.6071 9.22616 43.4737 8.98969 43.4191 8.90481C43.2433 8.65015 43.0371 8.16509 43.0735 8.08627C43.0856 8.04383 43.2069 7.97107 43.3342 7.93469C43.8799 7.75886 44.5347 7.39506 44.6742 7.18891C44.8621 6.90394 44.844 6.72204 44.565 6.14603C44.4317 5.86713 44.3225 5.6246 44.3225 5.60641C44.3225 5.58822 44.5347 5.41238 44.7955 5.21836C45.517 4.66054 45.6564 4.46045 45.6564 3.97539C45.6564 3.42364 45.323 3.21749 44.9895 3.56916Z" fill="currentColor"/>
<path d="M23.3193 5.36215C23.198 5.48948 23.1616 5.58043 23.1616 5.79264C23.1616 6.36259 23.7437 6.61724 24.1924 6.24132C24.3682 6.0958 24.4046 6.02911 24.4046 5.81083C24.4046 5.59862 24.3682 5.52586 24.2045 5.38034C23.9377 5.13781 23.5557 5.13175 23.3193 5.36215Z" fill="currentColor"/>
<path d="M50.9742 5.69478C50.8833 5.76754 50.7681 5.91912 50.7196 6.03432C50.6407 6.21621 50.6407 6.27078 50.7135 6.44055C50.8166 6.68915 51.0227 6.84073 51.2531 6.84073C51.7928 6.84073 52.1747 6.34354 51.9565 5.91305C51.7746 5.56138 51.2956 5.45831 50.9742 5.69478Z" fill="currentColor"/>
<path d="M25.1804 8.09132C25.0652 8.17621 24.9561 8.33992 24.9136 8.47331C24.8227 8.77647 24.9318 9.00687 25.3987 9.52225C26.0657 10.268 27.1025 11.6323 27.9392 12.8813C28.3091 13.4391 28.5152 13.6513 28.7577 13.7301C28.8548 13.7605 28.9336 13.718 29.0852 13.5482C29.4004 13.2087 29.3701 13.0935 28.7032 12.1052C28.3818 11.6262 28.0665 11.1836 28.0059 11.1169C27.8119 10.8925 26.6902 9.17058 26.5083 8.80678C26.4052 8.6067 26.1991 8.32779 26.0475 8.18833C25.714 7.87911 25.4775 7.85486 25.1804 8.09132Z" fill="currentColor"/>
<path d="M49.7192 8.15595C49.4403 8.2469 49.3069 8.38029 48.8825 9.01693C48.6278 9.39892 48.2034 9.98705 47.9427 10.3205C47.4637 10.9511 46.8634 11.7393 46.2632 12.5397C45.6144 13.4067 45.4992 13.722 45.7478 13.9706C45.8569 14.0797 45.96 14.1161 46.1601 14.1161C46.4026 14.1161 46.4572 14.0858 46.6633 13.8554C46.7967 13.7099 47.1484 13.2551 47.4455 12.8428C47.7487 12.4305 48.0761 11.994 48.1731 11.8667C48.2762 11.7454 48.4641 11.5029 48.5975 11.327C48.7309 11.1512 49.1068 10.6904 49.4403 10.3023C50.1315 9.4838 50.3377 9.19277 50.4468 8.90173C50.5135 8.71377 50.5074 8.66527 50.3862 8.45912C50.2164 8.16808 49.986 8.06501 49.7192 8.15595Z" fill="currentColor"/>
<path d="M18.0501 9.80134C17.9167 9.94686 17.9228 9.97111 18.0744 10.3652C18.4867 11.4081 18.6807 11.687 19.1051 11.875C19.4204 12.0084 19.4265 12.0084 19.8509 11.9053C20.0874 11.8447 20.3905 11.7961 20.5239 11.7901L20.7665 11.784L20.7846 12.0872C20.7968 12.2509 20.7725 12.4934 20.7361 12.6207C20.6998 12.7481 20.6694 13.0937 20.6634 13.3968C20.6573 13.9183 20.6694 13.9547 20.8392 14.1669C21.0393 14.4155 21.4273 14.5974 21.7669 14.5974C21.9245 14.6034 22.1125 14.5246 22.4642 14.3003C23.1372 13.8758 23.1251 13.8758 23.1917 14.5428C23.2706 15.4159 23.3858 15.6948 23.7556 15.8828C23.9254 15.9677 24.0042 15.9677 24.5075 15.8949C25.2654 15.7797 25.3139 15.7979 25.52 16.2587C25.7201 16.6952 25.8293 16.8104 26.0112 16.7559C26.1749 16.7074 26.284 16.4345 26.3325 15.998C26.3628 15.7191 26.3507 15.6221 26.2355 15.422C26.1627 15.2886 26.0051 15.1188 25.8899 15.04C25.6898 14.9066 25.6352 14.8945 24.9501 14.9187L24.2225 14.9369L24.2104 14.7247C24.1012 13.1179 23.5737 12.6814 22.452 13.2756C22.1913 13.415 21.9548 13.5484 21.9245 13.5787C21.8154 13.6818 21.6456 13.6333 21.6153 13.4939C21.5971 13.4211 21.6274 13.0997 21.682 12.7845C21.8396 11.8628 21.8457 11.778 21.7366 11.4566C21.5486 10.8806 20.9787 10.6138 20.3117 10.7836C20.1601 10.82 19.9722 10.8685 19.8873 10.8806C19.8024 10.8988 19.6751 10.9412 19.6023 10.9776C19.4083 11.0746 19.3113 10.9655 19.0384 10.3834C18.802 9.86804 18.7231 9.78921 18.3715 9.72252C18.2017 9.6922 18.135 9.71039 18.0501 9.80134Z" fill="currentColor"/>
<path d="M55.727 11.3656C55.5087 11.493 55.4057 11.5172 55.2116 11.4869C54.3749 11.3656 54.2233 11.3717 53.9384 11.5354C53.5442 11.7658 53.3563 12.1478 53.3563 12.7177C53.3563 13.0694 53.2593 13.6879 53.1683 13.9243C53.0834 14.1487 52.95 14.1487 52.6105 13.9304C52.083 13.5908 51.6404 13.3908 51.416 13.3908C50.9431 13.3908 50.5611 13.9304 50.3125 14.9611C50.2458 15.2401 50.2095 15.3007 50.0397 15.3674C49.9306 15.4159 49.7062 15.4523 49.5364 15.4523C49.2757 15.4523 49.203 15.4826 48.9968 15.6645C48.8695 15.7857 48.6997 16.004 48.633 16.1556C48.5239 16.386 48.5118 16.4588 48.5663 16.6528C48.6694 16.9984 48.8331 17.2409 48.9786 17.2591C49.0878 17.2773 49.1363 17.2288 49.2272 17.0105C49.3667 16.6952 49.5668 16.483 49.7426 16.483C49.8093 16.483 50.0579 16.4224 50.2883 16.3496C50.9613 16.1374 51.0583 16.004 51.3857 14.8278C51.4949 14.4155 51.5919 14.3912 51.986 14.6519C52.6226 15.0824 53.0167 15.1248 53.5806 14.8399C54.0172 14.6155 54.1384 14.3306 54.1991 13.3847C54.2294 12.9724 54.2718 12.5844 54.2961 12.5298C54.3628 12.3721 54.769 12.263 54.9691 12.3479C55.1753 12.4449 55.5694 12.4388 55.7695 12.3358C55.9756 12.2266 56.3091 11.8204 56.3637 11.6082C56.3879 11.493 56.3697 11.4081 56.297 11.3293C56.1575 11.1716 56.0544 11.1777 55.727 11.3656Z" fill="currentColor"/>
<path d="M37.531 13.1193C37.0944 13.1921 36.2213 13.4528 36.003 13.5741C35.9424 13.6104 35.8697 13.6347 35.8333 13.6347C35.803 13.6347 35.6211 13.7075 35.427 13.7923C34.6752 14.1379 33.9719 14.2592 33.408 14.1501C33.1897 14.1076 32.9654 14.0531 32.9047 14.0288C32.8017 13.9864 32.5349 14.0409 32.1104 14.1986C31.7466 14.332 30.8008 15.4234 30.8008 15.7083C30.8008 15.7568 30.8796 15.872 30.9766 15.963C31.1464 16.1267 31.1646 16.1267 31.3889 16.0539C31.5162 16.0115 31.783 15.8175 31.9831 15.6234C32.4742 15.1566 32.6561 15.0899 33.1958 15.1626C33.4322 15.199 33.893 15.2111 34.2265 15.1929C34.851 15.1626 34.8632 15.1626 36.5305 14.5442C37.0156 14.3683 37.7735 14.1804 38.1676 14.1379C38.5617 14.1016 39.4106 14.2228 40.1503 14.429C40.3928 14.4896 40.7445 14.5866 40.9264 14.6351C41.4115 14.7685 41.7389 14.7564 41.9329 14.5866L42.0905 14.4472L41.9632 14.1865C41.8177 13.9075 41.7086 13.8469 40.7809 13.5013C39.5622 13.0526 38.6284 12.9435 37.531 13.1193Z" fill="currentColor"/>
<path d="M43.5222 15.1046C43.4373 15.1835 43.3464 15.335 43.3221 15.4442C43.2675 15.6988 43.4919 16.0505 43.8557 16.2809C44.4256 16.6508 45.0441 17.1601 45.4806 17.627C45.7353 17.8998 45.9839 18.1181 46.0384 18.1181C46.1779 18.1181 46.4386 17.8149 46.4811 17.6027C46.5781 17.057 45.6443 16.093 44.0497 15.0986C43.7708 14.9288 43.7102 14.9288 43.5222 15.1046Z" fill="currentColor"/>
<path d="M37.9617 15.4573C37.6828 15.4815 37.313 15.5361 37.1432 15.5786C36.5611 15.7119 35.779 15.9605 35.2878 16.1667C35.0392 16.2698 34.73 16.3971 34.3783 16.5547C34.1964 16.6396 33.8812 16.767 33.6811 16.8458C33.481 16.9246 33.2506 17.0337 33.1657 17.0883C33.0808 17.1429 32.8383 17.2763 32.62 17.3915C32.1713 17.6219 31.4559 18.0706 31.2861 18.2282C31.2255 18.2828 31.0254 18.4525 30.8495 18.5981C30.0734 19.2468 29.3762 20.2169 28.9457 21.2356C28.5758 22.1147 28.4849 22.4421 28.3697 23.4244C28.2969 24.0489 28.3333 25.3889 28.4364 25.88C28.7274 27.2564 29.1154 28.1234 29.5277 28.3356C29.7157 28.4326 29.8552 28.372 30.0067 28.1173C30.1159 27.9354 30.1159 27.9233 29.9704 27.4686C29.5581 26.2074 29.4065 25.3525 29.4065 24.2793C29.4065 23.5457 29.552 22.5452 29.7218 22.1329C30.0674 21.278 30.225 20.9809 30.5706 20.514C31.3164 19.5197 32.5472 18.5435 33.8327 17.9432C34.4147 17.6704 35.9366 17.0459 36.2216 16.9549C37.2766 16.6336 37.5615 16.5851 38.4104 16.5911C39.4715 16.5911 40.0535 16.7306 41.0055 17.2156C43.0245 18.2343 44.4918 20.1502 44.9526 22.3633C45.183 23.4729 45.0436 24.6613 44.4979 26.2135C44.0492 27.4989 43.6854 28.1052 42.9457 28.7904C42.5577 29.1481 42.3333 29.2936 41.6785 29.6089C41.248 29.8211 40.8539 30.0333 40.8175 30.0818C40.7751 30.1303 40.7266 30.2516 40.7084 30.3547C40.672 30.5184 40.6962 30.5548 40.8721 30.6639C41.1328 30.8215 41.4117 30.8215 41.9028 30.6639C43.17 30.2516 44.2614 29.3118 44.9708 28.0021C45.7409 26.5773 46.135 25.11 46.1532 23.6366C46.1653 22.8363 46.0925 22.1269 45.9591 21.6964C45.9349 21.6115 45.8803 21.4235 45.8318 21.2719C45.7894 21.1204 45.7348 20.9748 45.7045 20.9385C45.6802 20.9081 45.656 20.8415 45.656 20.7869C45.656 20.6535 45.1103 19.5985 44.7829 19.0952C44.413 18.5374 43.7339 17.731 43.358 17.4097C42.4788 16.6578 41.2662 15.9605 40.4719 15.7544C40.3749 15.7241 40.1384 15.6634 39.9565 15.6149C39.7746 15.5604 39.4169 15.5058 39.1683 15.4815C38.9197 15.4634 38.659 15.4391 38.5923 15.427C38.5256 15.4209 38.2406 15.433 37.9617 15.4573Z" fill="currentColor"/>
<path d="M14.8432 15.8591C14.6916 16.0349 14.6128 16.2229 14.6128 16.4169C14.6128 16.805 15.2009 17.1991 15.5526 17.0414C15.7466 16.9505 15.9467 16.6291 15.9467 16.4048C15.9467 16.1926 15.8012 15.9016 15.6496 15.8167C15.4495 15.7136 14.9463 15.7439 14.8432 15.8591Z" fill="currentColor"/>
<path d="M59.1652 16.3307C58.9894 16.4277 58.8378 16.7793 58.8681 17.0219C58.8924 17.2462 59.044 17.4342 59.2501 17.5069C59.5472 17.61 59.7049 17.5858 59.9171 17.3978C60.0869 17.2462 60.105 17.1977 60.099 16.9127C60.0929 16.5489 60.0323 16.4519 59.7352 16.3246C59.4745 16.2215 59.3714 16.2215 59.1652 16.3307Z" fill="currentColor"/>
<path d="M29.5036 16.4896C29.4127 16.5624 29.2793 16.7443 29.2005 16.8959C29.0307 17.2233 28.8428 17.4112 28.1637 17.9206C27.2178 18.6421 27.1329 18.7876 27.1329 19.7577C27.1269 20.5944 27.0905 20.7218 26.666 21.4554C26.4114 21.892 26.3811 22.0557 26.5448 22.2012C26.757 22.3952 27.0117 22.4437 27.2178 22.3407C27.43 22.2255 27.8363 21.704 27.9454 21.3948C27.9878 21.2796 28.0485 21.128 28.0727 21.0613C28.2 20.7521 28.2667 20.164 28.2304 19.7577L28.1879 19.3272L28.4062 19.115C28.5275 19.0059 28.8246 18.7633 29.061 18.5814C29.637 18.1449 29.9099 17.8539 30.0978 17.4779C30.3464 16.9807 30.2979 16.6048 29.9705 16.4351C29.7826 16.332 29.6855 16.3441 29.5036 16.4896Z" fill="currentColor"/>
<path d="M17.8136 16.8163C17.6256 16.9194 17.4619 17.2165 17.4619 17.453C17.4619 17.647 17.7651 17.9441 18.0682 18.0532C18.1834 18.0957 18.4442 18.2109 18.6442 18.3018C19.0444 18.4898 19.1839 18.5262 19.7659 18.605C20.5845 18.7141 20.8695 18.8475 21.494 19.3932C22.2276 20.0359 22.5429 20.2178 23.0583 20.2906C23.4645 20.3512 23.5494 20.3451 23.8647 20.236C24.4831 20.0299 24.6044 19.8358 24.3376 19.5205C24.186 19.3386 24.1679 19.3326 23.6525 19.3326C23.1674 19.3326 23.1007 19.3205 22.8279 19.1446C22.6642 19.0415 22.3004 18.7323 22.0093 18.4534C21.3121 17.7865 21.1847 17.7258 20.1661 17.6106C19.487 17.5379 19.293 17.4954 19.1232 17.3802C19.008 17.3014 18.9171 17.2226 18.9171 17.1983C18.9171 17.1741 18.8201 17.0589 18.7049 16.9376C18.523 16.7618 18.4442 16.7254 18.2319 16.7254C18.0925 16.7315 17.9045 16.7678 17.8136 16.8163Z" fill="currentColor"/>
<path d="M56.2789 17.7027L55.6544 18.0241L54.8237 18.0604C53.8597 18.1089 53.5323 18.2181 53.023 18.6789C52.8593 18.8305 52.4894 19.1215 52.2166 19.3216C51.7497 19.6672 51.683 19.6975 51.398 19.6975C50.9615 19.6975 50.6886 19.8491 50.5855 20.1401C50.531 20.316 50.5249 20.4069 50.5734 20.5039C50.7553 20.8617 51.1009 20.9344 51.6587 20.7222C52.453 20.4312 52.8289 20.2008 53.4474 19.6429C53.9931 19.1458 54.1507 19.0973 55.1148 19.0912C55.8666 19.0851 55.9576 19.073 56.2365 18.9335C56.4063 18.8487 56.6609 18.7395 56.8125 18.691C56.9641 18.6365 57.1763 18.5091 57.2854 18.406C57.6371 18.0665 57.5158 17.539 57.055 17.4238C56.9398 17.3995 56.7397 17.4723 56.2789 17.7027Z" fill="currentColor"/>
<path d="M36.8946 17.8483C36.3671 17.9332 36.1427 17.9938 35.6819 18.1514C35.2575 18.297 34.3965 18.7153 34.0934 18.9215C33.9539 19.0124 33.8266 19.0913 33.8023 19.0913C33.7841 19.0913 33.5841 19.2125 33.3658 19.3641C32.0137 20.2918 31.274 21.2013 30.801 22.517C30.5161 23.3052 30.4857 23.5235 30.4736 24.4875C30.4676 25.5062 30.5161 25.7729 30.8617 26.737C31.1224 27.4464 31.3043 27.7981 31.6681 28.2771C32.2077 28.9865 33.2627 29.6898 33.9418 29.7989C34.154 29.8353 34.1964 29.8171 34.2874 29.6837C34.3662 29.5564 34.3723 29.4897 34.3177 29.2836C34.2813 29.1441 34.2268 29.035 34.1904 29.035C34.1116 29.035 33.6993 28.7015 33.1172 28.1558C32.2259 27.3191 31.7166 26.2459 31.5893 24.9423C31.4498 23.4447 31.8924 22.2866 33.0626 21.0497C33.2991 20.8071 33.6689 20.4737 33.8872 20.3221C34.4754 19.9037 35.5364 19.3823 36.2579 19.1458C36.8643 18.9518 36.937 18.9397 37.7738 18.9397C38.5559 18.9457 38.7075 18.9639 39.1501 19.1034C40.1687 19.4308 41.0843 20.0796 41.824 20.989C42.0847 21.3104 42.5031 22.1289 42.6183 22.5473C42.6607 22.6989 42.7214 22.8808 42.7517 22.9596C42.8244 23.1354 42.8244 24.2329 42.7517 24.4633C42.7214 24.5603 42.6668 24.7846 42.6243 24.9605C42.4606 25.682 41.9453 26.4642 41.3086 26.9735C40.4052 27.695 39.3441 28.0709 38.2285 28.0709C37.2584 28.0709 36.4883 27.8284 35.6213 27.2524C34.2692 26.355 33.6326 24.8149 34.0752 23.4932C34.3783 22.5716 35.4697 21.5772 36.4702 21.2922C37.3008 21.0557 37.4524 21.0436 38.1072 21.177C38.8227 21.3165 39.1804 21.4923 39.6352 21.9046C40.0596 22.2926 40.2779 22.614 40.4355 23.093C40.7933 24.1722 40.3567 25.0939 39.2289 25.6699C38.7742 25.9003 38.3194 25.973 37.9132 25.8881C36.8643 25.6577 36.2822 24.9362 36.5005 24.148C36.5914 23.8327 36.7733 23.6326 37.1432 23.4568C37.3857 23.3476 37.4463 23.3416 37.6404 23.4022C37.7677 23.4447 37.9253 23.5114 37.992 23.5599C38.1982 23.6872 38.4407 24.0995 38.4407 24.3056C38.4407 24.5421 38.6408 24.7483 38.8227 24.6937C39.2289 24.5724 39.3502 24.3723 39.3502 23.8024C39.3502 22.9293 38.5741 22.3108 37.4706 22.3048C36.7794 22.3048 35.8517 22.8444 35.5849 23.4022C35.5304 23.5174 35.4515 23.6872 35.403 23.7842C35.3485 23.8994 35.3181 24.1662 35.3242 24.5421C35.3242 25.0817 35.3424 25.1484 35.5304 25.5062C36.2761 26.9068 38.2831 27.41 39.8595 26.5975C40.6599 26.1792 41.1389 25.6759 41.4541 24.8938C41.6603 24.3845 41.7209 23.96 41.6542 23.4022C41.4663 21.7348 40.2415 20.4797 38.4589 20.122C38.1254 20.0553 37.6767 20.0007 37.4706 20.0007C36.6824 20.0007 35.4697 20.4009 34.73 20.9042C34.5845 21.0012 34.2995 21.2558 34.0994 21.468C33.7114 21.8622 33.1051 22.7171 33.1051 22.8626C33.1051 22.9111 33.0808 22.9717 33.0566 23.002C32.8565 23.2324 32.7413 24.2147 32.8383 24.9241C32.9656 25.8942 33.2385 26.5127 33.8508 27.1857C34.8149 28.2589 35.7911 28.8409 37.0462 29.1017C37.5737 29.2169 39.0288 29.1987 39.4715 29.0774C40.0111 28.9319 40.387 28.7985 40.7933 28.6045C41.0055 28.5075 41.1874 28.4286 41.1995 28.4286C41.2783 28.4286 41.9089 28.0103 42.1939 27.7677C42.97 27.1129 43.6005 25.973 43.8431 24.7907C44.025 23.9176 43.8673 22.5352 43.4975 21.6378C42.9578 20.3463 41.8604 19.1216 40.6841 18.5031C39.4169 17.8362 38.2406 17.6361 36.8946 17.8483Z" fill="currentColor"/>
<path d="M47.5055 20.241C47.1963 20.3623 47.1114 20.7564 47.2994 21.2233C47.3661 21.3991 47.4813 21.678 47.548 21.8478C47.6996 22.2298 47.7299 23.2363 47.5965 23.6061C47.4752 23.9457 47.4934 24.9522 47.6207 25.2008C47.8572 25.6616 48.409 25.6312 48.7546 25.1401C48.9061 24.9279 48.8758 24.7218 48.6576 24.5338C48.4696 24.3701 48.4575 24.0669 48.6272 23.5152C48.8455 22.8058 48.7849 22.06 48.4453 21.2415C48.4211 21.1748 48.3605 20.9989 48.318 20.8474C48.2271 20.5442 47.9118 20.1804 47.742 20.1865C47.6753 20.1865 47.5722 20.2107 47.5055 20.241Z" fill="currentColor"/>
<path d="M16.6374 22.6604C16.504 22.7392 16.3646 22.9454 16.1645 23.3395C16.0068 23.6548 15.8189 23.964 15.7522 24.0307L15.6309 24.1519L15.5036 23.9761C14.873 23.1333 14.6547 22.9696 14.1454 22.9696C13.7453 22.9696 13.5815 23.103 13.5815 23.4304V23.6911L13.9514 23.77C14.3455 23.8488 14.491 23.97 14.7942 24.4854C15.0367 24.8977 15.2974 25.0614 15.6976 25.0614C16.2372 25.0614 16.3706 24.9341 16.7708 24.0307C16.9103 23.7154 17.0315 23.5759 17.1649 23.5759C17.2741 23.5759 17.5833 23.9276 17.5833 24.0549C17.5833 24.0913 17.6075 24.1701 17.6379 24.2308C17.6682 24.2853 17.7531 24.4551 17.8197 24.6067C17.9956 24.9705 18.3109 25.2191 18.6504 25.2615C19.184 25.3221 19.4386 25.1402 19.8509 24.4248C20.0025 24.1641 20.1541 23.9337 20.1844 23.9155C20.2875 23.8488 20.433 23.9519 20.5361 24.1459C20.718 24.5036 21.0696 24.9038 21.2576 24.9705C21.5486 25.0736 21.9246 24.9826 22.2095 24.7461C22.4521 24.54 22.4703 24.5339 22.8583 24.5642C23.0766 24.5824 23.307 24.6067 23.3737 24.6188C23.4464 24.6309 23.501 24.6006 23.5131 24.5279C23.5859 24.158 23.0523 23.6972 22.5491 23.6972C22.2641 23.6972 21.9731 23.7942 21.7245 23.9761C21.5971 24.0671 21.585 24.061 21.4334 23.8063C21.0757 23.2364 20.9484 23.0787 20.7059 22.9332C20.142 22.6058 19.6933 22.8362 19.1658 23.7154C19.0142 23.9579 18.7777 24.1519 18.6868 24.0974C18.6565 24.0792 18.5049 23.8488 18.3472 23.582C18.038 23.0545 17.7894 22.7816 17.4923 22.6361C17.2256 22.5149 16.8678 22.5209 16.6374 22.6604Z" fill="currentColor"/>
<path d="M58.2375 22.8974C57.9707 23.0429 57.904 23.1217 57.6615 23.5825C57.1279 24.5951 56.9945 24.6375 56.6429 23.9281C56.3458 23.3218 56.1093 23.0368 55.8001 22.8974C55.309 22.6791 54.9512 22.8731 54.4419 23.6189C53.9993 24.2737 53.9569 24.2798 53.3808 23.7523C53.2414 23.631 53.0352 23.4795 52.9261 23.4188C52.629 23.2673 52.1136 23.2794 51.8044 23.4431C51.5376 23.5825 51.1738 24.013 51.1738 24.1949C51.1738 24.3344 51.3921 24.4435 51.5922 24.4071C52.6169 24.2131 52.6593 24.2192 52.8533 24.5102C53.0595 24.8255 53.6294 25.1711 53.9872 25.2014C54.3995 25.2317 54.6177 25.0802 55.0543 24.4556C55.4787 23.8433 55.5939 23.8129 55.8122 24.2374C55.8971 24.4071 55.9638 24.5708 55.9638 24.6072C55.9638 24.6436 56.0547 24.8134 56.1639 24.9771C56.4307 25.3894 56.752 25.547 57.2128 25.4864C57.6736 25.4318 57.8616 25.2439 58.2678 24.4496C58.4497 24.0919 58.6437 23.7705 58.7044 23.7341C58.7832 23.6856 58.8741 23.7402 59.1409 23.9827C59.4805 24.2919 59.8139 24.4253 60.2566 24.4253C60.4567 24.4253 60.778 24.2374 60.8932 24.0494C61.0266 23.8433 61.069 23.4552 60.966 23.4552C60.9175 23.4552 60.8629 23.4795 60.8447 23.5158C60.8265 23.5462 60.6567 23.5765 60.4688 23.5765C60.1171 23.5765 59.9291 23.4855 59.5775 23.1399C59.335 22.8974 58.9833 22.7276 58.7408 22.7276C58.6316 22.7276 58.4073 22.8064 58.2375 22.8974Z" fill="currentColor"/>
<path d="M26.0115 24.7002C25.8842 24.8336 25.8781 24.8881 25.9024 25.2883C25.9205 25.5612 26.0054 25.931 26.1206 26.2463C26.2176 26.5313 26.3995 27.0285 26.5147 27.3559C26.6663 27.7803 26.7391 28.1016 26.7694 28.4776C26.8118 29.1385 26.8907 29.4538 27.115 29.9206C27.2969 30.3026 27.4303 30.4178 27.8911 30.5755C28.2549 30.7028 28.2973 30.6967 28.4671 30.5209C28.5702 30.4178 28.6187 30.3087 28.6187 30.1571C28.6187 29.8782 28.5459 29.7448 28.267 29.4901C28.0002 29.2537 27.8911 28.9141 27.8911 28.3199C27.8911 28.0956 27.8487 27.8046 27.8002 27.6712C27.7516 27.5378 27.6001 27.1133 27.4667 26.7314C27.3272 26.3494 27.1332 25.7673 27.0422 25.4338C26.8058 24.6335 26.7451 24.5486 26.4177 24.5486C26.2176 24.5486 26.1206 24.585 26.0115 24.7002Z" fill="currentColor"/>
<path d="M47.5298 27.0055C47.3539 27.0964 47.2327 27.3693 47.2327 27.6482C47.2327 28.0847 46.8264 28.8366 46.2929 29.4004C46.1473 29.552 45.8684 29.9219 45.6623 30.225C45.1287 31.0254 44.674 31.4134 43.8979 31.7166C43.6068 31.8318 43.5705 31.8621 43.4189 32.1471L43.2612 32.426L43.3825 32.6564C43.4856 32.8565 43.5341 32.8868 43.7402 32.905C44.0009 32.9292 44.4254 32.7474 45.0074 32.3593C45.2015 32.232 45.3894 32.1289 45.4197 32.1289C45.5471 32.1289 46.3777 31.2012 46.687 30.7162C46.8689 30.4251 47.2205 29.934 47.4631 29.6248C48.1543 28.7395 48.3725 28.1939 48.2877 27.533C48.221 26.9933 47.9239 26.7872 47.5298 27.0055Z" fill="currentColor"/>
<path d="M23.4646 28.4266C23.3798 28.4933 23.1675 28.6024 22.9856 28.6752C22.6582 28.8146 22.6582 28.8146 22.1671 28.7055C21.3486 28.5236 21.0818 28.4872 20.8574 28.5236C20.6452 28.5599 20.2572 28.8025 19.6448 29.2633C19.4629 29.4027 19.1476 29.5604 18.9051 29.6392C18.4867 29.7726 18.3655 29.7726 17.6682 29.6635C17.4438 29.6331 17.4075 29.6453 17.2862 29.7908C17.0134 30.1425 17.1649 30.4759 17.6742 30.6639C18.0744 30.8155 18.3897 30.8215 18.8869 30.6942C19.087 30.6396 19.3174 30.5851 19.4023 30.5669C19.6205 30.5123 20.0995 30.2395 20.5422 29.906C20.9181 29.6271 20.9423 29.621 21.3364 29.6271C21.5547 29.6331 21.8336 29.6635 21.9488 29.6998C22.2581 29.7908 22.8886 29.7726 23.21 29.6695C23.6587 29.5179 24.0528 29.2027 24.1377 28.9177C24.2286 28.6085 24.1862 28.5114 23.9133 28.3962C23.6405 28.281 23.6465 28.281 23.4646 28.4266Z" fill="currentColor"/>
<path d="M50.8097 28.385C50.6885 28.4457 50.6521 28.5124 50.64 28.7125C50.6036 29.1672 50.8704 29.4825 51.5191 29.7493C51.9375 29.9251 52.1073 29.919 52.6651 29.6947C53.1987 29.4825 53.1441 29.4522 53.5806 30.0888C54.0415 30.7558 54.5386 30.9255 55.2905 30.677C55.7392 30.5314 56.0059 30.5193 56.1697 30.6406C56.297 30.7376 56.4486 31.0044 56.4486 31.1499C56.4546 31.2954 56.6426 31.5076 56.8124 31.5501C57.0609 31.6107 57.2368 31.3742 57.2428 30.968C57.255 30.3617 56.9094 29.8524 56.3455 29.6401L56.012 29.5128L55.5209 29.6705C55.2541 29.7553 54.9328 29.822 54.8054 29.822C54.5629 29.822 54.5386 29.7917 54.1263 29.1551C54.0536 29.0399 53.8535 28.8519 53.6898 28.7428C53.4169 28.5609 53.3684 28.5427 53.0835 28.5851C52.9198 28.6033 52.6833 28.6579 52.5681 28.7003C52.1133 28.864 51.8466 28.9247 51.7556 28.8944C51.701 28.8701 51.598 28.761 51.5313 28.6458C51.4646 28.5245 51.3312 28.4093 51.222 28.3729C50.9916 28.2941 50.9977 28.288 50.8097 28.385Z" fill="currentColor"/>
<path d="M30.7407 29.7127C30.5952 29.9552 30.5892 30.0462 30.7165 30.2947C30.7892 30.4463 30.8802 30.507 31.153 30.5918C31.341 30.6464 31.6138 30.7737 31.7533 30.8647C32.111 31.1072 32.3172 31.0708 32.4869 30.7495C32.6385 30.4706 32.299 30.0825 31.5835 29.7127C31.0803 29.458 30.8984 29.458 30.7407 29.7127Z" fill="currentColor"/>
<path d="M14.6609 30.5257C14.3396 30.6955 14.2789 31.0592 14.5093 31.3988C14.7519 31.7626 15.2673 31.7868 15.5462 31.4534C15.7766 31.1805 15.7462 30.8955 15.4431 30.5621C15.2976 30.4044 14.9156 30.3802 14.6609 30.5257Z" fill="currentColor"/>
<path d="M59.1223 30.885C58.813 31.2366 58.8919 31.7035 59.2799 31.8611C59.7528 32.0612 60.2379 31.6974 60.1954 31.176C60.1712 30.891 59.8862 30.6727 59.5406 30.6727C59.3527 30.6727 59.2738 30.7152 59.1223 30.885Z" fill="currentColor"/>
<path d="M29.2307 31.5198C28.9457 31.5865 28.8487 31.7077 28.8123 32.0594C28.788 32.3504 28.7941 32.3686 28.9881 32.4838C29.4489 32.7627 30.0068 32.5323 30.0249 32.0533C30.031 31.8048 29.9522 31.6774 29.7036 31.544C29.5156 31.4531 29.5217 31.4531 29.2307 31.5198Z" fill="currentColor"/>
<path d="M37.0767 31.7006C36.9797 31.7309 36.719 31.7976 36.5007 31.8522C35.9732 31.9856 35.2214 32.3554 34.7424 32.7253C34.2391 33.1073 33.1477 34.229 32.2261 35.3082C31.832 35.7751 31.1347 36.5269 30.6861 36.9817C29.6371 38.0306 28.9823 38.4732 27.6181 39.0674C26.8298 39.407 25.8597 39.9345 25.4474 40.2437C25.1867 40.4377 24.5501 41.0137 24.0226 41.5291C22.3915 43.1298 21.0213 44.3849 19.7722 45.4217C19.4206 45.7188 18.9598 46.1008 18.7597 46.2706C18.5535 46.4464 18.2443 46.695 18.0685 46.8284C17.8926 46.9618 17.6198 47.18 17.4682 47.3134C17.3106 47.4468 16.9528 47.7197 16.68 47.9198C15.9403 48.4473 15.5765 48.714 14.7943 49.2961C14.2001 49.7327 13.139 50.4966 12.6964 50.7998C12.6237 50.8483 11.8718 51.3697 11.029 51.9518C10.1802 52.5339 9.3859 53.0796 9.25251 53.1645C8.93115 53.3706 6.71807 54.8076 6.45129 54.9834C6.32396 55.0683 5.81465 55.3836 5.45692 55.5898C5.37203 55.6383 5.20832 55.7413 5.09312 55.808C4.602 56.1051 3.20139 56.7842 2.71027 56.9601C2.589 57.0025 2.38285 57.0874 2.25553 57.1419C2.13426 57.1965 1.97662 57.2632 1.90992 57.2875C1.84323 57.3117 1.46124 57.4633 1.06107 57.6209C0.212213 57.9605 0 58.1181 0 58.4395C0 58.8882 0.388047 59.0276 1.10351 58.8397C1.49762 58.7305 2.5405 58.3849 2.67995 58.3122C2.74058 58.2818 2.84366 58.2576 2.90429 58.2576C2.97099 58.2576 3.04375 58.2273 3.06194 58.197C3.08013 58.1606 3.14076 58.1363 3.18926 58.1363C3.30447 58.1363 4.36553 57.6634 5.17194 57.2511C6.41491 56.6205 10.2833 54.2013 11.3443 53.3888C11.4898 53.2797 11.6535 53.1705 11.7021 53.1463C11.7506 53.122 12.078 52.8977 12.4296 52.6491C12.7813 52.4005 13.2967 52.0306 13.5817 51.8366C15.4249 50.5451 15.8311 50.2541 17.4318 49.0718C18.1109 48.5685 19.4751 47.4953 20.2391 46.8587C20.421 46.7071 20.6878 46.4888 20.8333 46.3736C21.1061 46.1493 21.6094 45.7067 22.7068 44.7062C23.0767 44.3788 24.0044 43.4875 24.7683 42.7357C25.9446 41.5715 26.848 40.7955 27.0057 40.7955C27.0239 40.7955 27.1573 40.7469 27.3028 40.6803C27.4422 40.6196 27.7515 40.4923 27.9819 40.4013C28.667 40.1285 29.5522 39.6738 30.0979 39.3221C31.0074 38.7279 32.3292 37.3818 34.1785 35.1688C35.1122 34.0531 35.858 33.4832 36.7493 33.1921C37.7558 32.8647 38.4955 33.0466 39.3686 33.8349C39.6112 34.0531 40.1083 34.6413 40.5813 35.2718C43.334 38.9401 44.8195 40.2861 46.9901 41.0622C47.2387 41.1532 47.4934 41.2502 47.5479 41.2866C47.6086 41.3169 47.6813 41.3411 47.7177 41.3411C47.845 41.3411 48.706 41.7716 49.0698 42.0142C49.7368 42.4689 50.0702 42.7781 52.6168 45.3247C55.1452 47.8531 55.7394 48.3988 56.57 48.9626C57.0127 49.2658 58.7285 50.2541 58.8074 50.2541C58.8801 50.2541 60.2929 50.9878 60.8446 51.3152C61.6086 51.7639 62.1785 52.1519 63.5124 53.1341C64.4462 53.8193 64.81 54.0861 64.9312 54.1649C64.9797 54.1952 65.2162 54.3529 65.4527 54.5044C66.0893 54.9167 67.3626 55.6504 67.4475 55.6504C67.4839 55.6504 67.5445 55.6746 67.5809 55.705C67.6112 55.7292 67.8901 55.8565 68.1993 55.9778C68.5086 56.0991 68.8905 56.2567 69.0482 56.3234C69.3271 56.4507 69.4726 56.5114 69.7455 56.6144C69.8182 56.6387 69.9455 56.6933 70.0304 56.7296C70.1153 56.766 70.4427 56.8934 70.758 57.0146C71.0733 57.1359 71.4007 57.2632 71.4856 57.2996C71.7766 57.4209 71.8858 57.4633 72.2738 57.5967C72.4921 57.6695 72.7892 57.7847 72.9408 57.8453C73.0924 57.912 73.3349 58.0029 73.4865 58.0514C73.6381 58.0999 73.82 58.1666 73.8988 58.203C74.8386 58.5971 76.6757 59.0458 77.373 59.0458C77.5974 59.0458 77.9126 58.7608 77.9126 58.5547C77.9126 58.3607 77.5549 58.0575 77.2093 57.9605C77.0456 57.912 76.7061 57.8089 76.4575 57.7301C76.2089 57.6513 75.8936 57.5603 75.7602 57.5239C75.6268 57.4876 75.4631 57.433 75.3964 57.4087C75.3297 57.3845 75.1781 57.3299 75.0629 57.2875C74.9477 57.245 74.7961 57.1905 74.7294 57.1662C74.6627 57.1359 74.2808 56.9843 73.8806 56.8327C72.959 56.4689 72.8741 56.4386 72.7468 56.3719C72.6861 56.3416 72.6134 56.3173 72.577 56.3173C72.5467 56.3173 72.3648 56.2446 72.1708 56.1597C71.9767 56.0748 71.7524 55.9717 71.6675 55.9414C71.5826 55.905 71.4674 55.8565 71.4128 55.8262C71.3522 55.7959 71.2673 55.7717 71.2249 55.7717C71.1824 55.7717 71.0309 55.7171 70.8914 55.6504C70.758 55.5837 70.6186 55.5291 70.5882 55.5291C70.564 55.5291 70.3942 55.4624 70.2245 55.3775C70.0486 55.2927 69.8849 55.226 69.8485 55.226C69.7879 55.226 69.5514 55.1229 68.9087 54.8319C68.745 54.753 68.4237 54.6075 68.2054 54.5105C67.684 54.268 66.3804 53.4919 65.671 52.9886C65.3617 52.7704 65.0464 52.546 64.9737 52.4975C64.907 52.449 64.5735 52.2004 64.24 51.9518C63.7004 51.5456 62.1907 50.5148 61.8754 50.339C61.8087 50.3026 61.5722 50.1571 61.3539 50.0237C61.1296 49.8843 60.3899 49.4962 59.7169 49.1567C57.2734 47.9319 56.7398 47.5014 53.2353 43.9787C50.9252 41.6504 50.3067 41.1168 49.3245 40.5832C49.0577 40.4438 48.6333 40.2498 48.3847 40.1649C48.1361 40.0739 47.8814 39.9769 47.8268 39.9405C47.7662 39.9102 47.6935 39.886 47.6571 39.886C47.5419 39.886 46.5839 39.4191 46.2201 39.1826C45.2742 38.5763 43.625 36.9695 42.7155 35.7569C42.5761 35.575 41.897 34.6837 41.3816 34.0107C40.3205 32.6161 39.6597 32.1129 38.5016 31.8158C37.9619 31.6763 37.3253 31.6218 37.0767 31.7006Z" fill="currentColor"/>
<path d="M25.5567 32.1881C25.49 32.2124 25.3263 32.3518 25.1929 32.4913L24.9564 32.752L24.4835 32.7096C24.1682 32.6853 23.962 32.6914 23.8711 32.7399C23.5073 32.9278 23.2829 33.2916 23.2829 33.71C23.2829 33.9768 23.1738 34.2496 23.0707 34.2496C23.0283 34.2496 22.9495 34.1951 22.8888 34.1284C22.8282 34.0617 22.7554 34.0071 22.7251 34.0071C22.6948 34.0071 22.5493 33.9222 22.4038 33.8252C22.2583 33.7221 22.1006 33.6433 22.046 33.6433C21.9975 33.6433 21.9369 33.613 21.9187 33.5827C21.8641 33.4917 21.3851 33.5099 21.1426 33.613C21.0274 33.6615 20.8637 33.7888 20.7849 33.898C20.6515 34.092 20.6454 34.1405 20.6576 35.0742C20.6636 36.0019 20.6576 36.0565 20.5302 36.2202L20.3968 36.39L19.8511 36.1596C19.5298 36.0201 19.1781 35.917 18.978 35.9049C18.6809 35.8806 18.6142 35.8988 18.3838 36.0686C18.0746 36.2929 18.014 36.4324 17.9473 37.069C17.917 37.3358 17.8745 37.6632 17.8563 37.7966C17.8078 38.0816 17.8988 38.2271 18.1413 38.2817C18.2747 38.3181 18.3414 38.2878 18.4869 38.1483C18.6264 38.0028 18.6749 37.8815 18.7355 37.5056C18.8446 36.8265 18.8628 36.8204 19.7056 37.0994C20.4939 37.3661 20.8576 37.3965 21.1426 37.2206C21.5064 37.0023 21.5549 36.8265 21.5549 35.7048V34.7044L21.7732 34.7165C21.9733 34.7286 22.2461 34.8499 22.7676 35.1712C23.0222 35.3228 23.6043 35.3228 23.8286 35.1591C24.0772 34.9833 24.1924 34.6862 24.1924 34.2314C24.1924 33.6312 24.1803 33.6433 24.7988 33.6433H25.3263L25.6112 33.3947C25.9023 33.134 26.1327 32.7702 26.1327 32.558C26.1327 32.364 26.066 32.2488 25.9508 32.2488C25.8841 32.2488 25.8174 32.2184 25.7992 32.1881C25.7567 32.1154 25.7204 32.1154 25.5567 32.1881Z" fill="currentColor"/>
<path d="M48.6094 32.5982C48.3608 32.871 48.5548 33.7077 48.9308 34.0291C49.3612 34.3868 49.7614 34.4414 50.3859 34.2231C50.5375 34.1685 50.7194 34.1261 50.7982 34.1261C50.9316 34.1261 50.9316 34.1443 50.9256 34.6839C50.9195 35.3206 50.9619 35.5388 51.1256 35.7814C51.4046 36.1755 51.9321 36.2118 52.8355 35.8966C53.4964 35.6601 53.7389 35.7329 53.5449 36.1148C53.3812 36.4362 53.2114 37.2305 53.2599 37.4669C53.3084 37.7398 53.4964 38.0369 53.7025 38.1703C53.9208 38.3158 54.6059 38.3158 55.0364 38.1763C55.2972 38.0854 55.4002 38.0793 55.6731 38.1339C56.1642 38.237 56.2127 38.2309 56.3461 38.0551C56.4552 37.9096 56.4613 37.8671 56.3946 37.7398C56.2551 37.4851 55.861 37.3335 55.382 37.3396C55.1516 37.3457 54.8606 37.376 54.7393 37.4063C54.2482 37.5336 54.1512 37.2426 54.3937 36.3756C54.5938 35.6601 54.4665 35.1023 54.036 34.8173C53.7874 34.6536 53.2963 34.69 52.7506 34.9143C52.502 35.0174 52.1988 35.1083 52.0836 35.1144L51.8714 35.1265V34.3868C51.8714 33.5683 51.8169 33.4228 51.4167 33.1924C51.2105 33.0711 50.9801 33.0832 50.107 33.2894C49.6644 33.3864 49.5007 33.3257 49.3552 33.0105C49.2279 32.7255 48.9793 32.489 48.8095 32.489C48.7549 32.489 48.664 32.5375 48.6094 32.5982Z" fill="currentColor"/>
<path d="M32.9658 42.0341C32.7112 42.2767 32.4444 42.6101 32.3535 42.786C32.2686 42.9557 32.1716 43.1073 32.1352 43.1316C32.0745 43.168 31.2075 44.8778 31.0438 45.284C30.6557 46.2481 29.8615 47.1212 28.5579 48.0125C27.5696 48.6794 27.2664 49.0008 25.9931 50.6682C25.4535 51.3836 24.9684 52.0264 24.9199 52.0991C24.8714 52.1719 24.7259 52.3598 24.5986 52.5175C24.35 52.8146 24.3197 53.0086 24.5076 53.1238C24.5864 53.1723 24.7138 53.1359 25.0776 52.9601C25.6354 52.6812 26.2599 52.1112 27.0602 51.1351C27.9697 50.0255 28.7276 49.304 29.4674 48.825C30.8376 47.9458 31.735 46.8241 32.3171 45.2537C32.5232 44.6959 32.5657 44.5868 32.79 44.0411C32.8567 43.8713 32.9901 43.5318 33.081 43.2832C33.172 43.0346 33.2933 42.7193 33.3478 42.5859C33.4509 42.3615 33.5904 41.8462 33.5904 41.7188C33.5904 41.6825 33.5479 41.6461 33.5055 41.6279C33.4448 41.6036 33.2448 41.7552 32.9658 42.0341Z" fill="currentColor"/>
<path d="M38.9204 41.6535C38.7992 41.7263 38.8234 42.3932 38.9568 42.7752C39.0175 42.9389 39.0842 43.1693 39.1084 43.2845C39.1751 43.5816 39.3752 44.2122 39.551 44.6851C39.9815 45.8311 40.4363 46.5708 41.0365 47.0862C42.0551 47.9532 42.3462 48.2927 43.0374 49.3781C43.4012 49.948 43.4861 50.0875 43.8377 50.712C44.0803 51.1546 44.7412 52.1005 44.9716 52.3551C45.3172 52.7189 45.4991 52.8281 45.6506 52.7432C45.9538 52.5855 45.8568 52.2399 45.0625 50.621C44.5653 49.6024 44.2015 48.9415 43.9772 48.6444C43.8984 48.5413 43.8377 48.4383 43.8377 48.408C43.8377 48.3352 43.292 47.5894 42.9404 47.1832C42.7645 46.977 42.3341 46.5587 41.9884 46.2616C41.2305 45.5946 40.8607 45.061 40.4666 44.0727C40.2847 43.618 39.6359 42.369 39.3934 41.9991C39.1509 41.6353 39.0538 41.5686 38.9204 41.6535Z" fill="currentColor"/>
<path d="M45.329 44.7124C45.1895 44.8458 45.2077 45.1732 45.3714 45.4097C45.4442 45.5249 45.7291 45.7674 45.9959 45.9493C47.2874 46.8285 47.6148 47.2044 48.7729 49.1446C49.5187 50.3937 50.2159 51.2364 50.7616 51.5396C51.1133 51.7336 51.5802 51.8125 51.7378 51.6912C51.8469 51.6124 51.8469 51.6063 51.7196 51.3698C51.6468 51.2425 51.5135 51.0485 51.4225 50.9515C51.2285 50.7393 50.4585 49.66 50.2766 49.3447C50.2099 49.2295 50.0037 48.8778 49.8157 48.5686C49.4823 48.0229 49.2822 47.6834 49.1488 47.4348C49.076 47.3014 48.3363 46.3313 48.0817 46.0463C47.8573 45.7917 46.9357 45.1247 46.5295 44.9246C45.911 44.6154 45.4927 44.5426 45.329 44.7124Z" fill="currentColor"/>
<path d="M36.076 54.7836C35.9912 54.7896 35.6274 54.826 35.2575 54.8624C33.966 54.9776 33.5719 55.0867 30.1947 56.2448C29.9097 56.3418 29.5581 56.457 29.4065 56.4995C29.2549 56.5358 29.0851 56.5965 29.0306 56.6268C28.9699 56.6571 28.8668 56.6814 28.8062 56.6814C28.7395 56.6814 28.6243 56.7056 28.5455 56.7359C28.3636 56.8026 27.6603 56.9663 27.1691 57.0512C26.9569 57.0876 26.3021 57.1118 25.714 57.1118C24.6711 57.1118 24.0344 57.0391 22.5853 56.7723C22.0396 56.6692 20.1297 56.645 19.772 56.7359C19.6507 56.7662 19.4021 56.8269 19.2202 56.8693C18.8868 56.9421 18.0803 57.1846 17.856 57.2816C17.7893 57.3119 17.5468 57.3908 17.3103 57.4575C16.8919 57.5787 15.934 57.8637 15.6429 57.9546C15.558 57.9789 15.3701 58.0335 15.2185 58.0759C15.0669 58.1183 14.8668 58.179 14.7637 58.2032C13.921 58.4458 13.0782 58.7792 12.9508 58.9187C12.8538 59.0278 12.8538 59.04 12.9751 59.1552C13.0479 59.2219 13.1873 59.2946 13.2904 59.3128C13.7148 59.3977 15.0851 59.3128 15.7036 59.1673C15.8551 59.1309 16.0916 59.0885 16.2371 59.0642C16.3766 59.046 16.51 59.0036 16.5282 58.9793C16.5463 58.949 16.6191 58.9248 16.6858 58.9248C16.7586 58.9248 16.898 58.9005 17.0011 58.8641C17.1042 58.8338 17.5165 58.7125 17.9166 58.5913C18.3168 58.47 18.6988 58.3487 18.7655 58.3184C18.8322 58.2881 18.9716 58.2517 19.0686 58.2275C19.1717 58.2093 19.3718 58.1608 19.5234 58.1244C19.8993 58.0274 21.8153 58.0335 22.4034 58.1244C23.8889 58.3609 25.6958 58.47 26.6234 58.3791C27.4056 58.3063 27.9089 58.2335 28.3333 58.1426C28.4909 58.1062 28.7335 58.0517 28.879 58.0213C29.1276 57.9728 29.843 57.7546 30.1219 57.6454C30.2008 57.6151 30.3281 57.5908 30.4069 57.5908C30.4857 57.5908 30.5706 57.5605 30.5888 57.5302C30.607 57.4938 30.6798 57.4696 30.7464 57.4696C30.8071 57.4696 30.9102 57.4453 30.9708 57.415C31.0254 57.3847 31.3225 57.2816 31.6196 57.1785C32.2562 56.9663 32.7231 56.8026 32.8928 56.7359C32.9595 56.7117 33.0808 56.6753 33.1657 56.6571C33.2506 56.645 33.4264 56.5965 33.5598 56.5601C35.0513 56.1357 37.1432 56.0872 38.7135 56.4388C38.8833 56.4752 39.1258 56.5298 39.2592 56.5601C39.8656 56.6935 40.2172 56.7905 40.9266 57.0148C41.2116 57.1058 41.4966 57.1907 41.5633 57.2089C41.63 57.227 41.7149 57.2634 41.7452 57.2877C41.7815 57.3059 41.9149 57.3604 42.0483 57.3968C42.1817 57.4332 42.497 57.5241 42.7456 57.5969C42.9942 57.6697 43.3762 57.7909 43.5945 57.8637C44.2068 58.082 44.6252 58.1972 45.2618 58.3184C45.4619 58.3548 45.7348 58.4154 45.8682 58.4397C47.1475 58.7247 49.3485 58.6944 50.8885 58.3791C51.0462 58.3427 51.3008 58.2881 51.4645 58.2578C51.6222 58.2214 51.889 58.1729 52.0527 58.1365C52.4043 58.0698 52.6711 58.0153 53.5079 57.8455C54.4719 57.6515 55.6361 57.5666 56.2545 57.6515C56.7578 57.7182 57.3944 57.8455 57.7218 57.9546C57.8067 57.9789 57.9947 58.0395 58.1462 58.082C58.2978 58.1244 58.4494 58.179 58.4797 58.1972C58.5161 58.2214 58.607 58.2578 58.6919 58.276C58.9223 58.3306 59.2194 58.4094 59.7833 58.5913C60.0683 58.6762 60.4381 58.7792 60.6018 58.8096C60.7716 58.8399 61.0263 58.8944 61.1779 58.9308C61.3294 58.9672 61.6023 59.0157 61.7842 59.046C61.9661 59.0763 62.2814 59.1309 62.4814 59.1612C64.1731 59.4462 66.7803 59.3067 67.132 58.9126C67.4169 58.5913 66.8409 58.3912 65.0886 58.1972C64.7552 58.1608 64.3125 58.1062 64.1125 58.0759C63.9063 58.0395 63.6335 58.0153 63.5061 58.0153C63.2212 58.0153 62.2874 57.8455 61.1172 57.5908C61.002 57.5666 60.3351 57.3544 59.6317 57.124C57.5702 56.4388 57.1579 56.3418 56.0241 56.2812C55.2359 56.2387 54.3688 56.3236 53.2047 56.554C52.5862 56.6753 52.3498 56.7299 52.0224 56.8208C51.6949 56.9118 51.2523 57.0088 50.6581 57.1118C49.0999 57.3908 47.287 57.415 46.1713 57.1664C45.6681 57.0573 44.8859 56.8451 44.4736 56.7117C44.2432 56.6389 43.9279 56.5419 43.7764 56.4995C43.6248 56.457 43.2731 56.3418 42.9881 56.2448C42.3454 56.0205 42.0605 55.9295 41.7149 55.8325C41.5633 55.7901 41.3874 55.7355 41.3207 55.7112C41.1752 55.6567 40.769 55.5475 40.5628 55.5051C40.478 55.493 40.1505 55.402 39.8352 55.3171C39.1622 55.1292 38.853 55.0564 38.3498 54.9776C37.9738 54.923 36.3125 54.7411 36.2579 54.7532C36.2397 54.7593 36.1609 54.7714 36.076 54.7836Z" fill="currentColor"/>
<path d="M32.8933 60.2887C32.863 60.3069 32.5356 60.3432 32.1657 60.3796C31.3533 60.4584 30.7773 60.5312 30.2558 60.6221C30.0376 60.6585 29.7101 60.7131 29.5282 60.7434C29.3463 60.7677 28.934 60.8404 28.6188 60.895C27.8427 61.0284 26.5148 61.1618 25.9388 61.1678C25.4719 61.1678 24.8777 61.2406 24.2775 61.3619C23.9379 61.4346 23.6651 61.5983 23.7318 61.7014C23.7863 61.7923 24.4897 62.0106 24.9808 62.0834C25.5993 62.1865 28.1458 62.2228 28.7097 62.144C29.4676 62.0349 29.9223 61.9682 30.7409 61.8287C31.1593 61.762 31.7171 61.6832 31.9839 61.6529C32.2506 61.6226 32.5538 61.5862 32.6508 61.5619C33.0934 61.471 35.737 61.7863 36.986 62.0834C37.1376 62.1137 37.368 62.1683 37.5014 62.1986C37.6348 62.2289 37.8652 62.2835 38.0168 62.3198C38.611 62.4654 39.4841 62.623 41.0787 62.8716C42.1762 63.0414 44.753 63.0414 46.1112 62.8716C46.6023 62.811 47.8695 62.5745 48.4455 62.4351C48.5971 62.4047 48.8336 62.3502 48.9791 62.3138C49.1186 62.2835 49.3611 62.2289 49.5248 62.1925C50.598 61.9561 53.2537 61.6893 55.1091 61.6347C55.4668 61.6226 55.5699 61.5983 55.6244 61.5134C55.679 61.4225 55.6669 61.3861 55.5456 61.2952C55.297 61.1072 54.5149 60.8768 53.8418 60.804C53.4902 60.7616 53.0597 60.707 52.8778 60.6767C52.0289 60.5373 50.5798 60.6585 48.9003 61.0163C48.6699 61.0648 48.3243 61.1375 48.1424 61.1739C47.9605 61.2103 47.6876 61.2648 47.5361 61.2952C46.6448 61.4771 45.2623 61.6529 44.2922 61.7135C43.3706 61.7681 41.8548 61.7075 41.4183 61.5983C41.297 61.568 40.9696 61.5074 40.6846 61.471C40.1935 61.4043 40.0176 61.374 39.2779 61.2224C38.993 61.1678 38.0774 60.9556 37.4711 60.804C37.271 60.7555 36.9375 60.6888 36.2463 60.5676C35.7309 60.4706 34.9427 60.3857 34.2879 60.3493C33.9544 60.3311 33.5179 60.3069 33.3178 60.2887C33.1177 60.2765 32.9297 60.2765 32.8933 60.2887Z" fill="currentColor"/>
</svg>
