<svg width="25" height="25" viewBox="0 0 25 25" fill="none" xmlns="http://www.w3.org/2000/svg">
<rect width="25" height="25" rx="12.5" fill="#2D2B27"/>
<path d="M12.4969 5C8.35048 5 5 8.35664 5 12.4969C5 15.6746 6.9745 18.3896 9.76348 19.4817C9.6956 18.8893 9.64007 17.9761 9.78815 17.3283C9.9239 16.7421 10.6643 13.6014 10.6643 13.6014C10.6643 13.6014 10.4422 13.151 10.4422 12.4907C10.4422 11.448 11.0469 10.6705 11.7997 10.6705C12.4414 10.6705 12.7499 11.1518 12.7499 11.7256C12.7499 12.3673 12.3426 13.3299 12.1267 14.2246C11.9478 14.9712 12.5031 15.5821 13.2374 15.5821C14.5701 15.5821 15.5944 14.1752 15.5944 12.1514C15.5944 10.3558 14.3048 9.10325 12.4599 9.10325C10.325 9.10325 9.0724 10.7014 9.0724 12.355C9.0724 12.9967 9.31921 13.6878 9.62773 14.0642C9.68944 14.1382 9.6956 14.2061 9.67709 14.2801C9.62156 14.5146 9.49198 15.0267 9.4673 15.1316C9.43645 15.2674 9.35623 15.2982 9.21431 15.2304C8.28877 14.7861 7.70876 13.4163 7.70876 12.318C7.70876 9.95476 9.4241 7.7828 12.6635 7.7828C15.2612 7.7828 17.2851 9.63389 17.2851 12.1144C17.2851 14.6997 15.6561 16.7791 13.3978 16.7791C12.6388 16.7791 11.9231 16.3842 11.6824 15.9153C11.6824 15.9153 11.306 17.3468 11.2135 17.6985C11.0469 18.3525 10.5903 19.167 10.2818 19.6668C10.9852 19.8828 11.7256 20 12.5031 20C16.6434 20 20 16.6434 20 12.5031C19.9938 8.35664 16.6372 5 12.4969 5Z" fill="white"/>
</svg>
