<svg width="25" height="25" viewBox="0 0 25 25" fill="none" xmlns="http://www.w3.org/2000/svg">
<rect width="25" height="25" rx="12.5" fill="#2D2B27"/>
<path fill-rule="evenodd" clip-rule="evenodd" d="M5.6584 12.3684C9.30241 10.7808 11.7323 9.73414 12.9481 9.22844C16.4195 7.78458 17.1408 7.53376 17.611 7.52548C17.7144 7.52366 17.9456 7.54928 18.0954 7.67081C18.2218 7.77342 18.2566 7.91204 18.2733 8.00932C18.2899 8.10661 18.3106 8.32824 18.2942 8.50141C18.106 10.4779 17.2921 15.2745 16.878 17.4883C16.7027 18.425 16.3577 18.7391 16.0237 18.7698C15.2978 18.8366 14.7466 18.2901 14.0435 17.8292C12.9434 17.108 12.3218 16.6591 11.2539 15.9554C10.0198 15.1421 10.8198 14.6951 11.5232 13.9646C11.7072 13.7734 14.9056 10.8643 14.9675 10.6004C14.9752 10.5674 14.9824 10.4444 14.9093 10.3794C14.8362 10.3144 14.7283 10.3366 14.6505 10.3543C14.5402 10.3794 12.7826 11.541 9.37793 13.8393C8.87906 14.1818 8.4272 14.3488 8.02235 14.34C7.57604 14.3304 6.71751 14.0877 6.07928 13.8802C5.29647 13.6257 4.6743 13.4912 4.72848 13.059C4.7567 12.8339 5.06667 12.6037 5.6584 12.3684Z" fill="white"/>
</svg>
