<svg width="18" height="18" viewBox="0 0 18 18" fill="none" xmlns="http://www.w3.org/2000/svg">
<g clip-path="url(#clip0_90_333)">
<path d="M17.7143 17.3563C17.7143 17.3563 12.5714 14.7849 12.5714 10.9277H6.14286C6.14286 14.7849 1 17.3563 1 17.3563" stroke="#2D2B27" stroke-linecap="round" stroke-linejoin="round"/>
<path d="M13.8571 7.0707C14.5391 7.0707 15.1931 6.79978 15.6753 6.31755C16.1576 5.83531 16.4285 5.18126 16.4285 4.49927C16.4285 3.81729 16.1576 3.16323 15.6753 2.681C15.1931 2.19876 14.5391 1.92784 13.8571 1.92784C13.2786 1.92755 12.7169 2.12233 12.2628 2.4807C12.0025 1.93026 11.5912 1.46509 11.0767 1.13933C10.5623 0.813571 9.96596 0.640625 9.35707 0.640625C8.74819 0.640625 8.15182 0.813571 7.6374 1.13933C7.12299 1.46509 6.71168 1.93026 6.45136 2.4807C5.99725 2.12233 5.43556 1.92755 4.85707 1.92784C4.17509 1.92784 3.52103 2.19876 3.0388 2.681C2.55656 3.16323 2.28564 3.81729 2.28564 4.49927C2.28564 5.18126 2.55656 5.83531 3.0388 6.31755C3.52103 6.79978 4.17509 7.0707 4.85707 7.0707" stroke="#2D2B27" stroke-linecap="round" stroke-linejoin="round"/>
<path d="M7.42847 5.78516V10.928" stroke="#2D2B27" stroke-linecap="round" stroke-linejoin="round"/>
<path d="M11.2856 5.78516V10.928" stroke="#2D2B27" stroke-linecap="round" stroke-linejoin="round"/>
</g>
<defs>
<clipPath id="clip0_90_333">
<rect width="18" height="18" fill="white"/>
</clipPath>
</defs>
</svg>
