<svg width="18" height="18" viewBox="0 0 18 18" fill="none" xmlns="http://www.w3.org/2000/svg">
<path d="M7.10986 13.9512L8.18986 16.9726" stroke="#2D2B27" stroke-linecap="round" stroke-linejoin="round"/>
<path d="M2.5459 1.24805L2.98304 2.45662" stroke="#2D2B27" stroke-linecap="round" stroke-linejoin="round"/>
<path d="M7.10986 13.9513L4.85986 13.3984" stroke="#2D2B27" stroke-linecap="round" stroke-linejoin="round"/>
<path d="M7.10986 13.9502L8.48558 12.0859" stroke="#2D2B27" stroke-linecap="round" stroke-linejoin="round"/>
<path d="M6.01709 10.929L3.76709 10.3633" stroke="#2D2B27" stroke-linecap="round" stroke-linejoin="round"/>
<path d="M6.01709 10.9287L7.40566 9.06445" stroke="#2D2B27" stroke-linecap="round" stroke-linejoin="round"/>
<path d="M4.93701 7.89465L2.68701 7.3418" stroke="#2D2B27" stroke-linecap="round" stroke-linejoin="round"/>
<path d="M4.93701 7.8944L6.31273 6.04297" stroke="#2D2B27" stroke-linecap="round" stroke-linejoin="round"/>
<path d="M3.84424 4.87317L1.59424 4.32031" stroke="#2D2B27" stroke-linecap="round" stroke-linejoin="round"/>
<path d="M3.84424 4.87405L5.23281 3.00977" stroke="#2D2B27" stroke-linecap="round" stroke-linejoin="round"/>
<path d="M12.2273 13.1797L11.5073 16.0725" stroke="#2D2B27" stroke-linecap="round" stroke-linejoin="round"/>
<path d="M15.236 1.0293L14.9531 2.18644" stroke="#2D2B27" stroke-linecap="round" stroke-linejoin="round"/>
<path d="M12.2273 13.1802L10.7744 11.5859" stroke="#2D2B27" stroke-linecap="round" stroke-linejoin="round"/>
<path d="M12.2271 13.179L14.2456 12.459" stroke="#2D2B27" stroke-linecap="round" stroke-linejoin="round"/>
<path d="M12.9346 10.2857L11.4946 8.69141" stroke="#2D2B27" stroke-linecap="round" stroke-linejoin="round"/>
<path d="M12.9346 10.2856L14.966 9.55273" stroke="#2D2B27" stroke-linecap="round" stroke-linejoin="round"/>
<path d="M13.6544 7.39311L12.2144 5.79883" stroke="#2D2B27" stroke-linecap="round" stroke-linejoin="round"/>
<path d="M13.6543 7.39301L15.6857 6.66016" stroke="#2D2B27" stroke-linecap="round" stroke-linejoin="round"/>
<path d="M14.3746 4.50054L12.9346 2.90625" stroke="#2D2B27" stroke-linecap="round" stroke-linejoin="round"/>
<path d="M14.3745 4.50044L16.4059 3.76758" stroke="#2D2B27" stroke-linecap="round" stroke-linejoin="round"/>
</svg>
